<svg id="katman_1" data-name="katman 1" xmlns="http://www.w3.org/2000/svg" viewBox="0 0 240 44"><defs><style>.cls-1{fill:#fff;}</style></defs><title>Client_Logos</title><path class="cls-1" d="M10.62,10.57V20.83H6.81V10.18s-.36-4.53,3.92-4.53H30.46v3.8H10.62Z"/><rect class="cls-1" x="6.81" y="27.44" width="3.81" height="7.96"/><path class="cls-1" d="M23.78,21.46V10.87H27.6V21.46C27.79,26,23.78,26,23.78,26H2.11V22.23H23.78Z"/><rect class="cls-1" x="23.78" y="1.14" width="3.82" height="3.11"/><path class="cls-1" d="M47.84,23V35.4H44.69V23a.62.62,0,0,0-.64-.6H34.43a.62.62,0,0,0-.64.6V35.4H30.64V14.22h3.15v5.23H44.05A3.69,3.69,0,0,1,47.84,23Z"/><path class="cls-1" d="M63.45,19.45A3.68,3.68,0,0,1,67.24,23v8.8a3.69,3.69,0,0,1-3.79,3.58H53.82A3.68,3.68,0,0,1,50,31.82V23a3.68,3.68,0,0,1,3.79-3.57Zm0,3H53.18v10H64.09v-10Z"/><path class="cls-1" d="M72.69,22.42v9.4a.63.63,0,0,0,.64.61h6.3v3h-6.3a3.68,3.68,0,0,1-3.79-3.58V14.22h3.15v5.23h6.94v3Z"/><path class="cls-1" d="M125.18,18.6h-3.51V17.32a.7.7,0,0,0-.71-.68H106a.7.7,0,0,0-.71.68V22a.7.7,0,0,0,.71.67H121a4.1,4.1,0,0,1,4.22,4v4.72a4.1,4.1,0,0,1-4.22,4H106a4.1,4.1,0,0,1-4.22-4V30.13h3.51v1.29a.7.7,0,0,0,.71.67H121a.7.7,0,0,0,.71-.67V26.7A.7.7,0,0,0,121,26H106a4.1,4.1,0,0,1-4.22-4V17.32a4.1,4.1,0,0,1,4.22-4H121a4.1,4.1,0,0,1,4.22,4Z"/><path class="cls-1" d="M131.21,19.45h13.42V41.73h-3.15V35.4H131.21a3.69,3.69,0,0,1-3.79-3.58V23A3.68,3.68,0,0,1,131.21,19.45ZM130.57,23v9.41h10.91v-10H130.57Z"/><path class="cls-1" d="M94.85,19.4A3.68,3.68,0,0,1,98.64,23v8.8a3.68,3.68,0,0,1-3.79,3.57H85.22a3.68,3.68,0,0,1-3.79-3.57V23a3.68,3.68,0,0,1,3.79-3.58Zm0,3H84.58v10H95.49v-10Z"/><path class="cls-1" d="M165,19.45V31.82a3.68,3.68,0,0,1-3.79,3.58h-9.62a3.68,3.68,0,0,1-3.79-3.58V19.45h3.15V31.82a.63.63,0,0,0,.64.61h9.62a.63.63,0,0,0,.64-.61V19.45Z"/><path class="cls-1" d="M185.19,23V35.4H171.78A3.68,3.68,0,0,1,168,31.82V25.94h14V23a.62.62,0,0,0-.64-.6H168v-3H181.4A3.68,3.68,0,0,1,185.19,23ZM182,28.91h-10.9v2.91a.63.63,0,0,0,.64.61H182Z"/><path class="cls-1" d="M200.88,19.45v3h-9.45a.62.62,0,0,0-.64.6V35.4h-3.15V23a3.68,3.68,0,0,1,3.79-3.57Z"/><path class="cls-1" d="M219.75,23v5.89H205.69v2.91a.63.63,0,0,0,.64.61h13.42v3H206.33a3.68,3.68,0,0,1-3.79-3.58V23a3.68,3.68,0,0,1,3.79-3.57H216A3.68,3.68,0,0,1,219.75,23Zm-3.15,2.92V23a.62.62,0,0,0-.64-.6h-9.63a.62.62,0,0,0-.64.6v2.92Z"/><path class="cls-1" d="M239.11,14.22V35.4H225.7a3.68,3.68,0,0,1-3.79-3.58V23a3.68,3.68,0,0,1,3.79-3.57H236V14.22ZM225.06,23v9.41H236v-10h-10.9Z"/></svg>