<?xml version="1.0" encoding="utf-8"?>
<!-- Generator: Adobe Illustrator 21.1.0, SVG Export Plug-In . SVG Version: 6.00 Build 0)  -->
<svg version="1.1" id="Layer_1" xmlns="http://www.w3.org/2000/svg" xmlns:xlink="http://www.w3.org/1999/xlink" x="0px" y="0px"
	 viewBox="0 0 483.6 105.5" style="enable-background:new 0 0 483.6 105.5;" xml:space="preserve">
<style type="text/css">
	.st0{fill:#FF3366;}
	.st1{fill:#FFFFFF;}
	.st2{opacity:0.5;}
	.st3{fill:#FFFFFF;stroke:#FFFFFF;stroke-width:0.2;stroke-miterlimit:10;}
</style>
<title>Img</title>
<path class="st0" d="M0,93V23.7c0-2,1.6-3.6,3.5-3.7c2,0,3.6,1.6,3.6,3.6l0,0v65.2l56.5-32.6c1.7-1,3.9-0.4,4.9,1.3
	c1,1.7,0.4,3.9-1.3,4.9l0,0l0,0L7.1,97c-2.3,1.3-5.2,0.5-6.5-1.8C0.2,94.5,0,93.8,0,93z"/>
<path class="st0" d="M15.4,77.8c-2-0.1-3.5-1.7-3.5-3.7V4.8C11.9,2.1,14,0,16.6,0c0.8,0,1.7,0.2,2.4,0.6l60.1,34.9
	c1.7,1,2.3,3.1,1.4,4.9c-1,1.7-3.1,2.3-4.9,1.4c0,0-0.1,0-0.1,0l0,0L19,9v65.2c0,2-1.6,3.6-3.5,3.6c0,0,0,0,0,0H15.4z"/>
<path class="st0" d="M27.5,98.6c-1.3,0-2.6-0.6-3.2-1.8c-1-1.7-0.4-3.9,1.3-4.9h0.1l56.6-32.6L25.7,26.6c-1.7-0.9-2.4-3.1-1.5-4.8
	l0-0.1c1-1.7,3.2-2.3,4.9-1.3l60.2,34.6c2.3,1.3,3,4.2,1.7,6.5c-0.4,0.7-1,1.3-1.7,1.7L29.3,98.1C28.7,98.4,28.1,98.6,27.5,98.6z"/>
<path class="st1" d="M118.6,62.2V62c0-10.7,8.9-16.5,21.8-16.5c5.3,0,10.6,0.7,15.7,2.2v-1.8c0-9.2-5.6-14-15.2-14
	c-4.6,0-9.1,0.9-13.2,2.8c-0.4,0.2-0.9,0.3-1.4,0.3c-1.8,0-3.3-1.4-3.4-3.2c0.1-1.3,0.8-2.5,2-3c5.3-2.3,11-3.5,16.8-3.5
	c6-0.4,12,1.6,16.5,5.6c3.7,4,5.6,9.4,5.2,14.9v28c0.1,2-1.5,3.7-3.5,3.7h-0.2c-1.9,0.1-3.6-1.4-3.7-3.3v-4.9
	c-4.4,5.7-11.3,9-18.5,8.7C128.2,78,118.6,72.6,118.6,62.2z M156.2,58.2v-4.9c-4.9-1.4-9.9-2.2-15-2.2c-9.6,0-14.9,4.1-14.9,10.6
	v0.2c0,6.4,5.9,10.2,12.8,10.2C148.5,72,156.2,66.2,156.2,58.2z"/>
<path class="st1" d="M221.7,73.6c-0.1,2.1-1.9,3.7-4,3.6c-2-0.1-3.5-1.7-3.6-3.6v-6.9c-4.1,6.9-11.5,11.1-19.6,11.2
	c-12.2,0-24.4-9.6-24.4-26.4v-0.1c0-16.8,12.1-26.6,24.4-26.6c8,0,15.4,4.1,19.6,10.9V8.3c-0.1-2,1.5-3.8,3.6-3.8c0,0,0,0,0,0h0.2
	c2.1,0,3.8,1.6,3.8,3.7c0,0,0,0,0,0V73.6z M178,51.3v0.2c0,12,8.4,19.7,18,19.7c10.5-0.3,18.7-9.1,18.4-19.6c0,0,0-0.1,0-0.1v-0.3
	c0.3-10.5-7.9-19.2-18.4-19.6h-0.1C186.1,31.7,178,39,178,51.3z"/>
<path class="st1" d="M231.8,28.7c-0.1-1.3,0.8-2.4,2.1-2.4c0,0,0,0,0,0h0.3c1.3-0.1,2.4,1,2.5,2.3c0,0,0,0,0,0c0,0.1,0,0.1,0,0.2
	v9.2c4.3-6.6,10.7-12.4,20.7-12.4c13.8,0.3,24.7,11.7,24.5,25.4c0,0.2,0,0.5,0,0.7v0.2c0,16.4-12.3,26.3-24.5,26.3
	c-8.5-0.1-16.3-4.6-20.6-11.9v24.6c0.1,1.3-0.9,2.4-2.2,2.4h-0.2c-1.3,0.1-2.4-1-2.5-2.3v-0.2L231.8,28.7z M276.5,52v-0.2
	c0-13.2-9.2-21.7-19.7-21.7c-11.6,0.3-20.8,10-20.5,21.6v0.2c-0.3,11.6,8.8,21.3,20.4,21.6h0.1C267.8,73.5,276.5,65.5,276.5,52
	L276.5,52z"/>
<path class="st1" d="M289.3,62.4v-0.2c0-10.5,9-16.4,22-16.4c5.7-0.1,11.3,0.7,16.7,2.2v-2.2c0-10.2-6.2-15.4-16.5-15.4
	c-5,0-9.9,1.1-14.3,3.4c-0.3,0.2-0.7,0.3-1.1,0.3c-1.2-0.1-2.2-1.1-2.3-2.3c0-0.9,0.5-1.7,1.4-2.1c5.2-2.4,10.8-3.7,16.6-3.8
	c5.8-0.3,11.6,1.7,15.9,5.6c3.6,3.8,5.4,9,5.1,14.2v29.2c-0.1,1.3-1.2,2.3-2.5,2.2c-1.2-0.1-2.1-1-2.2-2.2l0,0v-6.3
	c-4.4,6.2-11.6,9.8-19.2,9.6C299.3,78.2,289.3,72.8,289.3,62.4z M328,58.1v-5.7c-5.5-1.5-11.3-2.2-17-2.3
	c-10.6,0-16.5,4.7-16.5,11.7v0.2c0,7.3,6.9,11.5,14.6,11.5C319.3,73.6,328,67.3,328,58.1z"/>
<path class="st1" d="M344.1,28.7c-0.2-1.3,0.7-2.6,2.1-2.7c1.3-0.2,2.6,0.7,2.7,2.1c0,0,0,0.1,0,0.1c0,0.2,0,0.3,0,0.5v12.4
	c4.3-9.8,13.1-15.1,20.2-15.1c1.4,0,2.6,1.1,2.6,2.6c0,0,0,0,0,0c0,0.1,0,0.2,0,0.2c0,1.4-1.1,2.6-2.6,2.6c-10.6,1-20.2,9-20.2,25.2
	v18.3c0.1,1.3-0.9,2.4-2.2,2.5h-0.1c-1.3,0-2.4-1-2.5-2.3c0,0,0,0,0,0V28.7z"/>
<path class="st1" d="M379.3,7c-0.1-1.3,0.9-2.4,2.2-2.5h0.1c1.4,0,2.5,1.1,2.5,2.4c0,0,0,0,0,0.1v67.9c0.1,1.3-0.9,2.4-2.2,2.5h-0.2
	c-1.3,0-2.4-1-2.5-2.3c0,0,0,0,0,0V7z"/>
<path class="st1" d="M394.3,52v-0.2c-0.2-14.4,11.3-26.1,25.7-26.3h0.3c14.2,0,25.7,11.5,25.7,25.7v0.7
	c0.2,14.4-11.3,26.1-25.7,26.3h-0.3c-14.2,0-25.7-11.5-25.8-25.7c0,0,0,0,0,0L394.3,52z M440.8,52v-0.2c0.4-11.6-8.7-21.4-20.3-21.8
	c0,0,0,0,0,0h-0.4c-11.5,0.1-20.7,9.5-20.5,20.9c0,0,0,0,0,0.1c0,0.2,0,0.4,0,0.7v0.2c-0.4,11.6,8.7,21.4,20.4,21.8h0.3
	c11.5-0.1,20.7-9.5,20.5-21C440.8,52.4,440.8,52.2,440.8,52z"/>
<path class="st1" d="M456,28.7c-0.1-1.3,0.9-2.4,2.2-2.5h0.1c1.3-0.1,2.4,0.9,2.5,2.3c0,0,0,0,0,0c0,0.1,0,0.1,0,0.2v12.4
	C465.2,31.3,473.9,26,481,26c1.4,0,2.6,1.1,2.6,2.6c0,0.1,0,0.2,0,0.2c0,1.4-1.1,2.6-2.6,2.6c-10.7,1-20.2,9-20.2,25.2v18.3
	c0.2,1.3-0.7,2.6-2.1,2.7c-1.3,0.2-2.6-0.7-2.7-2.1c0,0,0-0.1,0-0.1c0-0.2,0-0.3,0-0.5L456,28.7z"/>
<g class="st2">
	<polygon class="st1" points="337.3,91.3 337.3,94.2 341.5,94.2 341.5,105.1 344.5,105.1 344.5,94.2 348.8,94.2 348.8,91.3 	"/>
	<path class="st1" d="M303.4,99.2c0.1,1.5-1,2.9-2.5,3c-0.1,0-0.2,0-0.3,0c-1.6,0-2.9-1.2-2.9-2.7c0-0.1,0-0.2,0-0.3v-7.9h-3v8.1
		c-0.1,3.1,2.3,5.7,5.4,5.8c0.2,0,0.3,0,0.5,0c3,0.2,5.7-2.1,5.9-5.1c0-0.2,0-0.4,0-0.6v-8.1h-3L303.4,99.2z"/>
	<path class="st1" d="M312.9,99.5h4.5v-2.7h-4.5v-2.3c0-0.3,0.3-0.6,0.6-0.6h6.4v-2.7H312c-1.2,0-2.1,0.9-2.1,2.1v9.6
		c0,1.2,0.9,2.1,2.1,2.1h8.3v-2.7h-6.8c-0.3,0-0.6-0.3-0.6-0.6L312.9,99.5z"/>
	<path class="st1" d="M274.2,105.1v-5.6h5.7v-2.7h-5.7v-2.3c0-0.3,0.3-0.6,0.6-0.6h6.4v-2.7h-7.9c-1.2,0-2.1,0.9-2.1,2.1v11.7
		L274.2,105.1z"/>
	<path class="st1" d="M287.7,102.4h5v2.7h-6.5c-1.2,0-2.1-0.9-2.1-2.1V91.3h3v10.6C287.1,102.2,287.4,102.4,287.7,102.4"/>
	<path class="st1" d="M332,100.5l-4.9-8.1c-0.4-0.7-1.2-1.1-2-1.1h-2.4v13.8h2.9v-9.2l4.9,7.9c0.5,0.9,1.5,1.4,2.5,1.4h1.9V91.3
		h-2.9L332,100.5z"/>
	<path class="st1" d="M400,91.3c-1,0-1.9,0.5-2.5,1.4l-2.7,4.3l-2.8-4.6c-0.4-0.7-1.2-1.1-2-1.1h-2.3v13.8h2.9v-9.3l4.1,6.2l1.6-2.5
		l2.5-3.7v9.2h2.9V91.3H400z"/>
	<path class="st3" d="M256.5,91.3h2.8l6,14h-3.2l-1.3-3.1h-5.9l-1.3,3.1h-3.1L256.5,91.3z M259.7,99.5l-1.9-4.5l-1.8,4.5L259.7,99.5
		z"/>
	<path class="st1" d="M355.4,98.3L355.4,98.3c-0.1-3.9,3-7.2,7-7.3c0.1,0,0.2,0,0.3,0c2.1-0.1,4.1,0.7,5.5,2.2l-2,2.3
		c-0.9-1-2.2-1.5-3.6-1.6c-2.3,0-4.1,2-4.1,4.3c0,0,0,0.1,0,0.1l0,0c-0.1,2.3,1.6,4.3,3.9,4.4c0,0,0.1,0,0.1,0
		c1.4,0,2.7-0.6,3.7-1.7l2,2c-1.4,1.7-3.6,2.6-5.8,2.5c-3.9,0.1-7.1-3.1-7.2-7C355.4,98.5,355.4,98.4,355.4,98.3z"/>
	<path class="st1" d="M370,98.3L370,98.3c0.2-4.1,3.6-7.4,7.7-7.2c3.9,0.1,7.1,3.3,7.2,7.2l0,0c-0.2,4.1-3.6,7.4-7.7,7.2
		C373.3,105.4,370.1,102.2,370,98.3z M381.7,98.3L381.7,98.3c0.1-2.4-1.8-4.3-4.1-4.4c0,0-0.1,0-0.1,0c-2.3,0-4.2,1.9-4.2,4.2
		c0,0.1,0,0.1,0,0.2l0,0c-0.1,2.4,1.8,4.3,4.1,4.4c0,0,0.1,0,0.1,0c2.3,0,4.2-1.9,4.2-4.2C381.7,98.4,381.7,98.4,381.7,98.3
		L381.7,98.3z"/>
	<path class="st1" d="M405.4,91.2h5.7c3.4,0,5.4,2,5.4,4.9l0,0c0,3.2-2.5,4.9-5.7,4.9h-2.4v4.2h-3.1V91.2z M410.9,98.3
		c1.2,0.1,2.3-0.7,2.4-1.9c0-0.1,0-0.2,0-0.2l0,0c0-1.4-1-2.1-2.5-2.1h-2.4v4.3L410.9,98.3z"/>
	<path class="st1" d="M422.3,91.1h2.9l6,14.2H428l-1.3-3.2h-6l-1.3,3.2h-3.2L422.3,91.1z M425.6,99.4l-1.9-4.6l-1.9,4.6H425.6z"/>
	<path class="st1" d="M453.5,99.7l-5.4-8.5h3.6l2.5,4.2c0.3,0.5,0.9,0.6,1.4,0.3c0.1-0.1,0.3-0.2,0.3-0.3l2.5-4.2h3.6l-5.4,8.5v5.6
		h-3.1L453.5,99.7z"/>
	<path class="st1" d="M442.9,100.5l-4.9-8.1c-0.4-0.7-1.2-1.1-2-1.1h-2.4v13.8h2.9v-9.2l4.9,7.9c0.5,0.8,1.5,1.4,2.5,1.4h1.9V91.3
		h-2.9V100.5z"/>
</g>
</svg>
