<svg xmlns="http://www.w3.org/2000/svg" viewBox="0 0 600 600" id="HkbxnWGg7"><style>@-webkit-keyframes SkeWenZfg7_Animation{26.32%{opacity: 0;}0%{opacity: 0;}100%{opacity: 0;}}@keyframes SkeWenZfg7_Animation{26.32%{opacity: 0;}0%{opacity: 0;}100%{opacity: 0;}}@-webkit-keyframes BJJ7WenWfgX_Hke2uHTlQ_Animation{15.79%{-webkit-transform: translate(0px, 0px);transform: translate(0px, 0px);}36.84%{-webkit-transform: translate(0px, -3px);transform: translate(0px, -3px);}57.89%{-webkit-transform: translate(0px, 0px);transform: translate(0px, 0px);}78.95%{-webkit-transform: translate(0px, 3px);transform: translate(0px, 3px);}100%{-webkit-transform: translate(0px, 0px);transform: translate(0px, 0px);}0%{-webkit-transform: translate(0px, 0px);transform: translate(0px, 0px);}}@keyframes BJJ7WenWfgX_Hke2uHTlQ_Animation{15.79%{-webkit-transform: translate(0px, 0px);transform: translate(0px, 0px);}36.84%{-webkit-transform: translate(0px, -3px);transform: translate(0px, -3px);}57.89%{-webkit-transform: translate(0px, 0px);transform: translate(0px, 0px);}78.95%{-webkit-transform: translate(0px, 3px);transform: translate(0px, 3px);}100%{-webkit-transform: translate(0px, 0px);transform: translate(0px, 0px);}0%{-webkit-transform: translate(0px, 0px);transform: translate(0px, 0px);}}@-webkit-keyframes HkAWx3bGg7_rkoSdB6xX_Animation{0%{-webkit-transform: rotate(0deg);transform: rotate(0deg);}21.05%{-webkit-transform: rotate(3deg);transform: rotate(3deg);}42.11%{-webkit-transform: rotate(0deg);transform: rotate(0deg);}63.16%{-webkit-transform: rotate(-3deg);transform: rotate(-3deg);}84.21%{-webkit-transform: rotate(0deg);transform: rotate(0deg);}100%{-webkit-transform: rotate(0deg);transform: rotate(0deg);}}@keyframes HkAWx3bGg7_rkoSdB6xX_Animation{0%{-webkit-transform: rotate(0deg);transform: rotate(0deg);}21.05%{-webkit-transform: rotate(3deg);transform: rotate(3deg);}42.11%{-webkit-transform: rotate(0deg);transform: rotate(0deg);}63.16%{-webkit-transform: rotate(-3deg);transform: rotate(-3deg);}84.21%{-webkit-transform: rotate(0deg);transform: rotate(0deg);}100%{-webkit-transform: rotate(0deg);transform: rotate(0deg);}}@-webkit-keyframes BJTB-gn-GxX_rkuxOBaxX_Animation{0%{-webkit-transform: rotate(0deg);transform: rotate(0deg);}15.79%{-webkit-transform: rotate(5deg);transform: rotate(5deg);}31.58%{-webkit-transform: rotate(0deg);transform: rotate(0deg);}100%{-webkit-transform: rotate(0deg);transform: rotate(0deg);}}@keyframes BJTB-gn-GxX_rkuxOBaxX_Animation{0%{-webkit-transform: rotate(0deg);transform: rotate(0deg);}15.79%{-webkit-transform: rotate(5deg);transform: rotate(5deg);}31.58%{-webkit-transform: rotate(0deg);transform: rotate(0deg);}100%{-webkit-transform: rotate(0deg);transform: rotate(0deg);}}#HkbxnWGg7 *{-webkit-animation-duration: 1.9s;animation-duration: 1.9s;-webkit-animation-iteration-count: infinite;animation-iteration-count: infinite;-webkit-animation-timing-function: cubic-bezier(0, 0, 1, 1);animation-timing-function: cubic-bezier(0, 0, 1, 1);}#rkWWg3bfgm{fill: none;}#H1X-l2Zzxm{fill: #f2f5f9;-webkit-transform:  translate(-0.5px, -0.5px);transform:  translate(-0.5px, -0.5px);}#BkH-xhbzgm{fill: #7d9acf;-webkit-transform:  translate(-0.5px, -0.5px);transform:  translate(-0.5px, -0.5px);}#S1Ibe3-Mem{fill: #e8eef6;opacity: 0;-webkit-transform:  translate(-0.5px, -0.5px);transform:  translate(-0.5px, -0.5px);}#rkOWe3ZMe7{fill: #ccd7ec;}#SkFWen-MlX{fill: #fff;}#HkcZe2bzxm{fill: #1975b6;}#Sksbx2bfgX{fill: none;stroke: #a1b6db;stroke-linecap: round;stroke-miterlimit: 10;stroke-width: 2.45px;stroke-dasharray: 0 18.08;}#Sk2Ze3bfem{fill: #1975b6;-webkit-transform:  translate(-0.5px, -0.5px);transform:  translate(-0.5px, -0.5px);}#SJTZg3-GlQ{fill: #1975b6;-webkit-transform:  translate(-0.5px, -0.5px);transform:  translate(-0.5px, -0.5px);}#rykxWl3bGxQ{fill: #fff;-webkit-transform:  translate(205.1px, -180.95px) rotate(25.65deg);transform:  translate(205.1px, -180.95px) rotate(25.65deg);}#rJgxbg2Zzg7{fill: #a1b6db;-webkit-transform:  translate(-0.5px, -0.5px);transform:  translate(-0.5px, -0.5px);}#H1be-g2Wfxm{fill: #7d9acf;}#rkMxWl2WGgX{fill: #7d9acf;}#ry7eZe2-fgm{fill: #7d9acf;}#SkVe-gnZMgm{fill: #7d9acf;}#SJrlWx2bfgm{fill: none;stroke-linecap: round;stroke-miterlimit: 10;stroke: #fff;stroke-width: 1.86px;-webkit-transform:  translate(-0.5px, -0.5px);transform:  translate(-0.5px, -0.5px);}#HkLx-g3-Ggm{fill: none;stroke-linecap: round;stroke-miterlimit: 10;stroke: #fff;stroke-width: 1.86px;-webkit-transform:  translate(-0.5px, -0.5px);transform:  translate(-0.5px, -0.5px);}#BJvxZl2WMlX{fill: none;stroke-linecap: round;stroke-miterlimit: 10;stroke: #fff;stroke-width: 1.86px;-webkit-transform:  translate(-0.5px, -0.5px);transform:  translate(-0.5px, -0.5px);}#SydlZg3Zzl7{fill: none;stroke-linecap: round;stroke-miterlimit: 10;stroke: #fff;stroke-width: 1.86px;-webkit-transform:  translate(-0.5px, -0.5px);transform:  translate(-0.5px, -0.5px);}#rkteZxhWMlm{fill: none;stroke-linecap: round;stroke-miterlimit: 10;stroke: #e8eef6;stroke-width: 1.26px;}#r19gZgn-Ml7{fill: none;stroke-linecap: round;stroke-miterlimit: 10;stroke: #e8eef6;stroke-width: 1.26px;}#SyjlWe2WzlQ{fill: none;stroke-linecap: round;stroke-miterlimit: 10;stroke: #e8eef6;stroke-width: 1.26px;}#Hyhl-gnbfgQ{fill: none;stroke-linecap: round;stroke-miterlimit: 10;stroke: #e8eef6;stroke-width: 1.26px;}#rkpl-g2bfxX{fill: none;stroke-linecap: round;stroke-miterlimit: 10;stroke: #e8eef6;stroke-width: 1.26px;}#Hk0gblhbMgQ{fill: none;stroke-linecap: round;stroke-miterlimit: 10;stroke: #e8eef6;stroke-width: 1.26px;}#B1JWWx2ZMxQ{fill: none;stroke-linecap: round;stroke-miterlimit: 10;stroke: #e8eef6;stroke-width: 1.26px;}#Hkl--g2WfeQ{fill: none;stroke-linecap: round;stroke-miterlimit: 10;stroke: #e8eef6;stroke-width: 1.26px;}#S1-W-gnZfxX{fill: none;stroke-linecap: round;stroke-miterlimit: 10;stroke: #e8eef6;stroke-width: 1.26px;}#S1M-Wx2bMg7{fill: none;stroke-linecap: round;stroke-miterlimit: 10;stroke: #e8eef6;stroke-width: 1.26px;}#HJmbZlnZMx7{fill: none;stroke: #a1b6db;stroke-miterlimit: 10;stroke-width: 1.26px;}#Sy4--xn-Gl7{fill: none;stroke: #a1b6db;stroke-miterlimit: 10;stroke-width: 1.26px;}#SJBWbx2bMlX{fill: none;stroke: #a1b6db;stroke-miterlimit: 10;stroke-width: 1.26px;}#rkI-Zlh-zl7{fill: none;stroke: #a1b6db;stroke-miterlimit: 10;stroke-width: 1.26px;}#ByvZZxnbMxQ{fill: none;stroke: #a1b6db;stroke-miterlimit: 10;stroke-width: 1.26px;}#BkuZWx3-fgQ{fill: none;stroke: #a1b6db;stroke-miterlimit: 10;stroke-width: 1.26px;}#By5-Zxn-zem{fill: #a1b6db;-webkit-transform:  translate(-57.98px, 96.6px) rotate(-14.99deg);transform:  translate(-57.98px, 96.6px) rotate(-14.99deg);}#SJobWl3-feX{fill: #ccd7ec;-webkit-transform:  translate(-53.89px, 94.91px) rotate(-14.99deg);transform:  translate(-53.89px, 94.91px) rotate(-14.99deg);}#By3WWx2-GeQ{fill: #1975b6;-webkit-transform:  matrix(0.97, -0.26, 0.26, 0.97, -73.14, 95.46);transform:  matrix(0.97, -0.26, 0.26, 0.97, -73.14, 95.46);}#SJp-WlnWzg7{fill: #fff;-webkit-transform:  translate(-0.5px, -0.5px);transform:  translate(-0.5px, -0.5px);}#Sk0WWgnZGgQ{fill: none;stroke-miterlimit: 10;stroke: #1975b6;stroke-width: 0.84px;}#H1JfZx2ZzgX{fill: none;stroke-miterlimit: 10;stroke: #1975b6;stroke-width: 0.84px;}#ryefZxnbzeX{fill: #fff;-webkit-transform:  translate(-76.56px, 99.53px) rotate(-14.99deg);transform:  translate(-76.56px, 99.53px) rotate(-14.99deg);}#HkWzZxh-zlX{fill: #fff;-webkit-transform:  matrix(0.97, -0.26, 0.26, 0.97, -78, 99.08);transform:  matrix(0.97, -0.26, 0.26, 0.97, -78, 99.08);}#Hkfz-x3WMlX{fill: #fff;-webkit-transform:  translate(-73.65px, 98.9px) rotate(-14.99deg);transform:  translate(-73.65px, 98.9px) rotate(-14.99deg);}#H1mMZgnbfgm{fill: #fff;-webkit-transform:  translate(-0.5px, -0.5px);transform:  translate(-0.5px, -0.5px);}#HyNM-l3WMl7{fill: #fff;}#r1rGbehWMeX{fill: #fff;}#SJUzWx3WfxQ{fill: #fff;}#Bk_zWe3-Me7{fill: #ccd7ec;-webkit-transform:  translate(74.96px, -98.36px) rotate(13.62deg);transform:  translate(74.96px, -98.36px) rotate(13.62deg);}#rkYMWl3-zem{fill: #fff;-webkit-transform:  translate(92.85px, -91.71px) rotate(13.62deg);transform:  translate(92.85px, -91.71px) rotate(13.62deg);}#HyczZlhWGx7{fill: #1975b6;-webkit-transform:  translate(96.27px, -100.42px) rotate(13.62deg);transform:  translate(96.27px, -100.42px) rotate(13.62deg);}#B1jGZe3ZGxQ{fill: #fff;-webkit-transform:  translate(54.06px, -97.76px) rotate(13.62deg);transform:  translate(54.06px, -97.76px) rotate(13.62deg);}#rJ2G-l2bMeX{fill: #fff;-webkit-transform:  translate(54.54px, -95.98px) rotate(13.62deg);transform:  translate(54.54px, -95.98px) rotate(13.62deg);}#Byazbl2bMlQ{fill: #fff;-webkit-transform:  translate(-0.5px, -0.5px);transform:  translate(-0.5px, -0.5px);}#SyAzbehWMlQ{fill: none;stroke-miterlimit: 10;stroke: #1975b6;stroke-width: 0.84px;}#H1l7-e3-GlX{fill: #a1b6db;}#By-m-lhbMlX{fill: #7d9acf;}#SkzQWgnWGgX{fill: #1975b6;}#rJQQbxnbzx7{fill: #fff;-webkit-transform:  translate(-0.5px, -0.5px);transform:  translate(-0.5px, -0.5px);}#Hk47bxnWzxX{fill: #fff;}#HkHmbe2Zflm{fill: #fff;}#ByLQWgnZflm{fill: #fff;}#SkvQ-gnWfeQ{fill: #abb2bc;}#Syum-g2ZzeQ{fill: #abb2bc;}#H1tXbeh-zgm{fill: #abb2bc;}#rk9mWe3-Mx7{fill: #fff;-webkit-transform:  translate(-0.5px, -0.5px);transform:  translate(-0.5px, -0.5px);}#HJoXbgn-Mg7{fill: none;stroke-miterlimit: 10;stroke: #fff;stroke-width: 0.77px;}#rynmWxhbMgX{fill: none;stroke: #fff;stroke-width: 0.77px;stroke-linejoin: round;-webkit-transform:  translate(-0.5px, -0.5px);transform:  translate(-0.5px, -0.5px);}#r1TmZg2bGlQ{fill: none;stroke: #fff;stroke-width: 0.77px;stroke-linejoin: round;-webkit-transform:  translate(-0.5px, -0.5px);transform:  translate(-0.5px, -0.5px);}#r1A7blhZGx7{fill: none;stroke: #fff;stroke-width: 0.77px;stroke-linejoin: round;-webkit-transform:  translate(-0.5px, -0.5px);transform:  translate(-0.5px, -0.5px);}#SkkN-e3ZfgQ{fill: none;stroke: #fff;stroke-width: 0.77px;stroke-linejoin: round;}#S1lE-enZflQ{fill: none;stroke: #fff;stroke-width: 0.77px;stroke-linejoin: round;-webkit-transform:  translate(-0.5px, -0.5px);transform:  translate(-0.5px, -0.5px);}#HkzE-xhbGxX{fill: none;stroke-linecap: round;stroke-miterlimit: 10;stroke: #f36;stroke-width: 2.12px;-webkit-transform:  translate(-0.5px, -0.5px);transform:  translate(-0.5px, -0.5px);}#H1X4We3ZGxm{fill: none;stroke-linecap: round;stroke-miterlimit: 10;stroke: #f36;stroke-width: 2.12px;-webkit-transform:  translate(-0.5px, -0.5px);transform:  translate(-0.5px, -0.5px);}#rkN4bx3ZMl7{fill: none;stroke-linecap: round;stroke-miterlimit: 10;stroke: #f36;stroke-width: 2.12px;-webkit-transform:  translate(-0.5px, -0.5px);transform:  translate(-0.5px, -0.5px);}#rJHEWgnbMe7{fill: none;stroke-linecap: round;stroke-miterlimit: 10;stroke: #fff;stroke-width: 2.12px;-webkit-transform:  translate(-0.5px, -0.5px);transform:  translate(-0.5px, -0.5px);}#ryIVWx2-fxm{fill: none;stroke-linecap: round;stroke: #fff;stroke-linejoin: round;stroke-width: 2.12px;}#SJwEZl2ZMlX{fill: none;stroke-linecap: round;stroke-miterlimit: 10;stroke-width: 2.12px;stroke: #f0809f;}#HkOE-e3WMe7{fill: none;stroke-linecap: round;stroke-miterlimit: 10;stroke-width: 2.12px;stroke: #f0809f;}#S1FEWghbGxX{fill: none;stroke-linecap: round;stroke-miterlimit: 10;stroke-width: 2.12px;stroke: #f0809f;}#HyqNblnWze7{fill: none;stroke-linecap: round;stroke-miterlimit: 10;stroke-width: 2.12px;stroke: #f0809f;}#HyjV-x2-GxX{fill: none;stroke-linecap: round;stroke-miterlimit: 10;stroke-width: 2.12px;stroke: #f5b8c8;}#BJnNZgnWfeQ{fill: none;stroke-linecap: round;stroke-miterlimit: 10;stroke-width: 2.12px;stroke: #f5b8c8;}#S1pNZg3Wfx7{fill: none;stroke-linecap: round;stroke-miterlimit: 10;stroke: #fff;stroke-width: 2.12px;-webkit-transform:  translate(-0.5px, -0.5px);transform:  translate(-0.5px, -0.5px);}#BJANZl3ZGgQ{fill: none;stroke-linecap: round;stroke: #fff;stroke-linejoin: round;stroke-width: 2.12px;}#HJlH-xnWMgX{fill: #7d9acf;-webkit-transform:  translate(-0.5px, -0.5px);transform:  translate(-0.5px, -0.5px);}#SJZSZlnWGgX{fill: #5584c3;}#BkQSZe3-Glm{fill: #a1b6db;-webkit-transform:  translate(-0.5px, -0.5px);transform:  translate(-0.5px, -0.5px);}#rkNrZe2bfeX{fill: #7d9acf;-webkit-transform:  translate(-0.5px, -0.5px);transform:  translate(-0.5px, -0.5px);}#SyHB-x2ZzgQ{fill: #fff;-webkit-transform:  translate(-0.5px, -0.5px);transform:  translate(-0.5px, -0.5px);}#Hk8B-xhbGgm{fill: #ccd7ec;-webkit-transform:  translate(-0.5px, -0.5px);transform:  translate(-0.5px, -0.5px);}#rkwBZehbfx7{fill: none;stroke-linecap: round;stroke-miterlimit: 10;stroke: #5584c3;stroke-width: 1.11px;-webkit-transform:  translate(-0.5px, -0.5px);transform:  translate(-0.5px, -0.5px);}#Sy_SWg2ZGxm{fill: #fff;}#ByKBZxnbfgQ{fill: #fff;}#HkqrWgn-GlQ{fill: #ccd7ec;-webkit-transform:  translate(-0.5px, -0.5px);transform:  translate(-0.5px, -0.5px);}#r1srZg2ZMgQ{fill: none;stroke-linecap: round;stroke-miterlimit: 10;stroke: #5584c3;stroke-width: 1.11px;-webkit-transform:  translate(-0.5px, -0.5px);transform:  translate(-0.5px, -0.5px);}#S12SZehZfgQ{fill: none;stroke-linecap: round;stroke-miterlimit: 10;stroke: #5584c3;stroke-width: 1.11px;-webkit-transform:  translate(-0.5px, -0.5px);transform:  translate(-0.5px, -0.5px);}#ryCrZx3ZMlX{fill: #a1b6db;-webkit-transform:  translate(-0.5px, -0.5px);transform:  translate(-0.5px, -0.5px);}#r1JLblhWfgm{fill: #1b75ba;-webkit-transform:  translate(-0.5px, -0.5px);transform:  translate(-0.5px, -0.5px);}#r1xI-ehWGxQ{fill: #a1b6db;-webkit-transform:  translate(-0.5px, -0.5px);transform:  translate(-0.5px, -0.5px);}#HJZI-enbflQ{fill: none;stroke-linecap: round;stroke-miterlimit: 10;stroke: #5584c3;stroke-width: 1.11px;-webkit-transform:  translate(-0.5px, -0.5px);transform:  translate(-0.5px, -0.5px);}#HJfIWehbfxQ{fill: none;stroke-linecap: round;stroke-miterlimit: 10;stroke: #5584c3;stroke-width: 1.11px;-webkit-transform:  translate(-0.5px, -0.5px);transform:  translate(-0.5px, -0.5px);}#ry78Wg3-Mlm{fill: none;stroke-linecap: round;stroke-miterlimit: 10;stroke: #5584c3;stroke-width: 1.11px;-webkit-transform:  translate(-0.5px, -0.5px);transform:  translate(-0.5px, -0.5px);}#HyV8-xhZMl7{fill: none;stroke-linecap: round;stroke-miterlimit: 10;stroke: #5584c3;stroke-width: 1.11px;-webkit-transform:  translate(-0.5px, -0.5px);transform:  translate(-0.5px, -0.5px);}#HkBUZx2WGgQ{fill: none;stroke-linecap: round;stroke-miterlimit: 10;stroke: #5584c3;stroke-width: 1.11px;-webkit-transform:  translate(-0.5px, -0.5px);transform:  translate(-0.5px, -0.5px);}#HkPLZe2bfxm{fill: #7d9acf;fill-rule: evenodd;-webkit-transform:  translate(-0.5px, -0.5px);transform:  translate(-0.5px, -0.5px);}#Bk_LZg3bGxm{fill: #7d9acf;fill-rule: evenodd;-webkit-transform:  translate(-0.5px, -0.5px);transform:  translate(-0.5px, -0.5px);}#B1tU-l3Zfx7{fill: #a1b6db;fill-rule: evenodd;-webkit-transform:  translate(-0.5px, -0.5px);transform:  translate(-0.5px, -0.5px);}#rJq8bghWMl7{fill: #a1b6db;fill-rule: evenodd;-webkit-transform:  translate(-0.5px, -0.5px);transform:  translate(-0.5px, -0.5px);}#Hkh8WenWMxQ{fill: #fff;-webkit-transform:  translate(-0.5px, -0.5px);transform:  translate(-0.5px, -0.5px);}#rJ6U-ghbflX{fill: #7d9acf;-webkit-transform:  translate(-0.5px, -0.5px);transform:  translate(-0.5px, -0.5px);}#rJR8-x2bzx7{fill: none;stroke-linecap: round;stroke-miterlimit: 10;stroke: #5584c3;stroke-width: 1.11px;-webkit-transform:  translate(-0.5px, -0.5px);transform:  translate(-0.5px, -0.5px);}#r1JPbg2bze7{fill: none;stroke-linecap: round;stroke-miterlimit: 10;stroke: #5584c3;stroke-width: 1.11px;-webkit-transform:  translate(-0.5px, -0.5px);transform:  translate(-0.5px, -0.5px);}#rJevZg3Zfxm{fill: none;stroke-linecap: round;stroke-miterlimit: 10;stroke: #5584c3;stroke-width: 1.11px;-webkit-transform:  translate(-0.5px, -0.5px);transform:  translate(-0.5px, -0.5px);}#BJTB-gn-GxX_rkuxOBaxX{-webkit-animation-name: BJTB-gn-GxX_rkuxOBaxX_Animation;animation-name: BJTB-gn-GxX_rkuxOBaxX_Animation;-webkit-transform-origin: 50% 50%;transform-origin: 50% 50%;transform-box: fill-box;-webkit-transform: rotate(0deg);transform: rotate(0deg);}#HkAWx3bGg7_rkoSdB6xX{-webkit-animation-name: HkAWx3bGg7_rkoSdB6xX_Animation;animation-name: HkAWx3bGg7_rkoSdB6xX_Animation;-webkit-transform-origin: 50% 50%;transform-origin: 50% 50%;transform-box: fill-box;-webkit-transform: rotate(0deg);transform: rotate(0deg);}#BJJ7WenWfgX_Hke2uHTlQ{-webkit-animation-name: BJJ7WenWfgX_Hke2uHTlQ_Animation;animation-name: BJJ7WenWfgX_Hke2uHTlQ_Animation;-webkit-transform-origin: 50% 50%;transform-origin: 50% 50%;transform-box: fill-box;-webkit-transform: translate(0px, 0px);transform: translate(0px, 0px);}#SkeWenZfg7{-webkit-animation-name: SkeWenZfg7_Animation;animation-name: SkeWenZfg7_Animation;-webkit-transform-origin: 50% 50%;transform-origin: 50% 50%;transform-box: fill-box;}</style><defs/><title>creative_planning_development</title><g id="SkeWenZfg7" data-name="Transparent BG"><rect width="600" height="600" id="rkWWg3bfgm"/></g><g id="ryGZln-feQ"><path d="M61.62,357.73s-12.75,131.53,183.73,123c160-6.93,253.88-26,276.31-119.85,27.61-115.51-65.34-236.19-176.4-251.15C208.8,91.37,58.43,212.16,61.62,357.73Z" id="H1X-l2Zzxm"/></g><g id="H1Nbgn-Mx7"><path d="M215.59,496.91" id="BkH-xhbzgm"/><path d="M162.56,496.94s25.6-59.17,30.2-81.07c1.31-6.25,4.66-52,4.66-52l-41.66-38.75,49.31,42.06s-3.31,45.74-7.26,57.65-25.9,72.14-25.9,72.14Z" id="S1Ibe3-Mem"/></g><g id="HkvZehWGxm"><circle cx="259.5" cy="193.89" r="55.14" id="rkOWe3ZMe7"/><circle cx="259.5" cy="193.89" r="49.02" id="SkFWen-MlX"/><circle cx="259.5" cy="193.89" r="5" id="HkcZe2bzxm"/><circle cx="259.5" cy="193.89" r="40.29" id="Sksbx2bfgX"/><path d="M259.89,194.61a13.81,13.81,0,0,1-6.29-.51,9.75,9.75,0,0,1-2.66-1.28c-.82-.57-1.63-1.16-2.48-1.67l-2.54-1.56-2.5-1.62c-1.66-1.11-3.31-2.21-4.93-3.4a.24.24,0,0,1-.06-.35.26.26,0,0,1,.26-.09c1.95.49,3.86,1.06,5.77,1.62l2.85.89,2.81,1c.94.32,1.92.56,2.88.83a9.45,9.45,0,0,1,2.68,1.23,13.93,13.93,0,0,1,4.42,4.51.29.29,0,0,1-.11.4A.18.18,0,0,1,259.89,194.61Z" id="Sk2Ze3bfem"/><path d="M259.77,194.29a43.75,43.75,0,0,1,2.44-11.19,34.56,34.56,0,0,1,2.26-5.14c.9-1.66,1.82-3.3,2.66-5l2.54-5,2.6-5c1.79-3.31,3.52-6.64,5.37-9.93A.25.25,0,0,1,278,153a.25.25,0,0,1,.12.29c-1.13,3.59-2.38,7.13-3.57,10.7l-1.86,5.32-1.93,5.28c-.65,1.77-1.22,3.56-1.81,5.35a34.54,34.54,0,0,1-2.21,5.16,43.28,43.28,0,0,1-6.49,9.44.27.27,0,0,1-.37,0A.28.28,0,0,1,259.77,194.29Z" id="SJTZg3-GlQ"/></g><g id="HkAWx3bGg7_rkoSdB6xX" data-animator-group="true" data-animator-type="1"><g id="HkAWx3bGg7"><rect x="438.33" y="305.08" width="121.64" height="112.58" rx="0.64" ry="0.64" id="rykxWl3bGxQ"/><path d="M568.25,358l9.82-20.45a.64.64,0,0,0-.3-.85l-108.51-52.1a.64.64,0,0,0-.85.3l-9.82,20.45Z" id="rJgxbg2Zzg7"/><circle cx="501.93" cy="307.53" r="2.16" id="H1be-g2Wfxm"/><circle cx="513.84" cy="313.25" r="2.16" id="rkMxWl2WGgX"/><circle cx="525.74" cy="318.97" r="2.16" id="ry7eZe2-fgm"/><circle cx="537.65" cy="324.69" r="2.16" id="SkVe-gnZMgm"/><path d="M502.43,308c-1.54-.73-1.4-4.2.3-7.74s4.32-5.81,5.85-5.07,1.41,4.2-.29,7.74" id="SJrlWx2bfgm"/><path d="M514.34,313.75c-1.54-.74-1.41-4.2.29-7.74s4.32-5.81,5.86-5.07,1.4,4.2-.3,7.74" id="HkLx-g3-Ggm"/><path d="M526.24,319.47c-1.53-.74-1.4-4.21.3-7.74s4.32-5.81,5.86-5.08,1.4,4.21-.3,7.75" id="BJvxZl2WMlX"/><path d="M538.15,325.19c-1.53-.74-1.4-4.21.3-7.75s4.32-5.81,5.85-5.07,1.41,4.2-.29,7.74" id="SydlZg3Zzl7"/><line x1="471.37" y1="318.61" x2="438.02" y2="388.07" id="rkteZxhWMlm"/><line x1="486.82" y1="326.03" x2="453.47" y2="395.49" id="r19gZgn-Ml7"/><line x1="502.28" y1="333.45" x2="468.92" y2="402.91" id="SyjlWe2WzlQ"/><line x1="517.73" y1="340.87" x2="484.38" y2="410.33" id="Hyhl-gnbfgQ"/><line x1="533.18" y1="348.29" x2="499.83" y2="417.75" id="rkpl-g2bfxX"/><line x1="548.64" y1="355.71" x2="515.28" y2="425.17" id="Hk0gblhbMgQ"/><line x1="447.73" y1="335.51" x2="550.27" y2="384.75" id="B1JWWx2ZMxQ"/><line x1="440.32" y1="350.94" x2="542.86" y2="400.18" id="Hkl--g2WfeQ"/><line x1="432.91" y1="366.37" x2="535.46" y2="415.61" id="S1-W-gnZfxX"/><line x1="425.5" y1="381.8" x2="528.05" y2="431.04" id="S1M-Wx2bMg7"/><circle cx="470.35" cy="338.04" r="4.42" id="HJmbZlnZMx7"/><circle cx="504.18" cy="349.37" r="4.42" id="Sy4--xn-Gl7"/><circle cx="525.21" cy="384.69" r="4.42" id="SJBWbx2bMlX"/><circle cx="471.69" cy="375.5" r="4.42" id="rkI-Zlh-zl7"/><circle cx="495.28" cy="405.81" r="4.42" id="ByvZZxnbMxQ"/><circle cx="511.36" cy="413.53" r="4.42" id="BkuZWx3-fgQ"/></g></g><g id="r1YbZxhWMxX" data-name="Ad 1"><rect x="289.74" y="184.55" width="101.07" height="164.94" rx="0.7" ry="0.7" id="By5-Zxn-zem"/><rect x="288.83" y="188.83" width="94.11" height="123.57" rx="0.78" ry="0.78" id="SJobWl3-feX"/><rect x="319.74" y="323.27" width="17.27" height="1.54" rx="0.31" ry="0.31" id="By3WWx2-GeQ"/><path d="M327,315.62" id="SJp-WlnWzg7"/><polyline points="308.22 325.57 313.58 324.13 315.02 329.49" id="Sk0WWgnZGgQ"/><line x1="313.58" y1="324.13" x2="309.76" y2="330.74" id="H1JfZx2ZzgX"/><rect x="327.88" y="338.07" width="28.46" height="1.99" id="ryefZxnbzeX"/><rect x="329.16" y="343.34" width="21.09" height="1.99" id="HkWzZxh-zlX"/><rect x="310.12" y="326.71" width="62.13" height="1.99" id="Hkfz-x3WMlX"/><path d="M319.5,341.84a5.07,5.07,0,0,0-5.31,5.1,4.79,4.79,0,0,0,4.56,5,5.21,5.21,0,0,0,5.63-4.81A5.32,5.32,0,0,0,319.5,341.84Z" id="H1mMZgnbfgm"/><circle cx="393.92" cy="327.03" r="0.72" id="HyNM-l3WMl7"/><circle cx="396.53" cy="326.33" r="0.72" id="r1rGbehWMeX"/><circle cx="399.14" cy="325.63" r="0.72" id="SJUzWx3WfxQ"/></g><g id="ryPzbx3bMgQ" data-name="Ad 3"><rect x="398.22" y="177.38" width="98.54" height="179.26" rx="0.73" ry="0.73" id="Bk_zWe3-Me7"/><rect x="419.19" y="344.4" width="18.77" height="1.68" rx="0.34" ry="0.34" id="rkYMWl3-zem"/><rect x="462.68" y="352.69" width="8.11" height="5.03" rx="0.24" ry="0.24" id="HyczZlhWGx7"/><rect x="424.85" y="178.54" width="19.31" height="2.52" id="B1jGZe3ZGxQ"/><rect x="423.96" y="181.88" width="6.71" height="1.68" id="rJ2G-l2bMeX"/><path d="M409.53,306.49" id="Byazbl2bMlQ"/><polyline points="425.22 338.7 429.89 337.24 433.37 340.67" id="SyAzbehWMlQ"/></g><g id="BJJ7WenWfgX_Hke2uHTlQ" data-animator-group="true" data-animator-type="0"><g id="BJJ7WenWfgX" data-name="Ad 2"><rect x="337.29" y="200.87" width="111.58" height="181.08" rx="0.67" ry="0.67" id="H1l7-e3-GlX"/><rect x="337.29" y="223.34" width="111.58" height="139.48" rx="0.28" ry="0.28" id="By-m-lhbMlX"/><rect x="337.29" y="350.73" width="111.58" height="11.85" rx="0.28" ry="0.28" id="SkzQWgnWGgX"/><path d="M354.23,213.13a5.07,5.07,0,0,1-5.34,5.07,4.78,4.78,0,0,1-4.78-4.78,5.22,5.22,0,0,1,5.06-5.41A5.33,5.33,0,0,1,354.23,213.13Z" id="rJQQbxnbzx7"/><rect x="358.6" y="209.3" width="27.31" height="2.31" rx="0.3" ry="0.3" id="Hk47bxnWzxX"/><rect x="358.6" y="214.23" width="13.65" height="1.54" rx="0.35" ry="0.35" id="HkHmbe2Zflm"/><rect x="343.66" y="355.88" width="20.04" height="1.54" id="ByLQWgnZflm"/><circle cx="435.71" cy="211.97" r="0.72" id="SkvQ-gnWfeQ"/><circle cx="438.41" cy="211.97" r="0.72" id="Syum-g2ZzeQ"/><circle cx="441.11" cy="211.97" r="0.72" id="H1tXbeh-zgm"/><path d="M368.19,327.36" id="rk9mWe3-Mx7"/><polyline points="438.27 354.34 440.58 356.65 438.27 358.97" id="HJoXbgn-Mg7"/><path d="M350.41,369.1a2.22,2.22,0,0,0-1.77,1.08h0a2.22,2.22,0,0,0-1.77-1.08,2.18,2.18,0,0,0-2.15,2.34c0,2,3.93,4.67,3.93,4.67s3.94-2.65,3.94-4.67A2.18,2.18,0,0,0,350.41,369.1Z" id="rynmWxhbMgX"/><path d="M366.58,374.23a3.65,3.65,0,0,0,.33-2,3.58,3.58,0,1,0-3.91,4,3.53,3.53,0,0,0,2.34-.6h0l1.72.45s0,0,0,0l-.53-1.84Z" id="r1TmZg2bGlQ"/><path d="M374.25,369.65H382a0,0,0,0,1,0,0L378,376.42s-.05,0-.05,0l-.64-4-3-2.67A0,0,0,0,1,374.25,369.65Z" id="r1A7blhZGx7"/><line x1="376.76" y1="371.87" x2="381.54" y2="369.18" id="SkkN-e3ZfgQ"/><path d="M436.84,369v7.3a0,0,0,0,0,0,0l2.9-2.61h0l2.9,2.61a0,0,0,0,0,0,0V369l0,0h-5.84Z" id="S1lE-enZflQ"/></g></g><g id="Hk-4ZenZfeX"><path d="M295.5,310.47c0,8.93-7.29,13.72-14.44,13.72a12.94,12.94,0,0,1-12.94-12.94c0-7.16,5.14-14.64,13.69-14.64C289,296.61,295.5,303.32,295.5,310.47Z" id="HkzE-xhbGxX"/><path d="M399.62,306c8.9-.82,14.34,6,15,13.12a13,13,0,0,1-11.71,14.08c-7.12.66-15-3.77-15.83-12.29C386.42,313.76,392.5,306.63,399.62,306Z" id="H1X4We3ZGxm"/><path d="M377.28,201.27c1.31,8.84,9.22,12.52,16.29,11.47A13,13,0,0,0,404.49,198c-1.05-7.07-7.23-13.73-15.69-12.48C381.73,186.61,376.24,194.2,377.28,201.27Z" id="rkN4bx3ZMl7"/><path d="M294.87,292.84s44.07-31.9,91.53,8.22" id="rJHEWgnbMe7"/><polyline points="373.5 300.71 386.8 301.65 385.9 288.35" id="ryIVWx2-fxm"/><line x1="296.52" y1="240.41" x2="319.93" y2="225.38" id="SJwEZl2ZMlX"/><line x1="300.7" y1="221.19" x2="315.74" y2="244.6" id="HkOE-e3WMe7"/><line x1="480.72" y1="278.51" x2="466.62" y2="254.52" id="S1FEWghbGxX"/><line x1="461.68" y1="273.56" x2="485.66" y2="259.46" id="HyqNblnWze7"/><line x1="344.51" y1="335.81" x2="356.87" y2="310.89" id="HyjV-x2-GxX"/><line x1="338.23" y1="317.17" x2="363.15" y2="329.53" id="BJnNZgnWfeQ"/><path d="M422.31,302.15s18.46-44.94-14.5-85.44" id="S1pNZg3Wfx7"/><polyline points="404.82 230.97 406.35 214.98 421.25 218.74" id="BJANZl3ZGgQ"/></g><g id="ry1SWghZMxQ" data-name="Arm Top"><path d="M287.81,443c-2.5-16.48-13-34.95-16.47-42.64s-3-19.78-3-26.32-4.08-19.43-4.08-19.43c-5.75-3.3-26.12-19-36.53-27.13L208.46,363l26.85,88.67s21,37.8,28.94,41.8c0,0,15.75,4.21,21.75-16.79S287.81,443,287.81,443Z" id="HJlH-xnWMgX"/><polygon points="227.83 439.83 240.82 403.83 248.09 416.16 244.31 456.74 253.82 481.65 243.62 466.25 227.83 439.83" id="SJZSZlnWGgX"/></g><g id="HyGHZe2-MeQ"><path d="M177.76,285s-.07,18.43-5.31,29.44l36,48.58,14.72-32.44s-5.91-24.61-4.35-36.59Z" id="BkQSZe3-Glm"/><path d="M225.34,480.75l10-29.09s4.52-2.71,8.72-17.34c3.82-13.27,10.29-43.65,12.62-49.41,5.58-13.76,4.5-32.27,4.5-32.27L227.72,327.5,208.46,363,168,320.3c-9.68,3.92-22.18,8.7-29.28,10.37C126,333.66,117,332.37,114,336s-5.24,14.15-15.73,27.25S75.07,387.46,70.57,401c-.26.78-.52,1.56-.8,2.35C84.52,438.26,123.47,479.83,225.34,480.75Z" id="rkNrZe2bfeX"/><path d="M173,308.91,160.84,320.3l39.74,38.38s3.23,50.8,3.33,57.19c.2,14-1.32,34.28-2.9,51l14.41-43.29c1-11.84,4.63-66.06,4.63-66.06l11.28-28.73-9.8-10.66c-1.48,15.05-4.82,22.1-11.52,33.08Z" id="SyHB-x2ZzgQ"/><path d="M215.42,423.62c.49-5.85,1.62-22,2.65-36.89l-4.71-27.57h-5.58l-5.13,33c.65,11,1.22,21.13,1.26,23.75.2,14-1.33,34.3-2.9,51.06C207.73,449.5,214.89,429.8,215.42,423.62Z" id="Hk8B-xhbGgm"/><path d="M201.22,465.75c-1.91,5.25-3.59,9.7-5.05,13.44" id="rkwBZehbfx7"/><polygon points="160.34 319.8 191.73 364.91 200.08 358.18 160.34 319.8" id="Sy_SWg2ZGxm"/><polygon points="219.55 357.06 224.96 360.19 230.83 328.33 219.55 357.06" id="ByKBZxnbfgQ"/><path d="M205.19,355s-1.25,6.39,3.27,8,9.37-2.45,7.13-8Z" id="HkqrWgn-GlQ"/><path d="M119.65,342s25.27,28.65,12.13,58.48" id="r1srZg2ZMgQ"/><path d="M261.15,361.78s-.86,17.91-6.83,28.89" id="S12SZehZfgQ"/></g><g id="BJTB-gn-GxX_rkuxOBaxX" data-animator-group="true" data-animator-type="1"><g id="BJTB-gn-GxX"><path d="M163.41,247.38s4.65,43.57,24.47,55.55S226,313.67,233.61,310c5.16-2.49,12.32-10.05,12.68-35.18.18-13.11-1.81-30.39-1.84-41.84,0-14.09-33.38-31.38-60.81-17S163.41,247.38,163.41,247.38Z" id="ryCrZx3ZMlX"/><path d="M220.5,302.08c-6.93.13-26.69-21.54-26.69-21.54l-3.31-10.76s4.86-15.9,9-19.8,24.93-9.54,24.93-9.54l20,4a31.09,31.09,0,0,0,3.79-19.3l-1.75-12.56s-58.58-8.54-67.34-8.74S153.69,228,151.91,234.67s5.68,22.24,8.91,32.25,20.47,28.94,20.47,28.94l-.18-14.14,2.29-10.35,4.52,14.31s4.33,23.18,8.22,27.26,34.77,8.37,41.05,3.8,8.1-10.82,9.52-22.52l-1.43-7.29s-16,1.61-21,4.38S220.5,302.08,220.5,302.08Z" id="r1JLblhWfgm"/><path d="M184.9,278.68s-.65,9.78-8.61,4.37-9.71-18.33-3.81-20.93,9.33,3.36,9.33,3.36" id="r1xI-ehWGxQ"/><path d="M238,237.15a38.7,38.7,0,0,0-3.3-20.49" id="HJZI-enbflQ"/><path d="M242.07,234.65s2-10.57-1.07-18.89" id="HJfIWehbfxQ"/><path d="M231.69,224.71S230.3,219,224,214" id="ry78Wg3-Mlm"/><path d="M195.29,290.65s-.22,10.05,4.48,16.09" id="HyV8-xhZMl7"/><path d="M200.38,294.88S199.85,301.3,206,310" id="HkBUZx2WGgQ"/></g></g><g id="S1LUZxnbfeQ"><path d="M373.19,421a10,10,0,0,1,6.86-8.13c3.16-1.1,7.18-2.19,10.38-3.21a5.22,5.22,0,0,0,2.9-7.67,164.87,164.87,0,0,1-21.15,4.44C359.83,407.92,352,419.64,352,419.64Z" id="HkPLZe2bfxm"/><path d="M426.83,430.82l-29.74,8.06,3.37-8.65L421,427a5.23,5.23,0,0,1,5.88,3.85" id="Bk_LZg3bGxm"/><path d="M416.57,417.65,392.64,437l-.42-9.26,17.42-11.26a5.22,5.22,0,0,1,6.93,1.15" id="B1tU-l3Zfx7"/><path d="M427.89,422.41a1.08,1.08,0,0,0,.14-1.79,7.26,7.26,0,0,0-7.52-1l-22.47,10-27.31-12.26c-4.91-2.22-18.18-.12-22.17,3.51l-7.16,6.07,7.72,23.8,5.66-4c6.9-4.82,13.65-11.08,22-10.16l18.34,2a6.52,6.52,0,0,0,4.7-.64Z" id="rJq8bghWMl7"/></g><g id="r1i8be2Zzxm" data-name="Arm Btm"><path id="Hkh8WenWMxQ" d="M337.57,423.62l11.18-6.43s10.49,13.76,16.48,25.37l-6.74,4.09Z"/><path d="M264.25,493.46c7.9,4,18.77,6.49,18.77,6.49,40.65-19.47,78.67-51,78.67-51-7.38-18-20.58-31.11-20.58-31.11-8,3.36-53.3,25.15-53.3,25.15s-14.58,11.47-19.69,22.73S264.25,493.46,264.25,493.46Z" id="rJ6U-ghbflX"/><path d="M352.42,443.91a4.79,4.79,0,0,0-4.35,3,1.65,1.65,0,0,0,.38,2.11c1.8,1.28,7-1.4,6.1-3.88A2,2,0,0,0,352.42,443.91Z" id="rJR8-x2bzx7"/><path d="M287.81,443s-1.9,8.93-7.75,11.44" id="r1JPbg2bze7"/><path d="M287.81,450.51a13.77,13.77,0,0,0,.05-7.49" id="rJevZg3Zfxm"/></g><script>(function(){var a=document.querySelector('#HkbxnWGg7'),b=a.querySelectorAll('style'),c=function(d){b.forEach(function(f){var g=f.textContent;g&amp;&amp;(f.textContent=g.replace(/transform-box:[^;\r\n]*/gi,'transform-box: '+d))})};c('initial'),window.requestAnimationFrame(function(){return c('fill-box')})})();</script></svg>