<svg id="ryywWRvMX" xmlns="http://www.w3.org/2000/svg" xmlns:xlink="http://www.w3.org/1999/xlink" viewBox="0 0 480 480"><style>@-webkit-keyframes H1MWlvbAPz7_SyF47CPGm_Animation{57.50%{-webkit-transform: rotate(0deg);transform: rotate(0deg);}62.50%{-webkit-transform: rotate(20deg);transform: rotate(20deg);}67.50%{-webkit-transform: rotate(0deg);transform: rotate(0deg);}72.50%{-webkit-transform: rotate(15deg);transform: rotate(15deg);}77.50%{-webkit-transform: rotate(0deg);transform: rotate(0deg);}}@keyframes H1MWlvbAPz7_SyF47CPGm_Animation{57.50%{-webkit-transform: rotate(0deg);transform: rotate(0deg);}62.50%{-webkit-transform: rotate(20deg);transform: rotate(20deg);}67.50%{-webkit-transform: rotate(0deg);transform: rotate(0deg);}72.50%{-webkit-transform: rotate(15deg);transform: rotate(15deg);}77.50%{-webkit-transform: rotate(0deg);transform: rotate(0deg);}}@-webkit-keyframes SyHzeDWCvGm_SJZ0zRwfQ_Animation{47.50%{-webkit-transform: rotate(0deg);transform: rotate(0deg);}50%{-webkit-transform: rotate(-8deg);transform: rotate(-8deg);}52.50%{-webkit-transform: rotate(8deg);transform: rotate(8deg);}55.00%{-webkit-transform: rotate(0deg);transform: rotate(0deg);}}@keyframes SyHzeDWCvGm_SJZ0zRwfQ_Animation{47.50%{-webkit-transform: rotate(0deg);transform: rotate(0deg);}50%{-webkit-transform: rotate(-8deg);transform: rotate(-8deg);}52.50%{-webkit-transform: rotate(8deg);transform: rotate(8deg);}55.00%{-webkit-transform: rotate(0deg);transform: rotate(0deg);}}@-webkit-keyframes rJsZePb0DzX_rkyqGAvz7_Animation{47.50%{-webkit-transform: rotate(0deg);transform: rotate(0deg);}50%{-webkit-transform: rotate(8deg);transform: rotate(8deg);}52.50%{-webkit-transform: rotate(-8deg);transform: rotate(-8deg);}55.00%{-webkit-transform: rotate(0deg);transform: rotate(0deg);}}@keyframes rJsZePb0DzX_rkyqGAvz7_Animation{47.50%{-webkit-transform: rotate(0deg);transform: rotate(0deg);}50%{-webkit-transform: rotate(8deg);transform: rotate(8deg);}52.50%{-webkit-transform: rotate(-8deg);transform: rotate(-8deg);}55.00%{-webkit-transform: rotate(0deg);transform: rotate(0deg);}}@-webkit-keyframes SkF-ewZCDf7_BJHVfRwf7_Animation{10%{-webkit-transform: rotate(0deg);transform: rotate(0deg);}17.50%{-webkit-transform: rotate(4deg);transform: rotate(4deg);}37.50%{-webkit-transform: rotate(4deg);transform: rotate(4deg);}45%{-webkit-transform: rotate(0deg);transform: rotate(0deg);}47.50%{-webkit-transform: rotate(3deg);transform: rotate(3deg);}50%{-webkit-transform: rotate(0deg);transform: rotate(0deg);}0%{-webkit-transform: rotate(0deg);transform: rotate(0deg);}100%{-webkit-transform: rotate(0deg);transform: rotate(0deg);}}@keyframes SkF-ewZCDf7_BJHVfRwf7_Animation{10%{-webkit-transform: rotate(0deg);transform: rotate(0deg);}17.50%{-webkit-transform: rotate(4deg);transform: rotate(4deg);}37.50%{-webkit-transform: rotate(4deg);transform: rotate(4deg);}45%{-webkit-transform: rotate(0deg);transform: rotate(0deg);}47.50%{-webkit-transform: rotate(3deg);transform: rotate(3deg);}50%{-webkit-transform: rotate(0deg);transform: rotate(0deg);}0%{-webkit-transform: rotate(0deg);transform: rotate(0deg);}100%{-webkit-transform: rotate(0deg);transform: rotate(0deg);}}@-webkit-keyframes BJG7lwZRvfQ_HkgAWCPM7_Animation{0%{-webkit-transform: translate(0px, 0px);transform: translate(0px, 0px);}25%{-webkit-transform: translate(0px, -8px);transform: translate(0px, -8px);}75%{-webkit-transform: translate(0px, 8px);transform: translate(0px, 8px);}100%{-webkit-transform: translate(0px, 0px);transform: translate(0px, 0px);}}@keyframes BJG7lwZRvfQ_HkgAWCPM7_Animation{0%{-webkit-transform: translate(0px, 0px);transform: translate(0px, 0px);}25%{-webkit-transform: translate(0px, -8px);transform: translate(0px, -8px);}75%{-webkit-transform: translate(0px, 8px);transform: translate(0px, 8px);}100%{-webkit-transform: translate(0px, 0px);transform: translate(0px, 0px);}}@-webkit-keyframes rkZyDZAPfm_Animation{0%{opacity: 0;}100%{opacity: 0;}}@keyframes rkZyDZAPfm_Animation{0%{opacity: 0;}100%{opacity: 0;}}#ryywWRvMX *{-webkit-animation-duration: 4s;animation-duration: 4s;-webkit-animation-iteration-count: infinite;animation-iteration-count: infinite;-webkit-animation-timing-function: cubic-bezier(0, 0, 1, 1);animation-timing-function: cubic-bezier(0, 0, 1, 1);}#BkzyPW0DM7{opacity: 0;}#H1QkDWRPGm{-webkit-transform: translate(-1px, NaNpx);transform: translate(-1px, NaNpx);}#Bk4kwWRPMm{fill: #ddd;-webkit-transform: translate(-1px, NaNpx);transform: translate(-1px, NaNpx);}#H1HJDZCDMQ{fill: #c0bcbc;}#ByIJP-RPG7{fill: #c0bcbc;-webkit-transform: translate(-1px, NaNpx);transform: translate(-1px, NaNpx);}#rkv1D-ADfQ{stroke: #939393;stroke-width: 1.92px;stroke-linecap: round;stroke-linejoin: round;fill: url(#New_Pattern_Swatch_4);-webkit-transform: translate(-1px, NaNpx);transform: translate(-1px, NaNpx);visibility: hidden;}#B1uyPZAPG7{fill: url(#New_Pattern_Swatch_4-3);visibility: hidden;}#rJKyw-CDfm{fill: #939393;-webkit-transform: translate(-1px, NaNpx);transform: translate(-1px, NaNpx);}#rJ91w-APz7{fill: #c0bcbc;-webkit-transform: translate(-1px, NaNpx);transform: translate(-1px, NaNpx);}#HkikwbRDf7{fill: #fff;-webkit-transform: translate(-1px, NaNpx);transform: translate(-1px, NaNpx);}#S1hkDbCDGQ{fill: #c0bcbc;-webkit-transform: translate(-1px, NaNpx);transform: translate(-1px, NaNpx);}#SJpkP-AvfX{fill: #fff;}#H1RyDZ0Pz7{fill: #fff;}#HJyekwbADGm{fill: #ddd;}#HJeg1wZCDGQ{fill: none;stroke: #939393;stroke-width: 1.92px;stroke-linecap: round;stroke-linejoin: round;}#rkgwbRvMQ{fill: none;stroke: #939393;stroke-width: 1.92px;stroke-linecap: round;stroke-linejoin: round;}#SkeewbAvMm{fill: #c0bcbc;}#ry-xDWADGm{fill: none;stroke: #fff;stroke-miterlimit: 10;stroke-width: 2px;}#SyzgwZ0DGm{fill: none;stroke: #fff;stroke-miterlimit: 10;stroke-width: 2px;}#Hk7xPZCPMQ{fill: none;stroke: #fff;stroke-miterlimit: 10;stroke-width: 2px;}#HJNxDbCDGm{fill: none;stroke: #fff;stroke-miterlimit: 10;stroke-width: 2px;}#ryHeDbRvGm{fill: none;stroke: #fff;stroke-miterlimit: 10;stroke-width: 2px;}#H18eP-ADMX{fill: #c0bcbc;-webkit-transform: translate(-1px, NaNpx);transform: translate(-1px, NaNpx);}#SJDgDWAPzX{stroke: #939393;stroke-width: 1.92px;stroke-linecap: round;stroke-linejoin: round;fill: url(#New_Pattern_Swatch_4-5);-webkit-transform: translate(-1px, NaNpx);transform: translate(-1px, NaNpx);visibility: hidden;}#rJOlwbRPMm{fill: #fff;}#rytlw-0DGX{fill: #fff;}#BJ5lwb0vGm{fill: #fff;}#Hkjgv-0DfX{fill: #c0bcbc;}#B12ewWCwG7{fill: #c0bcbc;}#B1pewZ0PfX{fill: #c0bcbc;}#SylxgwbRPG7{fill: #1f2e3a;-webkit-transform: translate(-1px, NaNpx);transform: translate(-1px, NaNpx);}#HkWgxDZAPfX{fill: #1f2e3a;-webkit-transform: translate(-1px, NaNpx);transform: translate(-1px, NaNpx);}#H1GlgwWCwf7{fill: #101a21;-webkit-transform: translate(-1px, NaNpx);transform: translate(-1px, NaNpx);}#ry7ggP-RvfQ{fill: #aab2bc;-webkit-transform: translate(-1px, NaNpx);transform: translate(-1px, NaNpx);}#SyNlxvZAPG7{fill: #808e9b;-webkit-transform: translate(-1px, NaNpx);transform: translate(-1px, NaNpx);}#BJSxgvbCPG7{fill: #ee9822;-webkit-transform: translate(-1px, NaNpx);transform: translate(-1px, NaNpx);}#Hy8glPZCPG7{fill: none;stroke-linecap: round;stroke-miterlimit: 10;stroke: #ee9822;-webkit-transform: translate(-1px, NaNpx);transform: translate(-1px, NaNpx);}#rkwggPZAvz7{fill: #aab2bc;-webkit-transform: translate(-1px, NaNpx);transform: translate(-1px, NaNpx);}#ryOexv-Cvzm{fill: none;stroke-miterlimit: 10;stroke: #101a21;-webkit-transform: translate(-1px, NaNpx);transform: translate(-1px, NaNpx);}#SJYlew-RDGQ{fill: #fff;-webkit-transform: translate(-1px, NaNpx);transform: translate(-1px, NaNpx);}#rk9eePb0vMm{fill: #101a21;-webkit-transform: translate(-1px, NaNpx);transform: translate(-1px, NaNpx);}#B1slxvbCvfm{fill: #1f2e3a;-webkit-transform: translate(-1px, NaNpx);transform: translate(-1px, NaNpx);}#B1hxgDW0wGX{fill: #1f2e3a;-webkit-transform: translate(-1px, NaNpx);transform: translate(-1px, NaNpx);}#HJ6lxv-CPGX{fill: #1f2e3a;-webkit-transform: translate(-1px, NaNpx);transform: translate(-1px, NaNpx);}#rk0lxP-RPfm{fill: none;stroke-linecap: round;stroke-miterlimit: 10;stroke: #35495e;stroke-width: 0.5px;-webkit-transform: translate(-1px, NaNpx);transform: translate(-1px, NaNpx);}#r1kbgDbRvGQ{fill: #1f2e3a;-webkit-transform: translate(-1px, NaNpx);transform: translate(-1px, NaNpx);}#SJx-xwZAvzm{fill: none;stroke-linecap: round;stroke-miterlimit: 10;stroke: #35495e;stroke-width: 0.5px;-webkit-transform: translate(-1px, NaNpx);transform: translate(-1px, NaNpx);}#HkWZxwWCDMQ{fill: #1f2e3a;-webkit-transform: translate(-1px, NaNpx);transform: translate(-1px, NaNpx);}#H1MWlvbAPz7{fill: #1f2e3a;-webkit-transform: translate(-1px, NaNpx);transform: translate(-1px, NaNpx);}#HyXWgPWRvMQ{fill: none;stroke-linecap: round;stroke-miterlimit: 10;stroke: #35495e;stroke-width: 0.5px;-webkit-transform: translate(-1px, NaNpx);transform: translate(-1px, NaNpx);}#rJ4WePb0Pz7{fill: none;stroke-linecap: round;stroke-miterlimit: 10;stroke: #35495e;stroke-width: 0.5px;-webkit-transform: translate(-1px, NaNpx);transform: translate(-1px, NaNpx);}#HySWevZ0DGX{fill: #1f2e3a;-webkit-transform: translate(-1px, NaNpx);transform: translate(-1px, NaNpx);}#rJIZxw-CDM7{fill: none;stroke-linecap: round;stroke-miterlimit: 10;stroke: #35495e;stroke-width: 0.5px;-webkit-transform: translate(-1px, NaNpx);transform: translate(-1px, NaNpx);}#H1PZgDWCvfX{fill: #1f2e3a;}#Sku-gDb0Pf7{fill: #1f2e3a;-webkit-transform: translate(-1px, NaNpx);transform: translate(-1px, NaNpx);}#SJ9blDWCPGm{fill: #191718;-webkit-transform: translate(-1px, NaNpx);transform: translate(-1px, NaNpx);}#rJsZePb0DzX{fill: none;stroke-miterlimit: 10;stroke: #ee9822;-webkit-transform: translate(-18.51px, 518.82px) rotate(-82.09deg);transform: translate(-18.51px, 518.82px) rotate(-82.09deg);}#BJn-lPZAwzm{fill: #1f2e3a;-webkit-transform: translate(-1px, NaNpx);transform: translate(-1px, NaNpx);}#Sy6Zlv-RPzX{fill: #101a21;opacity: 0.5;-webkit-transform: translate(-1px, NaNpx);transform: translate(-1px, NaNpx);}#HJC-lPbCPMX{fill: #101a21;opacity: 0.5;-webkit-transform: translate(-1px, NaNpx);transform: translate(-1px, NaNpx);}#SyyGewWCwMX{fill: none;stroke-miterlimit: 10;stroke: #101a21;-webkit-transform: translate(-1px, NaNpx);transform: translate(-1px, NaNpx);}#BJgfeD-APfX{fill: #191718;-webkit-transform: translate(-1px, NaNpx);transform: translate(-1px, NaNpx);}#r1WflPbADMQ{fill: #35495e;-webkit-transform: translate(-1px, NaNpx);transform: translate(-1px, NaNpx);}#SkffeDWAwzQ{fill: #5c6e7e;-webkit-transform: translate(-1px, NaNpx);transform: translate(-1px, NaNpx);}#Bk7GevWRwz7{fill: #35495e;-webkit-transform: translate(-1px, NaNpx);transform: translate(-1px, NaNpx);}#B1EGgw-APfQ{fill: #191718;-webkit-transform: translate(-1px, NaNpx);transform: translate(-1px, NaNpx);}#SyHzeDWCvGm{fill: none;stroke-linecap: round;stroke-miterlimit: 10;stroke: #ee9822;-webkit-transform: translate(-1px, NaNpx);transform: translate(-1px, NaNpx);}#rJIGeP-Cvf7{fill: none;stroke-linecap: round;stroke-miterlimit: 10;stroke: #191718;-webkit-transform: translate(-1px, NaNpx);transform: translate(-1px, NaNpx);}#ryDGgwZCvGX{fill: none;stroke-linecap: round;stroke-miterlimit: 10;stroke: #191718;-webkit-transform: translate(-1px, NaNpx);transform: translate(-1px, NaNpx);}#H1OMlPbRDMX{fill: none;stroke-linecap: round;stroke-miterlimit: 10;stroke: #191718;-webkit-transform: translate(-1px, NaNpx);transform: translate(-1px, NaNpx);}#HJKMgv-RPGm{fill: none;stroke-linecap: round;stroke-miterlimit: 10;stroke: #191718;-webkit-transform: translate(-1px, NaNpx);transform: translate(-1px, NaNpx);}#rJcMxDbRvfm{fill: none;stroke-linecap: round;stroke-miterlimit: 10;stroke: #191718;-webkit-transform: translate(-1px, NaNpx);transform: translate(-1px, NaNpx);}#HyjfxvbCvzX{fill: none;stroke-linecap: round;stroke-miterlimit: 10;stroke: #191718;-webkit-transform: translate(-1px, NaNpx);transform: translate(-1px, NaNpx);}#HkhzlvZ0vfm{fill: none;stroke-linecap: round;stroke-miterlimit: 10;stroke: #191718;-webkit-transform: translate(-1px, NaNpx);transform: translate(-1px, NaNpx);}#rypMxwZCvzX{fill: none;stroke-linecap: round;stroke-linejoin: round;stroke-width: 2px;stroke: #1f2e3a;}#r1Rfew-0DfQ{fill: none;stroke-linecap: round;stroke-linejoin: round;stroke-width: 2px;stroke: #1f2e3a;stroke-dasharray: 13.13 13.13;}#S1k7eDWCvzQ{fill: none;stroke-linecap: round;stroke-linejoin: round;stroke-width: 2px;stroke: #1f2e3a;}#SygmlDW0wMQ{fill: none;stroke-linecap: round;stroke-linejoin: round;stroke-width: 2px;stroke: #1f2e3a;stroke-dasharray: 11.56 11.56;}#r1ZQxwW0wGX{fill: none;stroke-linecap: round;stroke-linejoin: round;stroke-width: 2px;stroke: #1f2e3a;}#BkNQeDbCvMm{fill: #1f2e3a;}#BySXgP-RvzQ{fill: #5c6e7e;}#H1IXgDbAvzX{fill: #5c6e7e;}#SyD7gPZCwGQ{fill: #35495e;}#BJumxDbRPz7{fill: none;stroke-miterlimit: 10;stroke: #f36;}#BkKXeD-Cwzm{fill: #35495e;-webkit-transform: translate(-1px, NaNpx);transform: translate(-1px, NaNpx);}#ryjmxPW0wGm{fill: #101a21;}#r1hXgD-Cvfm{fill: #5c6e7e;-webkit-transform: translate(-1px, NaNpx);transform: translate(-1px, NaNpx);}#HkaQew-AwMQ{fill: #f36;}#r1AXgwZCDzm{fill: #5c6e7e;}#HykExwbCDfQ{fill: #5c6e7e;}#HJgNxw-CDz7{fill: #5c6e7e;}#r1W4ew-0wzQ{fill: #35495e;}#r1MVewbCvfX{fill: #35495e;}#rkmNgD-ADzQ{fill: #35495e;}#HJE4xPW0DMm{fill: #35495e;}#BkrVxDb0DMX{fill: #35495e;}#B1IVxDZRPG7{fill: #35495e;}#HkDEeDZ0wMX{fill: #f36;-webkit-transform: translate(-1px, NaNpx);transform: translate(-1px, NaNpx);}#SkdNlP-RPfm{fill: #ebebeb;-webkit-transform: translate(-1px, NaNpx);transform: translate(-1px, NaNpx);}#rkZyDZAPfm{-webkit-animation-name: rkZyDZAPfm_Animation;animation-name: rkZyDZAPfm_Animation;-webkit-transform-origin: 50% 50%;transform-origin: 50% 50%;transform-box: fill-box;opacity: 0;}#BJG7lwZRvfQ_HkgAWCPM7{-webkit-animation-name: BJG7lwZRvfQ_HkgAWCPM7_Animation;animation-name: BJG7lwZRvfQ_HkgAWCPM7_Animation;-webkit-transform-origin: 50% 50%;transform-origin: 50% 50%;transform-box: fill-box;-webkit-transform: translate(0px, 0px);transform: translate(0px, 0px);}#SkF-ewZCDf7_BJHVfRwf7{-webkit-animation-name: SkF-ewZCDf7_BJHVfRwf7_Animation;animation-name: SkF-ewZCDf7_BJHVfRwf7_Animation;-webkit-transform-origin: 50% 50%;transform-origin: 50% 50%;transform-box: fill-box;}#rJsZePb0DzX_rkyqGAvz7{-webkit-animation-name: rJsZePb0DzX_rkyqGAvz7_Animation;animation-name: rJsZePb0DzX_rkyqGAvz7_Animation;-webkit-transform-origin: 50% 50%;transform-origin: 50% 50%;transform-box: fill-box;}#SyHzeDWCvGm_SJZ0zRwfQ{-webkit-animation-name: SyHzeDWCvGm_SJZ0zRwfQ_Animation;animation-name: SyHzeDWCvGm_SJZ0zRwfQ_Animation;-webkit-transform-origin: 50% 50%;transform-origin: 50% 50%;transform-box: fill-box;}#H1MWlvbAPz7_SyF47CPGm{-webkit-animation-name: H1MWlvbAPz7_SyF47CPGm_Animation;animation-name: H1MWlvbAPz7_SyF47CPGm_Animation;-webkit-transform-origin: 50% 50%;transform-origin: 50% 50%;transform-box: fill-box;}</style><defs><pattern id="New_Pattern_Swatch_4" data-name="New Pattern Swatch 4" width="9" height="9" patternTransform="matrix(0.61, -1.05, 1.05, 0.61, -180.76, -230.52)" patternUnits="userSpaceOnUse" viewBox="0 0 9 9"><rect class="cls-1" width="9" height="9"/><path class="cls-1" d="M7.65,9H1.35A1.34,1.34,0,0,0,0,7.65V1.35A1.34,1.34,0,0,0,1.35,0h6.3A1.34,1.34,0,0,0,9,1.35v6.3A1.34,1.34,0,0,0,7.65,9ZM5.85,4.5A1.35,1.35,0,1,0,4.5,5.85,1.34,1.34,0,0,0,5.85,4.5Z"/><path class="cls-2" d="M1.35,0H0V1.35A1.34,1.34,0,0,0,1.35,0Z"/><path class="cls-2" d="M9,1.35V0H7.65A1.34,1.34,0,0,0,9,1.35Z"/><circle class="cls-2" cx="4.5" cy="4.5" r="1.35"/><path class="cls-2" d="M0,7.65V9H1.35A1.34,1.34,0,0,0,0,7.65Z"/><path class="cls-2" d="M9,7.65A1.34,1.34,0,0,0,7.65,9H9Z"/></pattern><pattern id="New_Pattern_Swatch_4-3" data-name="New Pattern Swatch 4" width="9" height="9" patternTransform="matrix(-0.61, 1.05, -1.05, -0.61, 175.45, 288.19)" patternUnits="userSpaceOnUse" viewBox="0 0 9 9"><rect class="cls-1" width="9" height="9"/><path class="cls-1" d="M7.65,9H1.35A1.34,1.34,0,0,0,0,7.65V1.35A1.34,1.34,0,0,0,1.35,0h6.3A1.34,1.34,0,0,0,9,1.35v6.3A1.34,1.34,0,0,0,7.65,9ZM5.85,4.5A1.35,1.35,0,1,0,4.5,5.85,1.34,1.34,0,0,0,5.85,4.5Z"/><path class="cls-2" d="M1.35,0H0V1.35A1.34,1.34,0,0,0,1.35,0Z"/><path class="cls-2" d="M9,1.35V0H7.65A1.34,1.34,0,0,0,9,1.35Z"/><circle class="cls-2" cx="4.5" cy="4.5" r="1.35"/><path class="cls-2" d="M0,7.65V9H1.35A1.34,1.34,0,0,0,0,7.65Z"/><path class="cls-2" d="M9,7.65A1.34,1.34,0,0,0,7.65,9H9Z"/></pattern><pattern id="New_Pattern_Swatch_4-5" data-name="New Pattern Swatch 4" width="9" height="9" patternTransform="translate(140.3 31.42) rotate(75) scale(1.22)" patternUnits="userSpaceOnUse" viewBox="0 0 9 9"><rect class="cls-1" width="9" height="9"/><path class="cls-1" d="M7.65,9H1.35A1.34,1.34,0,0,0,0,7.65V1.35A1.34,1.34,0,0,0,1.35,0h6.3A1.34,1.34,0,0,0,9,1.35v6.3A1.34,1.34,0,0,0,7.65,9ZM5.85,4.5A1.35,1.35,0,1,0,4.5,5.85,1.34,1.34,0,0,0,5.85,4.5Z"/><path class="cls-2" d="M1.35,0H0V1.35A1.34,1.34,0,0,0,1.35,0Z"/><path class="cls-2" d="M9,1.35V0H7.65A1.34,1.34,0,0,0,9,1.35Z"/><circle class="cls-2" cx="4.5" cy="4.5" r="1.35"/><path class="cls-2" d="M0,7.65V9H1.35A1.34,1.34,0,0,0,0,7.65Z"/><path class="cls-2" d="M9,7.65A1.34,1.34,0,0,0,7.65,9H9Z"/></pattern></defs><title>media-buying-display</title><g id="rygJvb0DGQ"><g id="rkZyDZAPfm" data-name="BG Transparent"><g id="BkzyPW0DM7"><path d="M480,1V479H2V1H480m1-1H1V480H481V0Z" id="H1QkDWRPGm"/></g></g><path id="Bk4kwWRPMm" d="M53.92,341.4c23.28,55.12,80.89,105.51,242.93,86.07s151.42-184,125.57-278.28S321.71,35.62,251.57,54.91c0,0-141.27,22.25-191.61,142.68C38.07,249.94,40.35,309.27,53.92,341.4Z"/><polygon points="418.88 253.1 418.88 209.78 381.36 188.12 343.84 209.78 343.84 253.1 381.36 274.76 418.88 253.1" id="H1HJDZCDMQ"/><path d="M153.08,376.45l-3.19,2.92a34.83,34.83,0,0,1-49.25-49.25l2.34-2.31" id="ByIJP-RPG7"/><path d="M156.06,378.39a34.83,34.83,0,0,1-49.25-49.25" id="rkv1D-ADfQ"/><polygon points="348.81 245.48 348.81 203.37 385.28 182.31 421.74 203.37 421.74 245.48 385.28 266.53 348.81 245.48" id="B1uyPZAPG7"/><path d="M386.28,183.42l35.5,20.5v41l-35.5,20.5-35.51-20.5v-41l35.51-20.5m0-2.22-37.43,21.61V246l37.43,21.61L423.7,246V202.81L386.28,181.2Z" id="rJKyw-CDfm"/><path d="M375.87,126.38l15.06-26.08a.69.69,0,0,0-.6-1H360.21a.69.69,0,0,0-.59,1l15.05,26.08A.69.69,0,0,0,375.87,126.38Z" id="rJ91w-APz7"/><path d="M166.71,348.73l29.09-7.8a.68.68,0,0,0,.31-1.15l-21.29-21.3a.7.7,0,0,0-1.16.31l-7.79,29.09A.69.69,0,0,0,166.71,348.73Z" id="HkikwbRDf7"/><path d="M228.16,380.89l24.77,14.31a.84.84,0,0,1,0,1.45L228.16,411a.84.84,0,0,1-1.26-.72V381.62A.84.84,0,0,1,228.16,380.89Z" id="S1hkDbCDGQ"/><polygon points="325.96 71.35 339.67 68.64 348.87 79.15 344.37 92.39 330.66 95.1 321.45 84.58 325.96 71.35" id="SJpkP-AvfX"/><polygon points="220.79 125.61 237.24 135.11 237.24 154.1 220.79 163.59 204.35 154.1 204.35 135.11 220.79 125.61" id="H1RyDZ0Pz7"/><polygon points="220.79 134.04 229.94 139.32 229.94 149.88 220.79 155.17 211.64 149.88 211.64 139.32 220.79 134.04" id="HJyekwbADGm"/><line x1="148.02" y1="359.4" x2="111.78" y2="323.16" id="HJeg1wZCDGQ"/><line x1="160.79" y1="372.17" x2="155.23" y2="366.61" id="rkgwbRvMQ"/><polygon points="208.57 282.44 232.26 282.01 244.48 302.3 233.01 323.04 209.32 323.47 197.1 303.17 208.57 282.44" id="SkeewbAvMm"/><circle cx="239.64" cy="333.51" r="6.02" id="ry-xDWADGm"/><circle cx="257.42" cy="301.38" r="6.02" id="SyzgwZ0DGm"/><circle cx="238.44" cy="269.89" r="6.02" id="Hk7xPZCPMQ"/><line x1="242.56" y1="328.24" x2="254.5" y2="306.65" id="HJNxDbCDGm"/><line x1="254.31" y1="296.15" x2="241.59" y2="275.01" id="ryHeDbRvGm"/><path d="M214.73,100l.2-4.32a34.83,34.83,0,1,1,69.65,0l0,3.28" id="H18eP-ADMX"/><path d="M280.91,100.77a34.83,34.83,0,0,0-68.41-9.25,28.56,28.56,0,0,0-.11,14.08L213,108" id="SJDgDWAPzX"/><polygon points="290.76 292.26 290.76 269.84 290.76 249.97 296.07 249.97 296.07 292.26 290.76 292.26" id="rJOlwbRPMm"/><polygon points="301.51 292.26 301.51 269.84 301.51 249.97 304.45 249.97 304.45 292.26 301.51 292.26" id="rytlw-0DGX"/><polygon points="275.13 292.26 275.13 269.84 275.13 249.97 285.46 249.97 285.46 292.26 275.13 292.26" id="BJ5lwb0vGm"/><polygon points="202.67 411.97 202.67 394.8 202.67 379.59 196.85 379.59 196.85 411.97 202.67 411.97" id="Hkjgv-0DfX"/><polygon points="190.88 411.97 190.88 394.8 190.88 379.59 187.66 379.59 187.66 411.97 190.88 411.97" id="B12ewWCwG7"/><polygon points="219.79 411.97 219.79 394.8 219.79 379.59 208.48 379.59 208.48 411.97 219.79 411.97" id="B1pewZ0PfX"/></g><g id="ryRgwWRPMQ"><g id="HkyggwZ0DMm"><path d="M270.25,357.9A47.25,47.25,0,0,0,261.53,373c-1.59,5-.64,11.12,4,13.62,2.5,1.36,8.39,3.93,14.2,1.65C279.85,386.63,281,380,270.25,357.9Z" id="SylxgwbRPG7"/><path d="M351,414.25c27.42,10.05,30,2.35,32.88-8.09s10.86-34.6,17.39-52.23,6.52-46.35,6.52-48.31-11.75-10.44-14.12-10.44-30.92-5.88-36.8-11.75-11.5-33-11.5-33l-18.18,9.59-4.7,11a16.93,16.93,0,0,1,4.9,13.71s-7.11,6.75-14.35,10.12c-6.32,2.94-9.63,7.51-12.19,17.3-3.6,13.73-16.61,33.47-16.61,33.47l13.9,17.86,11.08-16.08,40.74-.65,22.91-14.82c-3.39,9.68-7.42,23.06-8.81,30.49-2,10.44-8.49,30.68-8.49,30.68-8.49-2-44.39-11.75-44.39-11.75" id="HkWgxDZAPfX"/><path d="M353.87,278.65c-4.64-9.75-8.47-28.18-8.47-28.18l-18.18,9.59-4.7,11a17.13,17.13,0,0,1,4.93,10.44,36.12,36.12,0,0,0,9.7,1.34A35.66,35.66,0,0,0,353.87,278.65Z" id="H1GlgwWCwf7"/><path d="M267.67,344.33s1.4-1.59,2.31-1.71,27-.36,28.14,0,6.58,27.91,6.58,27.91Z" id="ry7ggP-RvfQ"/><path d="M268,344.15a.52.52,0,0,0-.45.67l9.85,47.1a1,1,0,0,0,.93.82c3.67.22,19.57,1,28-1.21l-8.82-46.63a.89.89,0,0,0-.82-.71C293.29,344.13,277.14,343.86,268,344.15Z" id="SyNlxvZAPG7"/><path d="M333.24,301.71s-3.26-.17-3.43,4.24,3.1,5.55,5.39,2.61S336.18,301.57,333.24,301.71Z" id="BJSxgvbCPG7"/><path d="M356.9,283.43c-4.73,10.28-16.32,21.05-23.82,20.23s-6.64-18-6.64-18" id="Hy8glPZCPG7"/><path d="M282.56,357.33s-3.69,2-1,6.82,9.63,2.44,9.24-2.88C290.43,356.58,285.71,355.23,282.56,357.33Z" id="rkwggPZAvz7"/><path d="M370,330.26" id="ryOexv-Cvzm"/><path d="M319.69,314.11c.05,12.4,13.39,20.89,24.48,6.85S360.88,286,360.88,286l9.07,3.52s-12.6,15.81-9.07,27.53,12,14.85,12,14.85l-7.18,69.66L309.25,388.2l2-6.85c4.57-10.77,0-24.48-4.9-38.52s.65-23.82,5.88-30.68a33.25,33.25,0,0,0,6.25-13.73s.38-6.34,1.77-8.79l4.36-2.94S319.66,305.13,319.69,314.11Z" id="SJYlew-RDGQ"/><path d="M372.9,331.93c1.38-3.94,2.65-7.26,3.59-9.33,0,0-4.67-.1-6.54,7.66Z" id="rk9eePb0vMm"/><path d="M374.06,332.16c-2.16,10.64-3.88,24.27-5.59,29.61a207.38,207.38,0,0,0-6.8,27.42c-8.49-2-50.46-7.84-50.46-7.84L301.88,395s15.3,8.28,49.15,19.23c27.78,9,30,2.35,32.88-8.09s10.86-34.6,17.39-52.23" id="B1slxvbCvfm"/><path d="M376.49,322.6a76,76,0,0,0-2.43,9.56" id="B1hxgDW0wGX"/><path d="M282.15,373.71s3.73-2.19,5.56-2.47a7.09,7.09,0,0,1,2.22,0,.3.3,0,0,1,.15.52l-3.88,3.52Z" id="HJ6lxv-CPGX"/><path d="M289.52,371.32a15.75,15.75,0,0,0-1.44,1.34c-.27.36,0,.56,0,.56" id="rk0lxP-RPfm"/><path d="M300.44,374.38,288.85,370s-8.59-1.84-10.26-2.15-3,2.91.2,4.25,7.85,2.84,7.85,2.84-4.56,3.47-1,5.86l3.52,2.39s-1.16,2.27-.29,2.92,6.08,4.44,6.08,4.44,10.28,7.36,16.11,8.54" id="r1kbgDbRvGQ"/><path d="M286.64,374.94s-4.56,3.47-1,5.86l3.52,2.39" id="SJx-xwZAvzm"/><path d="M297.74,380.44l12,12.65,11.1-5.87-7.44-6.59-13.5-16a3.44,3.44,0,0,0-1.74-1.13L286,360a.49.49,0,0,0-.62.53,5.91,5.91,0,0,0,2.1,3.91,35.7,35.7,0,0,0,6.82,3,3.6,3.6,0,0,1,1.76,1.36l5.85,10Z" id="HkWZxwWCDMQ"/><g id="H1MWlvbAPz7_SyF47CPGm" data-animator-group="true" data-animator-type="1"><path id="H1MWlvbAPz7" d="M303.92,378.27s2.76-2.1.74-7.74L303,362.76a18.05,18.05,0,0,1,4.53,5.06,28.45,28.45,0,0,1,2.6,5.8l6.13,11.11Z"/></g><path d="M286.08,361.43A16.85,16.85,0,0,0,288,362c.28,0,.84-.46,1-1.18" id="HyXWgPWRvMQ"/><path d="M280.22,368.51a1.67,1.67,0,0,1-.74,1,6.63,6.63,0,0,1-2.26,0" id="rJ4WePb0Pz7"/><path d="M269.39,376.63s6-7.62,6.57-8.16,4-1.85,6-3.7a5.26,5.26,0,0,0,1.77-3.71.33.33,0,0,0-.42-.34c-2.09.55-10.36,3.62-10.36,3.62l-9.59,8.11Z" id="HySWevZ0DGX"/><path d="M280.79,361.76s.39.89.88.79c.31-.07,1.24-.37,1.88-.58" id="rJIZxw-CDM7"/><polygon points="281.17 372.17 270.71 374.94 272.2 381.33 285.29 373.54 281.17 372.17" id="H1PZgDWCvfX"/><path d="M270.89,378l11-1.9s2,2.27,1.16,4l-.87,1.72a3.76,3.76,0,0,1,.12,4.38,5.17,5.17,0,0,1-2.42,1.93,12.31,12.31,0,0,1-3.93,1" id="Sku-gDb0Pf7"/></g><g id="SkF-ewZCDf7_BJHVfRwf7" data-animator-group="true" data-animator-type="1"><g id="SkF-ewZCDf7"><path d="M290.29,210.87S290,222,300.45,225.26s17-5.16,17-5.16-3.69,7.91,3.43,12.65,12.59-.34,12.59-.34.71,12.58,14.26,11.75l2.87-.07s1.22,8.52,9.69,8.51c5.89,0,8.33-3,9.51-6.27,0,0,7.05,2.85,10.88-4.27a9.28,9.28,0,0,0-1.22-10.48s6.12,1.72,9.62-3.83A9.31,9.31,0,0,0,400,226.52c4.29-3.82,6.11-10.81-.74-16.64,0,0,15-7,8.61-22.29-4.91-11.71-16.61-9.27-16.61-9.27s6.64-6.34,2.36-16.4-15.79-7.43-15.79-7.43a16.08,16.08,0,0,0-.34-12.25c-2.94-6.17-10.75-8.27-10.75-8.27s6.06-10.83-7.09-17.86c0,0-2.15-7.28-9.25-6.42a10.23,10.23,0,0,0-8.79,6.61s-3.58-10.78-14.16-9.51-11.26,10.52-11.26,10.52-.73-9.9-13.68-9.67-12.58,13.69-12.58,13.69-14.11,4.51-19,15.28c0,0-7.7-2.69-14.42,5.66s-2.73,18.31-2.73,18.31-5.6-1.59-11.43,5-5,20.55,2.5,23.32a21.39,21.39,0,0,0-9.2,19,20.08,20.08,0,0,0,11.12,17.21s-1.7,9.12,7,11.75c0,0-.8,11.22,11.49,12,0,0,2.11,7.19,8.46,8a10.12,10.12,0,0,0,8-2.32s7.84,10.83,17.07,1.63" id="SJ9blDWCPGm"/><g id="rJsZePb0DzX_rkyqGAvz7" data-animator-group="true" data-animator-type="1"><ellipse id="rJsZePb0DzX" cx="289.17" cy="269.47" rx="17.27" ry="5.49"/></g><path d="M281.85,230.58s4.64,27.2,18.85,41.79,20.33,13.12,37.49-2.12c12.81-11.37,20.37-28.19,5.69-65.17S271.74,191,281.85,230.58Z" id="BJn-lPZAwzm"/><path d="M353.62,234.22a99.47,99.47,0,0,0-2.13-17.39c-1.21.44-9.16,3.31-19.68,6.06A303.44,303.44,0,0,1,289,203a66.68,66.68,0,0,0-8.42,12.58,33.71,33.71,0,0,0-.62,11.79s.06.81.21,2.21h0c0,.28.07.59.11.92v0c0,.25.07.51.1.78v.09h0c.48,3.74.42,7,2.18,13.54,7.53-.47,21.29-.75,35.79-3.67,16.92,4.33,28.75,5.72,33.62,5.56a37.68,37.68,0,0,0,1.62-12.58Z" id="Sy6Zlv-RPzX"/><path d="M285.34,252.37s6.14-7.63,19.86-14.62l-24.2.8Z" id="HJC-lPbCPMX"/><path d="M275.29,241.06" id="SyyGewWCwMX"/><path d="M350.44,251.67a44.48,44.48,0,0,0,2.16-12.58l-14.44,1.33S349.58,254.22,350.44,251.67Z" id="BJgfeD-APfX"/><path d="M278.7,241.29a.9.9,0,0,0,.92,1.15c6.09-.29,31.18-1.78,51.74-7.51L355,228.36a21.88,21.88,0,0,1-1.67-6.43c-.22-3.23-.71-11-1.81-10.59S329,219.59,308.27,222s-30,.83-30.45,3.39C277.46,227.76,280.23,236,278.7,241.29Z" id="r1WflPbADMQ"/><path d="M288.88,198.49s31.79,18.58,64.49,26.69c0,0,1.95-.07,1.58,3.18s3.05,12.63.41,15-23.59.21-78.86-17.71a.41.41,0,0,1-.17-.67,4.71,4.71,0,0,0,1.31-4.23C277.14,217.55,280.37,208.67,288.88,198.49Z" id="SkffeDWAwzQ"/><path d="M282.84,206.82a44.56,44.56,0,0,0-4.29,8.73c.26.13,43.16,21.17,77.12,18.71-.14-.8-.29-1.58-.41-2.32h0C331.61,237.09,283.09,207,282.84,206.82Z" id="Bk7GevWRwz7"/><path d="M359.7,237.21l-4.76.13c-13.55.83-14.26-11.75-14.26-11.75s-5.47,5.08-12.59.34-3.43-12.65-3.43-12.65-6.52,8.44-17,5.16-10.16-14.39-10.16-14.39c-4.69,7.83-14.16,4.6-14.16,4.6s4.68,14.26-16.12,16.6l-9.35-28.89,55.07-25.88,44.36,12.19,4.1,37.83Z" id="B1EGgw-APfQ"/><g id="SyHzeDWCvGm_SJZ0zRwfQ" data-animator-group="true" data-animator-type="1"><path id="SyHzeDWCvGm" d="M340.54,245.67c2.65,2.39,5.46,7,7.46,12.65,3.22,9.08,3.13,17.4-.21,18.58s-8.65-5.21-11.87-14.29c-2.33-6.57-2.92-12.74-1.81-16.1"/></g><path d="M370.47,144.47s12.4-2.2,16.91,4.15S397.55,156.35,398,150c.21-2.72-.62-3.44-1.65-3.37a2.46,2.46,0,0,0-1.85,3.7l.35.6" id="rJIGeP-Cvf7"/><path d="M262.76,140.22s-2.54-7.9,7.23-12.07,3.74-14.17.9-10.12" id="ryDGgwZCvGX"/><path d="M255.69,233.3s-5.82-1.24-8.23,2.78,6.75,7.74,5,4.53-7.61,1.57-8.56,5.42c-.89,3.58-3.91,2.44-3.41.09" id="H1OMlPbRDMX"/><path d="M332.5,265c-1.94,3.3,5.86,3.89,1.95-3.29s3-9.64,1.5-4.82-11.43,1.55-6-5,7.87,3.45,1.8-.89.07-10,.07-10" id="HJKMgv-RPGm"/><path d="M358.69,125.85s12.72,1.8,9.23-5.52S360.66,125,372.7,123s1.66-12.35-.26-9.48,8.38,5.6,8.26,1.46" id="rJcMxDbRvfm"/><path d="M249.56,169.73s-16.56,3.21-9.1,10.8,7-8.95-7.07-1.24,3.23,16,4.39,11.66-12.8-3.37-10.88,1.73" id="HyjfxvbCvzX"/><path d="M376.24,230.53s11.57,1.24,8.15,4.72c-9.08,9.24,12.72-5.54,4.9,3.12s.14,5.2.14,5.2" id="HkhzlvZ0vfm"/></g></g></g><line x1="132.49" y1="309.23" x2="132.49" y2="315.23" id="rypMxwZCvzX"/><line x1="132.49" y1="328.36" x2="132.49" y2="348.05" id="r1Rfew-0DfQ"/><polyline points="132.49 354.61 132.49 360.61 138.49 360.61" id="S1k7eDWCvzQ"/><line x1="150.06" y1="360.61" x2="236.78" y2="360.61" id="SygmlDW0wMQ"/><line x1="242.56" y1="360.61" x2="248.56" y2="360.61" id="r1ZQxwW0wGX"/><g id="BJG7lwZRvfQ_HkgAWCPM7" data-animator-group="true" data-animator-type="0"><g id="BJG7lwZRvfQ"><g id="ry77ev-APMm"><rect x="94.12" y="138.93" width="136.4" height="122.14" rx="0.27" ry="0.27" id="BkNQeDbCvMm"/><rect x="156.1" y="153.23" width="58.85" height="13.26" rx="0.21" ry="0.21" id="BySXgP-RvzQ"/><rect x="143.37" y="170.53" width="58.85" height="13.26" rx="0.21" ry="0.21" id="H1IXgDbAvzX"/><rect x="108.77" y="242.58" width="76.75" height="5.18" rx="0.15" ry="0.15" id="SyD7gPZCwGQ"/><polyline points="213.19 173.66 216.69 177.16 213.19 180.66" id="BJumxDbRPz7"/><path d="M120.23,232.25a5.25,5.25,0,0,1-5.52,5.24,4.94,4.94,0,0,1-4.94-5A5.39,5.39,0,0,1,115,227,5.51,5.51,0,0,1,120.23,232.25Z" id="BkKXeD-Cwzm"/></g><g id="HkcmewZAPGX"><rect x="42" y="195.93" width="168.88" height="95.26" rx="0.65" ry="0.65" id="ryjmxPW0wGm"/><path d="M59.57,207a5.25,5.25,0,0,1-5.52,5.25,5,5,0,0,1-4.94-4.95,5.39,5.39,0,0,1,5.23-5.59A5.5,5.5,0,0,1,59.57,207Z" id="r1hXgD-Cvfm"/><rect x="63.63" y="202.23" width="85.22" height="4.53" rx="0.6" ry="0.6" id="HkaQew-AwMQ"/><rect x="63.63" y="210.27" width="30.4" height="1.96" rx="0.29" ry="0.29" id="r1AXgwZCDzm"/><rect x="77.22" y="283.91" width="15.2" height="1.96" rx="0.2" ry="0.2" id="HykExwbCDfQ"/><rect x="47.61" y="279.03" width="157.84" height="0.98" rx="0.47" ry="0.47" id="HJgNxw-CDz7"/><rect x="47.83" y="282.66" width="4.67" height="4.67" rx="0.29" ry="0.29" id="r1W4ew-0wzQ"/><rect x="57.31" y="282.66" width="4.67" height="4.67" rx="0.29" ry="0.29" id="r1MVewbCvfX"/><rect x="66.8" y="282.66" width="4.67" height="4.67" rx="0.29" ry="0.29" id="rkmNgD-ADzQ"/><rect x="181.8" y="282.66" width="4.67" height="4.67" rx="0.29" ry="0.29" id="HJE4xPW0DMm"/><rect x="191.28" y="282.66" width="4.67" height="4.67" rx="0.29" ry="0.29" id="BkrVxDb0DMX"/><rect x="200.77" y="282.66" width="4.67" height="4.67" rx="0.29" ry="0.29" id="B1IVxDZRPG7"/><path d="M201.91,202.88v-1.59a.24.24,0,0,1,.41-.18l2.92,2.93a.23.23,0,0,1,0,.34l-2.92,2.93a.24.24,0,0,1-.41-.17v-1.6s-2.18,0-3.15,1.21a7.84,7.84,0,0,0-.77,1.13.12.12,0,0,1-.23,0,5.64,5.64,0,0,1,.76-3A3.9,3.9,0,0,1,201.91,202.88Z" id="HkDEeDZ0wMX"/><path d="M117.65,231.53V255.1a.66.66,0,0,0,1,.56l19.79-11.79a.66.66,0,0,0,0-1.12L118.64,231A.66.66,0,0,0,117.65,231.53Z" id="SkdNlP-RPfm"/></g></g></g><script>(function(){var a=document.querySelector('#ryywWRvMX'),b=a.querySelectorAll('style'),c=function(d){b.forEach(function(f){var g=f.textContent;g&amp;&amp;(f.textContent=g.replace(/transform-box:[^;\r\n]*/gi,'transform-box: '+d))})};c('initial'),window.requestAnimationFrame(function(){return c('fill-box')})})();</script></svg>