<svg id="rJ5LVJ_zm" xmlns="http://www.w3.org/2000/svg" viewBox="0 0 480 480"><style>@-webkit-keyframes S1275UEkOfm_SkFp8yuM7_Animation{57.50%{-webkit-transform: rotate(0deg);transform: rotate(0deg);}62.50%{-webkit-transform: rotate(20deg);transform: rotate(20deg);}67.50%{-webkit-transform: rotate(0deg);transform: rotate(0deg);}72.50%{-webkit-transform: rotate(15deg);transform: rotate(15deg);}77.50%{-webkit-transform: rotate(0deg);transform: rotate(0deg);}}@keyframes S1275UEkOfm_SkFp8yuM7_Animation{57.50%{-webkit-transform: rotate(0deg);transform: rotate(0deg);}62.50%{-webkit-transform: rotate(20deg);transform: rotate(20deg);}67.50%{-webkit-transform: rotate(0deg);transform: rotate(0deg);}72.50%{-webkit-transform: rotate(15deg);transform: rotate(15deg);}77.50%{-webkit-transform: rotate(0deg);transform: rotate(0deg);}}@-webkit-keyframes By1rqI41OMQ_Bkp_U1OzX_Animation{47.50%{-webkit-transform: rotate(0deg);transform: rotate(0deg);}50%{-webkit-transform: rotate(-8deg);transform: rotate(-8deg);}52.50%{-webkit-transform: rotate(8deg);transform: rotate(8deg);}55.00%{-webkit-transform: rotate(0deg);transform: rotate(0deg);}}@keyframes By1rqI41OMQ_Bkp_U1OzX_Animation{47.50%{-webkit-transform: rotate(0deg);transform: rotate(0deg);}50%{-webkit-transform: rotate(-8deg);transform: rotate(-8deg);}52.50%{-webkit-transform: rotate(8deg);transform: rotate(8deg);}55.00%{-webkit-transform: rotate(0deg);transform: rotate(0deg);}}@-webkit-keyframes ryBE58V1OGQ_BksdHJuMQ_Animation{0%{-webkit-transform: rotate(-80deg);transform: rotate(-80deg);}47.50%{-webkit-transform: rotate(-80deg);transform: rotate(-80deg);}50%{-webkit-transform: rotate(-60deg);transform: rotate(-60deg);}52.50%{-webkit-transform: rotate(-90deg);transform: rotate(-90deg);}55.00%{-webkit-transform: rotate(-80deg);transform: rotate(-80deg);}100%{-webkit-transform: rotate(-80deg);transform: rotate(-80deg);}}@keyframes ryBE58V1OGQ_BksdHJuMQ_Animation{0%{-webkit-transform: rotate(-80deg);transform: rotate(-80deg);}47.50%{-webkit-transform: rotate(-80deg);transform: rotate(-80deg);}50%{-webkit-transform: rotate(-60deg);transform: rotate(-60deg);}52.50%{-webkit-transform: rotate(-90deg);transform: rotate(-90deg);}55.00%{-webkit-transform: rotate(-80deg);transform: rotate(-80deg);}100%{-webkit-transform: rotate(-80deg);transform: rotate(-80deg);}}@-webkit-keyframes Hk745U4JdM7_rym6V1ufX_Animation{10%{-webkit-transform: rotate(0deg);transform: rotate(0deg);}17.50%{-webkit-transform: rotate(4deg);transform: rotate(4deg);}37.50%{-webkit-transform: rotate(4deg);transform: rotate(4deg);}45%{-webkit-transform: rotate(0deg);transform: rotate(0deg);}47.50%{-webkit-transform: rotate(3deg);transform: rotate(3deg);}50%{-webkit-transform: rotate(0deg);transform: rotate(0deg);}0%{-webkit-transform: rotate(0deg);transform: rotate(0deg);}100%{-webkit-transform: rotate(0deg);transform: rotate(0deg);}}@keyframes Hk745U4JdM7_rym6V1ufX_Animation{10%{-webkit-transform: rotate(0deg);transform: rotate(0deg);}17.50%{-webkit-transform: rotate(4deg);transform: rotate(4deg);}37.50%{-webkit-transform: rotate(4deg);transform: rotate(4deg);}45%{-webkit-transform: rotate(0deg);transform: rotate(0deg);}47.50%{-webkit-transform: rotate(3deg);transform: rotate(3deg);}50%{-webkit-transform: rotate(0deg);transform: rotate(0deg);}0%{-webkit-transform: rotate(0deg);transform: rotate(0deg);}100%{-webkit-transform: rotate(0deg);transform: rotate(0deg);}}@-webkit-keyframes Sy9gq8E1uGm_HyDdE1_zm_Animation{0%{-webkit-transform: translate(0px, 0px);transform: translate(0px, 0px);}25%{-webkit-transform: translate(0px, -8px);transform: translate(0px, -8px);}75%{-webkit-transform: translate(0px, 8px);transform: translate(0px, 8px);}100%{-webkit-transform: translate(0px, 0px);transform: translate(0px, 0px);}}@keyframes Sy9gq8E1uGm_HyDdE1_zm_Animation{0%{-webkit-transform: translate(0px, 0px);transform: translate(0px, 0px);}25%{-webkit-transform: translate(0px, -8px);transform: translate(0px, -8px);}75%{-webkit-transform: translate(0px, 8px);transform: translate(0px, 8px);}100%{-webkit-transform: translate(0px, 0px);transform: translate(0px, 0px);}}@-webkit-keyframes BkecIVydMQ_Animation{0%{opacity: 0;}100%{opacity: 0;}}@keyframes BkecIVydMQ_Animation{0%{opacity: 0;}100%{opacity: 0;}}#rJ5LVJ_zm *{-webkit-animation-duration: 4s;animation-duration: 4s;-webkit-animation-iteration-count: infinite;animation-iteration-count: infinite;-webkit-animation-timing-function: cubic-bezier(0, 0, 1, 1);animation-timing-function: cubic-bezier(0, 0, 1, 1);}#Hk-984kOMm{fill: #f2f2f2;}#rJm5LVkuM7{fill: #e5e5ea;}#S1S5L41ufm{fill: #c7ccd3;}#B1U5LEJ_f7{fill: #dedee2;}#HyvqL41_G7{fill: #dedee2;}#HJ_qUE1dfX{fill: #dedee2;}#SkF584y_fQ{fill: #c7ccd3;}#Bk95I4kuzm{fill: #c7ccd3;}#Byi5LVk_MX{fill: none;stroke: #fff;stroke-miterlimit: 10;stroke-width: 2px;}#Sy25UV1dGX{fill: none;stroke: #fff;stroke-miterlimit: 10;stroke-width: 2px;}#B16cIV1Of7{fill: none;stroke: #fff;stroke-miterlimit: 10;stroke-width: 2px;}#HkR98VkOzX{fill: none;stroke: #fff;stroke-miterlimit: 10;stroke-width: 2px;}#HyJlcIVJ_M7{fill: none;stroke: #fff;stroke-miterlimit: 10;stroke-width: 2px;}#B1xeqLNJuzQ{fill: #fff;fill-rule: evenodd;}#B1Zl9UEJOMX{fill: #c7ccd3;}#r1GlqUN1ufX{fill: #fff;}#Sy7x9IE1uM7{fill: #fff;}#HyNx9IEJ_MQ{fill: #dedee2;}#Skre9UE1OMQ{fill: none;stroke-width: 2px;stroke: #1f2e3a;stroke-linejoin: round;stroke-linecap: round;}#SJLg58N1OGX{fill: none;stroke-width: 2px;stroke: #1f2e3a;stroke-linejoin: round;stroke-linecap: round;stroke-dasharray: 9.89 9.89;}#Hyvgc8NJdzm{fill: none;stroke-width: 2px;stroke: #1f2e3a;stroke-linejoin: round;stroke-linecap: round;}#S1dgq8EyOGQ{fill: none;stroke-width: 2px;stroke: #1f2e3a;stroke-linejoin: round;stroke-linecap: round;stroke-dasharray: 11.59 11.59;}#HkKl5LVJOzX{fill: none;stroke-width: 2px;stroke: #1f2e3a;stroke-linejoin: round;stroke-linecap: round;}#rJjlcLNyuMQ{fill: #101a21;}#BJTl98NJOfQ{fill: #35495e;}#SJRlcLE1Oz7{fill: #35495e;}#BykZ9LEkdMm{fill: #5c6e7e;}#r1xWcUV1uMX{fill: #5c6e7e;}#HJZ-9I4JOzX{fill: #5c6e7e;}#BJz-9IEkdfX{fill-rule: evenodd;fill: #abb2bc;}#ByEZ58NkuG7{fill: #36495e;}#ByU-9841uMm{fill: #808d9a;}#rJvZ9IEydzQ{fill: #808d9a;}#H1YWcI4y_zX{fill: #f36;}#S1cZ5IVJuzm{fill: #fff;}#HyibcLV1uf7{fill: #fff;}#Sya-cUEJuf7{fill: #35495e;}#rJRW5UEk_Mm{fill: #35495e;}#Sy1MqU4kuzQ{fill: #35495e;}#rJlM9841OM7{fill: #5c6e7e;}#BkbG5LEJOMQ{fill: #5c6e7e;}#rkfMc8V1uMQ{fill: #5c6e7e;}#rJ8fc8V1ufm{fill: #1f2e3a;}#BywfqLVJOGQ{fill: #1f2e3a;}#rk_f9L41_Mm{fill: #101a21;}#Hycz5L4k_fX{fill: #ee9822;}#SJifqLVJuM7{fill: none;stroke-miterlimit: 10;stroke-linecap: round;stroke: #ee9822;}#r1pMcI4yOfm{fill: none;stroke-miterlimit: 10;stroke: #101a21;}#rkAMcIEkdG7{fill: #fff;}#HykX98Ey_MQ{fill: #1f2e3a;}#HyemcLE1_GQ{fill: #101a21;}#HJ-Q98NkuMX{fill: #1f2e3a;}#SJQX9IEydGQ{fill: #aab2bc;}#rJ4XcL4yOz7{fill: #808e9b;}#rkr7c8EJuGQ{fill: #aab2bc;}#HyPm9LEkOzX{fill: #1f2e3a;}#SkdQqUV1_fm{fill: none;stroke-miterlimit: 10;stroke-linecap: round;stroke: #35495e;stroke-width: 0.5px;}#SJYX5LVyuzQ{fill: #1f2e3a;}#H1cQcIN1_z7{fill: none;stroke-miterlimit: 10;stroke-linecap: round;stroke: #35495e;stroke-width: 0.5px;}#HJjQqUNy_M7{fill: #1f2e3a;}#S1275UEkOfm{fill: #1f2e3a;}#ByTmqUVkdzm{fill: none;stroke-miterlimit: 10;stroke-linecap: round;stroke: #35495e;stroke-width: 0.5px;}#BkC79841dM7{fill: none;stroke-miterlimit: 10;stroke-linecap: round;stroke: #35495e;stroke-width: 0.5px;}#Bkk458EyOzm{fill: #1f2e3a;}#BJx49LN1_fQ{fill: none;stroke-miterlimit: 10;stroke-linecap: round;stroke: #35495e;stroke-width: 0.5px;}#SkW45LNkuzm{fill: #1f2e3a;}#ryfNq8NJOzm{fill: #1f2e3a;}#H1NEcU4J_MQ{fill: #191718;}#ryBE58V1OGQ{fill: none;stroke-miterlimit: 10;stroke: #ee9822;-webkit-transform: translate(0px, 0px);transform: translate(0px, 0px);}#HkIV9IEJuMm{fill: #1f2e3a;}#ByuV5U4J_GX{fill: #191718;}#BJYN9UEy_Mm{fill: #101a21;opacity: 0.5;}#Hy9V9841_f7{fill: #101a21;opacity: 0.5;}#rkoE5IN1dM7{fill: #35495e;}#Sk2V5INJ_G7{fill: #5c6e7e;}#SkpV98Vy_z7{fill: #35495e;}#rkCE9UE1uMQ{fill: #191718;}#By1rqI41OMQ{fill: none;stroke-miterlimit: 10;stroke-linecap: round;stroke: #ee9822;}#Hk-r5I4JdGm{fill: none;stroke-miterlimit: 10;stroke-linecap: round;stroke: #191718;}#SyMrcLVyuzQ{fill: none;stroke-miterlimit: 10;stroke-linecap: round;stroke: #191718;}#SkXBcLEy_zX{fill: none;stroke-miterlimit: 10;stroke-linecap: round;stroke: #191718;}#HkNSqU4yuGX{fill: none;stroke-miterlimit: 10;stroke-linecap: round;stroke: #191718;}#HySS5UEJOzX{fill: none;stroke-miterlimit: 10;stroke-linecap: round;stroke: #191718;}#HyLBcIEyufQ{fill: none;stroke-miterlimit: 10;stroke-linecap: round;stroke: #191718;}#H1vH9IEk_Mm{fill: none;stroke-miterlimit: 10;stroke-linecap: round;stroke: #191718;}#BkecIVydMQ{-webkit-animation-name: BkecIVydMQ_Animation;animation-name: BkecIVydMQ_Animation;-webkit-transform-origin: 50% 50%;transform-origin: 50% 50%;transform-box: fill-box;opacity: 0;}#Sy9gq8E1uGm_HyDdE1_zm{-webkit-animation-name: Sy9gq8E1uGm_HyDdE1_zm_Animation;animation-name: Sy9gq8E1uGm_HyDdE1_zm_Animation;-webkit-transform-origin: 50% 50%;transform-origin: 50% 50%;transform-box: fill-box;}#Hk745U4JdM7_rym6V1ufX{-webkit-animation-name: Hk745U4JdM7_rym6V1ufX_Animation;animation-name: Hk745U4JdM7_rym6V1ufX_Animation;-webkit-transform-origin: 50% 50%;transform-origin: 50% 50%;transform-box: fill-box;}#ryBE58V1OGQ_BksdHJuMQ{-webkit-animation-name: ryBE58V1OGQ_BksdHJuMQ_Animation;animation-name: ryBE58V1OGQ_BksdHJuMQ_Animation;-webkit-transform-origin: 50% 50%;transform-origin: 50% 50%;transform-box: fill-box;}#By1rqI41OMQ_Bkp_U1OzX{-webkit-animation-name: By1rqI41OMQ_Bkp_U1OzX_Animation;animation-name: By1rqI41OMQ_Bkp_U1OzX_Animation;-webkit-transform-origin: 50% 50%;transform-origin: 50% 50%;transform-box: fill-box;}#S1275UEkOfm_SkFp8yuM7{-webkit-animation-name: S1275UEkOfm_SkFp8yuM7_Animation;animation-name: S1275UEkOfm_SkFp8yuM7_Animation;-webkit-transform-origin: 50% 50%;transform-origin: 50% 50%;transform-box: fill-box;}</style><defs/><title>media-buying-facebook</title><g id="BkecIVydMQ"><rect x="0.5" y="0.5" width="479" height="479" id="Hk-984kOMm"/><path d="M479,1V479H1V1H479m1-1H0V480H480V0Z" id="rJGqIV1OGQ"/></g><path id="rJm5LVkuM7" d="M53.33,340.73C76.66,396,134.38,446.44,296.72,427s151.71-184.35,125.8-278.81S321.63,34.37,251.35,53.7c0,0-141.53,22.3-192,143C37.46,249.1,39.74,308.54,53.33,340.73Z"/><g id="ry4cI41dGX"><polygon points="262.13 343.96 262.13 300.56 224.54 278.86 186.95 300.56 186.95 343.96 224.54 365.67 262.13 343.96" id="S1S5L41ufm"/><path d="M82.6,348,85.8,345a34.89,34.89,0,0,1,49.34,49.34l-2.35,2.31" id="B1U5LEJ_f7"/><path d="M221.69,253.53l-4.33-.2a34.89,34.89,0,0,1,0-69.78l3.29,0" id="HyvqL41_G7"/><path d="M423.48,264.24l-3.2,2.92a34.89,34.89,0,0,1-49.35-49.34l2.35-2.31" id="HJ_qUE1dfX"/><path d="M254.78,118.63h-37.7a2.33,2.33,0,0,0-2.33,2.33v37.7a2.33,2.33,0,0,0,2.33,2.34h20.3V144.59h-5.52v-6.4h5.52v-4.71c0-5.47,3.34-8.45,8.22-8.45a45.09,45.09,0,0,1,4.94.25V131h-3.39c-2.65,0-3.17,1.26-3.17,3.11v4.08h6.33l-.82,6.4H244V161h10.8a2.34,2.34,0,0,0,2.34-2.34V121A2.33,2.33,0,0,0,254.78,118.63Z" id="SkF584y_fQ"/><polygon points="364.12 161.57 385.82 123.98 364.12 86.39 320.71 86.39 299.01 123.98 320.71 161.57 364.12 161.57" id="Bk95I4kuzm"/><circle cx="320.76" cy="86.39" r="7.11" id="Byi5LVk_MX"/><circle cx="364.12" cy="86.39" r="7.11" id="Sy25UV1dGX"/><circle cx="385.8" cy="124.01" r="7.11" id="B16cIV1Of7"/><line x1="327.88" y1="86.39" x2="357.01" y2="86.39" id="HkR98VkOzX"/><line x1="367.75" y1="92.59" x2="382.32" y2="117.82" id="HyJlcIVJ_M7"/><path d="M284.17,96.94a3.66,3.66,0,0,0,2.11-3.29A3.14,3.14,0,0,0,284.82,91a3.44,3.44,0,0,0,2-2.73c.13-1.26-.44-3-1.7-3.53a2.46,2.46,0,0,0,1.64-2.46,3.76,3.76,0,0,0-2.48-3.3c-1.67-.57-8.69-.15-11.05-.24a2.37,2.37,0,0,1,.11-.64c1-3.18,5.45-12.35-.82-14.14a2.25,2.25,0,0,0-2.76,1.21,13.54,13.54,0,0,1-.33,4.88c-.83,2.48-5.2,4.79-7.22,8.49a16.92,16.92,0,0,0-1.46,3.56c-1,2-.5,9.42-.48,12.27.06,8.09-.79,7.68,4.9,7.67,4.26,0,8.53,0,12.78,0a36.59,36.59,0,0,1,3.75.11A3.44,3.44,0,0,0,285,99.46a2,2,0,0,0-.86-2.52ZM255.33,81.25h-5.07a2.41,2.41,0,0,0-2.41,2.41V100.8a2.41,2.41,0,0,0,2.41,2.41h5.07a2.41,2.41,0,0,0,2.4-2.41V83.66A2.41,2.41,0,0,0,255.33,81.25Z" id="B1xeqLNJuzQ"/><path d="M232.88,104.37l-7.81-29.15a.7.7,0,0,0-1.16-.31L202.57,96.25a.7.7,0,0,0,.31,1.16L232,105.22A.7.7,0,0,0,232.88,104.37Z" id="B1Zl9UEJOMX"/><path d="M181.89,379.31l-24.83,14.34a.84.84,0,0,0,0,1.45l24.83,14.33a.83.83,0,0,0,1.25-.72V380A.84.84,0,0,0,181.89,379.31Z" id="r1GlqUN1ufX"/><polygon points="189.55 410.45 189.55 393.25 189.55 378.01 194.58 378.01 194.58 410.45 189.55 410.45" id="Sy7x9IE1uM7"/><path id="HyNx9IEJ_MQ" d="M236.1,378c-7.3-.79-9.85,2.54-10.66,4.2a.37.37,0,0,1-.67,0c-.81-1.66-3.36-5-10.66-4.2-8.47.92-11.85,13.47-3.26,21.89,7.76,7.61,13.14,10.3,14.1,10.75a.34.34,0,0,0,.31,0c1-.45,6.34-3.14,14.1-10.75C248,391.5,244.57,379,236.1,378Z"/></g><line x1="133.06" y1="318.31" x2="133.06" y2="324.31" id="Skre9UE1OMQ"/><line x1="133.06" y1="334.2" x2="133.06" y2="349.03" id="SJLg58N1OGX"/><polyline points="133.06 353.97 133.06 359.97 139.06 359.97" id="Hyvgc8NJdzm"/><line x1="150.64" y1="359.97" x2="237.55" y2="359.97" id="S1dgq8EyOGQ"/><line x1="243.35" y1="359.97" x2="249.35" y2="359.97" id="HkKl5LVJOzX"/><g id="Sy9gq8E1uGm_HyDdE1_zm" data-animator-group="true" data-animator-type="0"><g id="Sy9gq8E1uGm"><rect id="rJjlcLNyuMQ" x="61.65" y="118.63" width="141.91" height="200.07" rx="0.87" ry="0.87"/><g id="BJ2eqUNJdzm"><rect x="67.95" y="147.65" width="120.63" height="2.53" id="BJTl98NJOfQ"/><rect x="67.95" y="153.89" width="107.75" height="2.53" id="SJRlcLE1Oz7"/><rect x="90.52" y="128.97" width="44.92" height="3.81" rx="0.4" ry="0.4" id="BykZ9LEkdMm"/><rect x="90.52" y="136.14" width="31.3" height="1.96" rx="0.4" ry="0.4" id="r1xWcUV1uMX"/><path id="HJZ-9I4JOzX" d="M83.53,133.11c0,5.16-4.2,7.92-8.33,7.92a7.47,7.47,0,0,1-7.48-7.47c0-4.13,3-8.45,7.91-8.45A8.31,8.31,0,0,1,83.53,133.11Z"/><path id="BJz-9IEkdfX" d="M193.35,134.91a.87.87,0,0,0,.51-.79.76.76,0,0,0-.35-.65.85.85,0,0,0,.49-.66.86.86,0,0,0-.42-.85.59.59,0,0,0,.4-.59.91.91,0,0,0-.6-.8,20.82,20.82,0,0,0-2.66,0,.41.41,0,0,1,0-.16c.25-.77,1.31-3-.2-3.41a.54.54,0,0,0-.66.3,3.41,3.41,0,0,1-.08,1.17c-.21.6-1.26,1.16-1.74,2.05a3.81,3.81,0,0,0-.36.85,11,11,0,0,0-.11,3c0,1.95-.19,1.85,1.18,1.85h3.08c.37,0,.66,0,.9,0a.84.84,0,0,0,.8-.63.49.49,0,0,0-.21-.61Zm-7.1-4H185a.58.58,0,0,0-.58.58v4.13a.58.58,0,0,0,.58.58h1.22a.58.58,0,0,0,.58-.58v-4.13A.58.58,0,0,0,186.25,130.88Z"/></g><g id="BkQ-qI4ydM7"><rect id="ByEZ58NkuG7" x="68.18" y="163.72" width="128.76" height="127.08" rx="0.37" ry="0.37"/><g id="HyHW584J_fQ"><rect x="75.79" y="270.45" width="51.91" height="2.53" id="ByU-9841uMm"/><rect x="75.79" y="276.29" width="36.77" height="2.53" id="rJvZ9IEydzQ"/><g id="B1ObcLV1_fQ"><rect x="143.69" y="268.91" width="46.42" height="13.25" rx="0.92" ry="0.92" id="H1YWcI4y_zX"/><rect x="154.16" y="274.55" width="25.48" height="1.96" id="S1cZ5IVJuzm"/></g></g><path id="HyibcLV1uf7" d="M151.15,192.7H113.46a2.34,2.34,0,0,0-2.34,2.34v37.69a2.34,2.34,0,0,0,2.34,2.34h20.29V218.66h-5.52v-6.39h5.52v-4.72c0-5.47,3.35-8.45,8.23-8.45a44.68,44.68,0,0,1,4.93.25v5.72h-3.38c-2.66,0-3.17,1.26-3.17,3.11v4.09h6.33l-.83,6.39h-5.5v16.41h10.79a2.34,2.34,0,0,0,2.34-2.34V195A2.34,2.34,0,0,0,151.15,192.7Z"/></g><g id="Bk3-58Vk_MX"><rect x="83.48" y="302.36" width="16.84" height="2.53" id="Sya-cUEJuf7"/><rect x="127.04" y="302.36" width="18.76" height="2.53" id="rJRW5UEk_Mm"/><rect x="173.55" y="302.36" width="15.06" height="2.53" id="Sy1MqU4kuzQ"/><rect id="rJlM9841OM7" x="69.49" y="299.98" width="7.85" height="7.85" rx="0.12" ry="0.12"/><rect id="BkbG5LEJOMQ" data-name="img-2" x="112.99" y="299.98" width="7.85" height="7.85" rx="0.12" ry="0.12"/><rect id="rkfMc8V1uMQ" x="159.44" y="299.98" width="7.85" height="7.85" rx="0.12" ry="0.12"/></g></g></g><g id="rymM5IV1_zX"><g id="ByNf9L41_Gm"><g id="H1rM9IEydMm"><path d="M270.07,357.26a47.4,47.4,0,0,0-8.73,15.15c-1.59,5-.65,11.15,4,13.66,2.51,1.36,8.41,3.93,14.23,1.64C279.69,386,280.8,379.44,270.07,357.26Z" id="rJ8fc8V1ufm"/><path d="M351,413.72c27.47,10.06,30.09,2.35,32.95-8.11s10.87-34.67,17.41-52.33,6.54-46.43,6.54-48.4-11.77-10.46-14.14-10.46-31-5.89-36.87-11.77-11.53-33-11.53-33l-18.22,9.61-4.7,11A16.94,16.94,0,0,1,327.35,284s-7.12,6.77-14.38,10.14c-6.33,3-9.65,7.52-12.22,17.33-3.6,13.76-16.63,33.54-16.63,33.54L298,362.84l11.1-16.1,40.82-.65,23-14.85c-3.4,9.7-7.44,23.1-8.84,30.55-2,10.46-8.5,30.74-8.5,30.74-8.5-2-44.48-11.78-44.48-11.78" id="BywfqLVJOGQ"/><path d="M353.85,277.86c-4.65-9.77-8.49-28.23-8.49-28.23l-18.22,9.61-4.7,11a17.12,17.12,0,0,1,4.94,10.45,35.75,35.75,0,0,0,26.47-2.81Z" id="rk_f9L41_Mm"/><g id="r1tzqLV1ufX"><path d="M333.18,301s-3.27-.16-3.44,4.25,3.11,5.56,5.4,2.62S336.12,300.83,333.18,301Z" id="Hycz5L4k_fX"/><path d="M356.89,282.65c-4.74,10.3-16.35,21.09-23.87,20.27s-6.65-18-6.65-18" id="SJifqLVJuM7"/></g><g id="Syhz9IVy_Gm"><path d="M370,329.57" id="r1pMcI4yOfm"/><path d="M319.61,313.39c0,12.42,13.4,20.93,24.52,6.86s16.74-35,16.74-35l9.09,3.52s-12.62,15.84-9.09,27.58,12.05,14.88,12.05,14.88L365.72,401l-56.58-13.41,2-6.87c4.58-10.79,0-24.52-4.9-38.58s.65-23.88,5.88-30.75a33.22,33.22,0,0,0,6.27-13.75s.38-6.35,1.77-8.81l4.37-2.94S319.57,304.39,319.61,313.39Z" id="rkAMcIEkdG7"/></g><path d="M374.07,331.47c-2.16,10.66-3.88,24.31-5.59,29.66a208.9,208.9,0,0,0-6.82,27.47c-8.51-2-50.56-7.85-50.56-7.85l-9.34,13.7s15.33,8.3,49.24,19.27c27.84,9,30.09,2.35,32.95-8.11s10.87-34.67,17.41-52.33" id="HykX98Ey_MQ"/><path d="M372.92,331.24c1.37-3.94,2.64-7.27,3.59-9.35,0,0-4.68-.09-6.55,7.68Z" id="HyemcLE1_GQ"/><path d="M376.51,321.89a76.22,76.22,0,0,0-2.44,9.58" id="HJ-Q98NkuMX"/><g id="BkMXcUVJdMm"><path d="M267.48,343.66s1.41-1.58,2.32-1.71,27.06-.37,28.19,0,6.6,28,6.6,28Z" id="SJQX9IEydGQ"/><path d="M267.83,343.48a.53.53,0,0,0-.45.67l9.87,47.19a1,1,0,0,0,.93.83c3.68.22,19.61,1,28.09-1.22l-8.84-46.72a.87.87,0,0,0-.82-.7C293.15,343.46,277,343.19,267.83,343.48Z" id="rJ4XcL4yOz7"/><path d="M282.41,356.69s-3.71,2-1,6.83,9.65,2.45,9.25-2.89C290.28,355.93,285.56,354.58,282.41,356.69Z" id="rkr7c8EJuGQ"/></g></g><g id="B1LmcIVydfQ"><path d="M282,373.1s3.74-2.2,5.57-2.47a6.86,6.86,0,0,1,2.23,0,.3.3,0,0,1,.15.52l-3.88,3.52Z" id="HyPm9LEkOzX"/><path d="M289.38,370.7a16,16,0,0,0-1.45,1.35c-.27.35,0,.56,0,.56" id="SkdQqUV1_fm"/><path d="M300.32,373.77l-11.61-4.39s-8.61-1.85-10.29-2.16-3,2.92.21,4.26,7.86,2.86,7.86,2.86-4.57,3.47-1,5.87L289,382.6s-1.17,2.27-.3,2.93,6.09,4.44,6.09,4.44,10.31,7.38,16.15,8.56" id="SJYX5LVyuzQ"/><path d="M286.49,374.34s-4.57,3.47-1,5.87L289,382.6" id="H1cQcIN1_z7"/><path d="M297.61,379.84l12,12.67,11.11-5.88-7.45-6.6-13.52-16a3.6,3.6,0,0,0-1.75-1.14l-12.19-3.49a.49.49,0,0,0-.62.54,5.91,5.91,0,0,0,2.11,3.91,36.18,36.18,0,0,0,6.83,3.05,3.54,3.54,0,0,1,1.76,1.36l5.86,10.06Z" id="HJjQqUNy_M7"/><g id="S1275UEkOfm_SkFp8yuM7" data-animator-group="true" data-animator-type="1"><path id="S1275UEkOfm" d="M303.8,377.67s2.77-2.1.74-7.76l-1.65-7.78a18,18,0,0,1,4.54,5.07A28.94,28.94,0,0,1,310,373l6.13,11.14Z"/></g><path d="M285.93,360.8a16.85,16.85,0,0,0,1.88.59c.28,0,.84-.46,1-1.18" id="ByTmqUVkdzm"/><path d="M280.06,367.89a1.67,1.67,0,0,1-.74,1,6.69,6.69,0,0,1-2.27,0" id="BkC79841dM7"/><path d="M269.21,376s6-7.64,6.58-8.18,4-1.85,6-3.71a5.3,5.3,0,0,0,1.78-3.72.34.34,0,0,0-.43-.34c-2.09.55-10.38,3.63-10.38,3.63l-9.61,8.12Z" id="Bkk458EyOzm"/><path d="M280.63,361.13s.39.89.88.78c.31-.06,1.25-.36,1.88-.57" id="BJx49LN1_fQ"/><polygon points="282.01 371.55 271.54 374.34 273.02 380.74 286.14 372.92 282.01 371.55" id="SkW45LNkuzm"/><path d="M270.72,377.44l11-1.9s2,2.27,1.16,4l-.86,1.72a3.81,3.81,0,0,1,.12,4.4,5.2,5.2,0,0,1-2.44,1.92,12,12,0,0,1-3.93,1" id="ryfNq8NJOzm"/></g></g><g id="Hk745U4JdM7_rym6V1ufX" data-animator-group="true" data-animator-type="1"><g id="Hk745U4JdM7"><path id="H1NEcU4J_MQ" d="M290.14,210s-.31,11.14,10.19,14.41,17-5.17,17-5.17-3.69,7.93,3.44,12.67,12.6-.34,12.6-.34.72,12.61,14.3,11.77l2.87-.06s1.23,8.53,9.71,8.52c5.9,0,8.34-3,9.53-6.28,0,0,7.06,2.85,10.9-4.28a9.29,9.29,0,0,0-1.22-10.5s6.13,1.73,9.63-3.84A9.34,9.34,0,0,0,400,225.64c4.29-3.83,6.12-10.83-.75-16.68,0,0,15.06-7,8.63-22.33-4.92-11.73-16.64-9.29-16.64-9.29s6.65-6.35,2.36-16.43-15.81-7.44-15.81-7.44a16.16,16.16,0,0,0-.34-12.28c-2.95-6.18-10.78-8.28-10.78-8.28s6.07-10.85-7.1-17.89c0,0-2.15-7.3-9.26-6.43a10.2,10.2,0,0,0-8.81,6.61s-3.59-10.79-14.19-9.53-11.28,10.55-11.28,10.55-.74-9.93-13.71-9.69-12.6,13.72-12.6,13.72-14.14,4.51-19,15.31c0,0-7.72-2.7-14.44,5.66s-2.74,18.34-2.74,18.34S248,158,242.13,164.62s-5,20.6,2.5,23.37a21.43,21.43,0,0,0-9.21,19.07,20.12,20.12,0,0,0,11.14,17.24s-1.71,9.13,7,11.77c0,0-.8,11.24,11.51,12.06,0,0,2.11,7.2,8.48,8a10.18,10.18,0,0,0,8-2.32s7.85,10.85,17.1,1.63"/><g id="ryBE58V1OGQ_BksdHJuMQ" data-animator-group="true" data-animator-type="1"><ellipse id="ryBE58V1OGQ" cx="289.03" cy="268.66" rx="17.3" ry="5.5"/></g><path id="HkIV9IEJuMm" d="M281.69,229.7s4.65,27.26,18.89,41.87,20.36,13.14,37.56-2.12c12.84-11.4,20.41-28.25,5.7-65.3S271.57,190,281.69,229.7Z"/><g id="HyPVqIEkdfQ"><path d="M350.41,250.82a44.9,44.9,0,0,0,2.17-12.59l-14.48,1.33S349.55,253.39,350.41,250.82Z" id="ByuV5U4J_GX"/><path d="M353.6,233.35a99.88,99.88,0,0,0-2.14-17.42c-1.21.43-9.17,3.31-19.72,6.07a304.12,304.12,0,0,1-42.88-20,66.64,66.64,0,0,0-8.44,12.6,33.87,33.87,0,0,0-.62,11.82s.06.81.21,2.2h0c0,.29.07.6.11.93v0c0,.25.07.51.1.78v.09h0c.48,3.75.42,7,2.19,13.57,7.54-.47,21.32-.75,35.85-3.68,17,4.34,28.8,5.73,33.69,5.57a37.8,37.8,0,0,0,1.62-12.61Z" id="BJYN9UEy_Mm"/><path d="M285.19,251.53s6.15-7.64,19.9-14.65l-24.25.81Z" id="Hy9V9841_f7"/><path d="M278.53,240.43a.91.91,0,0,0,.93,1.15c6.1-.29,31.24-1.78,51.84-7.52l23.63-6.58a22,22,0,0,1-1.67-6.45c-.22-3.24-.72-11-1.82-10.61s-22.49,8.27-43.28,10.7-30.11.83-30.5,3.39C277.29,226.88,280.07,235.13,278.53,240.43Z" id="rkoE5IN1dM7"/><path d="M288.74,197.55s31.84,18.62,64.61,26.74c0,0,1.95-.07,1.58,3.19s3.06,12.65.41,15.05-23.64.21-79-17.74a.41.41,0,0,1-.18-.67,4.73,4.73,0,0,0,1.32-4.24C277,216.65,280.21,207.75,288.74,197.55Z" id="Sk2V5INJ_G7"/><path d="M282.68,205.89a45.63,45.63,0,0,0-4.3,8.75c.27.13,43.24,21.21,77.27,18.75-.14-.8-.29-1.59-.41-2.33h0C331.55,236.22,282.93,206.05,282.68,205.89Z" id="SkpV98Vy_z7"/></g><path id="rkCE9UE1uMQ" d="M359.69,236.34l-4.77.13c-13.57.84-14.29-11.77-14.29-11.77s-5.48,5.09-12.61.34-3.44-12.68-3.44-12.68-6.53,8.46-17,5.18-10.18-14.42-10.18-14.42c-4.7,7.85-14.18,4.61-14.18,4.61S287.88,222,267,224.36l-9.38-28.94,55.18-25.93,44.44,12.21,4.11,37.9Z"/><g id="By1rqI41OMQ_Bkp_U1OzX" data-animator-group="true" data-animator-type="1"><path id="By1rqI41OMQ" d="M340.49,244.82c2.65,2.4,5.47,7,7.48,12.67,3.23,9.1,3.13,17.44-.21,18.62s-8.67-5.23-11.9-14.32c-2.33-6.58-2.93-12.77-1.81-16.13"/></g><g id="rklSqLVJOzm"><path d="M370.48,143.42s12.42-2.19,16.94,4.17,10.19,7.74,10.68,1.37c.21-2.73-.62-3.45-1.65-3.38a2.46,2.46,0,0,0-1.85,3.71l.34.6" id="Hk-r5I4JdGm"/><path d="M262.56,139.17s-2.54-7.91,7.25-12.1,3.75-14.19.91-10.13" id="SyMrcLVyuzQ"/><path d="M255.48,232.43s-5.82-1.24-8.25,2.78,6.77,7.75,5,4.54-7.61,1.57-8.57,5.43c-.89,3.58-3.92,2.45-3.41.09" id="SkXBcLEy_zX"/><path d="M332.44,264.14c-1.95,3.3,5.87,3.9,1.95-3.3s3-9.66,1.5-4.83-11.45,1.55-6-5,7.88,3.46,1.8-.89.07-10,.07-10" id="HkNSqU4yuGX"/><path d="M358.67,124.78s12.75,1.8,9.26-5.53-7.28,4.71,4.78,2.65,1.66-12.37-.26-9.5,8.39,5.61,8.28,1.46" id="HySS5UEJOzX"/><path d="M249.35,168.73s-16.6,3.22-9.13,10.83,7-9-7.07-1.24,3.23,16.07,4.38,11.67-12.81-3.37-10.89,1.74" id="HyLBcIEyufQ"/><path d="M376.26,229.65s11.59,1.24,8.16,4.73c-9.1,9.25,12.75-5.55,4.91,3.12s.15,5.21.15,5.21" id="H1vH9IEk_Mm"/></g></g></g></g><script>(function(){var a=document.querySelector('#rJ5LVJ_zm'),b=a.querySelectorAll('style'),c=function(d){b.forEach(function(f){var g=f.textContent;g&amp;&amp;(f.textContent=g.replace(/transform-box:[^;\r\n]*/gi,'transform-box: '+d))})};c('initial'),window.requestAnimationFrame(function(){return c('fill-box')})})();</script></svg>