<?xml version="1.0" encoding="utf-8"?>
<!-- Generator: Adobe Illustrator 21.1.0, SVG Export Plug-In . SVG Version: 6.00 Build 0)  -->
<svg version="1.1" id="Layer_1" xmlns="http://www.w3.org/2000/svg" xmlns:xlink="http://www.w3.org/1999/xlink" x="0px" y="0px"
	 viewBox="0 0 99 105.5" style="enable-background:new 0 0 99 105.5;" xml:space="preserve">
<style type="text/css">
	.st0{fill:#FF3366;}
</style>
<title>Img</title>
<path class="st0" d="M0,93V23.7c0-2,1.6-3.6,3.5-3.7c2,0,3.6,1.6,3.6,3.6l0,0v65.2l56.5-32.6c1.7-1,3.9-0.4,4.9,1.3
	c1,1.7,0.4,3.9-1.3,4.9l0,0l0,0L7.1,97c-2.3,1.3-5.2,0.5-6.5-1.8C0.2,94.5,0,93.8,0,93z"/>
<path class="st0" d="M15.4,77.8c-2-0.1-3.5-1.7-3.5-3.7V4.8C11.9,2.1,14,0,16.6,0c0.8,0,1.7,0.2,2.4,0.6l60.1,34.9
	c1.7,1,2.3,3.1,1.4,4.9c-1,1.7-3.1,2.3-4.9,1.4c0,0-0.1,0-0.1,0l0,0L19,9v65.2c0,2-1.6,3.6-3.5,3.6c0,0,0,0,0,0H15.4z"/>
<path class="st0" d="M27.5,98.6c-1.3,0-2.6-0.6-3.2-1.8c-1-1.7-0.4-3.9,1.3-4.9h0.1l56.6-32.6L25.7,26.6c-1.7-0.9-2.4-3.1-1.5-4.8
	l0-0.1c1-1.7,3.2-2.3,4.9-1.3l60.2,34.6c2.3,1.3,3,4.2,1.7,6.5c-0.4,0.7-1,1.3-1.7,1.7L29.3,98.1C28.7,98.4,28.1,98.6,27.5,98.6z"/>
</svg>
