<svg id="ryfrRSTg7" xmlns="http://www.w3.org/2000/svg" xmlns:xlink="http://www.w3.org/1999/xlink" viewBox="0 0 480 480"><style>@-webkit-keyframes SkLl7H0ralX_SyYzsEeb7_Animation{57.50%{-webkit-transform: rotate(0deg);transform: rotate(0deg);}62.50%{-webkit-transform: rotate(20deg);transform: rotate(20deg);}67.50%{-webkit-transform: rotate(0deg);transform: rotate(0deg);}72.50%{-webkit-transform: rotate(15deg);transform: rotate(15deg);}77.50%{-webkit-transform: rotate(0deg);transform: rotate(0deg);}}@keyframes SkLl7H0ralX_SyYzsEeb7_Animation{57.50%{-webkit-transform: rotate(0deg);transform: rotate(0deg);}62.50%{-webkit-transform: rotate(20deg);transform: rotate(20deg);}67.50%{-webkit-transform: rotate(0deg);transform: rotate(0deg);}72.50%{-webkit-transform: rotate(15deg);transform: rotate(15deg);}77.50%{-webkit-transform: rotate(0deg);transform: rotate(0deg);}}@-webkit-keyframes BJYZ7S0S6em_r1IGWITe7_Animation{47.50%{-webkit-transform: rotate(0deg);transform: rotate(0deg);}50%{-webkit-transform: rotate(8deg);transform: rotate(8deg);}52.50%{-webkit-transform: rotate(-5deg);transform: rotate(-5deg);}55.00%{-webkit-transform: rotate(0deg);transform: rotate(0deg);}}@keyframes BJYZ7S0S6em_r1IGWITe7_Animation{47.50%{-webkit-transform: rotate(0deg);transform: rotate(0deg);}50%{-webkit-transform: rotate(8deg);transform: rotate(8deg);}52.50%{-webkit-transform: rotate(-5deg);transform: rotate(-5deg);}55.00%{-webkit-transform: rotate(0deg);transform: rotate(0deg);}}@-webkit-keyframes ryyW7SCrpg7_H1xOl8plm_Animation{47.50%{-webkit-transform: rotate(0deg);transform: rotate(0deg);}50%{-webkit-transform: rotate(8deg);transform: rotate(8deg);}52.50%{-webkit-transform: rotate(-8deg);transform: rotate(-8deg);}55.00%{-webkit-transform: rotate(0deg);transform: rotate(0deg);}}@keyframes ryyW7SCrpg7_H1xOl8plm_Animation{47.50%{-webkit-transform: rotate(0deg);transform: rotate(0deg);}50%{-webkit-transform: rotate(8deg);transform: rotate(8deg);}52.50%{-webkit-transform: rotate(-8deg);transform: rotate(-8deg);}55.00%{-webkit-transform: rotate(0deg);transform: rotate(0deg);}}@-webkit-keyframes rkpgQrCB6g7_ryznCSagm_Animation{10%{-webkit-transform: rotate(0deg);transform: rotate(0deg);}17.50%{-webkit-transform: rotate(4deg);transform: rotate(4deg);}37.50%{-webkit-transform: rotate(4deg);transform: rotate(4deg);}45%{-webkit-transform: rotate(0deg);transform: rotate(0deg);}47.50%{-webkit-transform: rotate(3deg);transform: rotate(3deg);}50%{-webkit-transform: rotate(NaNdeg);transform: rotate(NaNdeg);}0%{-webkit-transform: rotate(0deg);transform: rotate(0deg);}100%{-webkit-transform: rotate(NaNdeg);transform: rotate(NaNdeg);}}@keyframes rkpgQrCB6g7_ryznCSagm_Animation{10%{-webkit-transform: rotate(0deg);transform: rotate(0deg);}17.50%{-webkit-transform: rotate(4deg);transform: rotate(4deg);}37.50%{-webkit-transform: rotate(4deg);transform: rotate(4deg);}45%{-webkit-transform: rotate(0deg);transform: rotate(0deg);}47.50%{-webkit-transform: rotate(3deg);transform: rotate(3deg);}50%{-webkit-transform: rotate(NaNdeg);transform: rotate(NaNdeg);}0%{-webkit-transform: rotate(0deg);transform: rotate(0deg);}100%{-webkit-transform: rotate(NaNdeg);transform: rotate(NaNdeg);}}@-webkit-keyframes rkdWMSCS6lQ_r1E_RrTe7_Animation{0%{-webkit-transform: translate(0px, 0px);transform: translate(0px, 0px);}25%{-webkit-transform: translate(0px, -8px);transform: translate(0px, -8px);}75%{-webkit-transform: translate(0px, 5px);transform: translate(0px, 5px);}100%{-webkit-transform: translate(0px, 0px);transform: translate(0px, 0px);}}@keyframes rkdWMSCS6lQ_r1E_RrTe7_Animation{0%{-webkit-transform: translate(0px, 0px);transform: translate(0px, 0px);}25%{-webkit-transform: translate(0px, -8px);transform: translate(0px, -8px);}75%{-webkit-transform: translate(0px, 5px);transform: translate(0px, 5px);}100%{-webkit-transform: translate(0px, 0px);transform: translate(0px, 0px);}}@-webkit-keyframes HygMSCr6xQ_Animation{0%{opacity: 0;}100%{opacity: 0;}}@keyframes HygMSCr6xQ_Animation{0%{opacity: 0;}100%{opacity: 0;}}#ryfrRSTg7 *{-webkit-animation-duration: 4s;animation-duration: 4s;-webkit-animation-iteration-count: infinite;animation-iteration-count: infinite;-webkit-animation-timing-function: cubic-bezier(0, 0, 1, 1);animation-timing-function: cubic-bezier(0, 0, 1, 1);}#BJ-Mr0rTlQ{opacity: 0;}#rkQfBAHpxX{fill: #fbebeb;}#B1SGHCSTgQ{fill: #f2e2e8;}#Sk8fHRrplm{fill: #f2e2e8;}#rJwGHASaeX{stroke-linecap: round;stroke: #f7d7de;stroke-width: 1.92px;stroke-linejoin: round;fill: url(#New_Pattern_Swatch_4);visibility: hidden;}#r1dGBCHpxm{fill: #f2e2e8;}#H1YGBRSpl7{stroke-linecap: round;stroke: #f7d7de;stroke-width: 1.92px;stroke-linejoin: round;fill: url(#New_Pattern_Swatch_4-3);visibility: hidden;}#rJ5GS0HTlm{fill: url(#New_Pattern_Swatch_4-5);visibility: hidden;}#H1sGH0Bpx7{fill: #f7d7de;}#Sy3fr0HagX{fill: #fff;}#H16fHAB6gX{fill: #fff;}#rkAMSRB6eX{fill: #fff;}#B1kxfrAHpx7{fill: #f7d7de;}#ryxeGSRHTl7{fill: #f7d7de;}#B1-gGBRr6gm{fill: #f7d7de;}#SJzgMBRBagm{fill: #f7d7de;}#B17ezrRrpxm{fill: none;stroke: #fff;stroke-miterlimit: 10;stroke-width: 2px;}#SJNxGBArTxQ{fill: none;stroke: #fff;stroke-miterlimit: 10;stroke-width: 2px;}#rJBgGrABpl7{fill: none;stroke: #fff;stroke-miterlimit: 10;stroke-width: 2px;}#Hk8eGB0HTx7{fill: none;stroke: #fff;stroke-miterlimit: 10;stroke-width: 2px;}#ByvxGSCSpxm{fill: none;stroke: #fff;stroke-miterlimit: 10;stroke-width: 2px;}#rydxfrRSplm{fill: #f7d7de;}#HJYxzBCHTem{fill: #f7d7de;}#H19eGSCHpgX{fill: #fff;}#S1jgMSRHTg7{fill: #fff;}#ry2lGBRSTe7{fill: #fff;}#SkpxfS0Spx7{fill: #f7d7de;}#HkRgMBRBTgm{fill: #f7d7de;}#B1yZGS0rpem{fill: #f7d7de;}#rkg-MrCBpeQ{stroke-linecap: round;stroke: #f7d7de;stroke-width: 1.92px;stroke-linejoin: round;fill: url(#New_Pattern_Swatch_4-7);}#SyZZGBCrpem{fill: url(#New_Pattern);visibility: hidden;}#SJG-GBCBagm{fill: #f7d7de;}#r17-fB0Bpem{fill: none;stroke-linecap: round;stroke-width: 2px;stroke-linejoin: round;stroke: #1f2e3a;}#BJEbzBCB6eQ{fill: none;stroke-linecap: round;stroke-width: 2px;stroke-linejoin: round;stroke: #1f2e3a;stroke-dasharray: 9.87 9.87;}#HJHZfSCBpl7{fill: none;stroke-linecap: round;stroke-width: 2px;stroke-linejoin: round;stroke: #1f2e3a;}#SJIZMS0r6lm{fill: none;stroke-linecap: round;stroke-width: 2px;stroke-linejoin: round;stroke: #1f2e3a;stroke-dasharray: 11.66 11.66;}#r1DWfH0BpeX{fill: none;stroke-linecap: round;stroke-width: 2px;stroke-linejoin: round;stroke: #1f2e3a;visibility: hidden;}#BkFWMHABpx7{fill: #101a21;}#H15ZGB0Bax7{fill: #1f2e3a;}#SyoZGSRBpxX{fill: #f36;}#B13bGHCBax7{fill: #5c6e7e;}#Hk6ZfSCrTem{fill: #5c6e7e;}#Hk0bGr0rTeX{fill: #5c6e7e;}#BykGGr0rpxX{fill: #fff;}#rylfMHRBaem{fill: #abb2bc;}#BJbfGHAHaeQ{fill: #abb2bc;}#H1GGzrCr6l7{fill: #abb2bc;}#HyQGfSCBaxX{fill: #fff;}#Sk4zzHRS6lX{fill: none;stroke: #fff;stroke-miterlimit: 10;}#rJBMGB0raxm{fill: none;stroke-linejoin: round;stroke: #5c6e7e;}#r1LGGr0rplm{fill: none;stroke-linejoin: round;stroke: #5c6e7e;}#r1vfMSASTl7{fill: none;stroke-linejoin: round;stroke: #5c6e7e;}#S1_zfS0H6lQ{fill: none;stroke-linejoin: round;stroke: #5c6e7e;}#ryFzGrCB6e7{fill: none;stroke-linejoin: round;stroke: #5c6e7e;}#rJ9zfSAHpl7{fill: #fff;}#Bkmr0SaxX{fill: #fff;}#BJxmBRBpeX{fill: #fff;}#H17mr0H6em{fill: #1f2e3a;}#ryN7H0raxm{fill: #101a21;}#HkLXBAB6x7{fill: #ee9822;}#SyPXSRHTlQ{fill: none;stroke-linecap: round;stroke-miterlimit: 10;stroke: #ee9822;}#BkumSArpgQ{fill: #fff;}#rJcmB0S6lX{fill: #101a21;}#rks7rRHTlX{fill: #1f2e3a;}#B1aQBRBTe7{fill: #1f2e3a;}#SJAQBRHTxQ{fill: #1f2e3a;}#H11eQH0rpeX{fill: none;stroke-linecap: round;stroke-miterlimit: 10;stroke: #35495e;stroke-width: 0.5px;}#Hy-eXHCBag7{fill: #aab2bc;}#SkzeQB0Hae7{fill: #808e9b;}#ByQlQHCrpxQ{fill: #1f2e3a;}#HJVxXSRSag7{fill: none;stroke-linecap: round;stroke-miterlimit: 10;stroke: #35495e;stroke-width: 0.5px;}#BJrlQrCr6em{fill: #1f2e3a;}#SkLl7H0ralX{fill: #1f2e3a;}#B1Dl7S0HTe7{fill: none;stroke-linecap: round;stroke-miterlimit: 10;stroke: #35495e;stroke-width: 0.5px;}#HkuxXSASagX{fill: none;stroke-linecap: round;stroke-miterlimit: 10;stroke: #35495e;stroke-width: 0.5px;}#S1Kg7HAHpxQ{fill: #1f2e3a;}#Bk9xXrCrTgQ{fill: none;stroke-linecap: round;stroke-miterlimit: 10;stroke: #35495e;stroke-width: 0.5px;}#B1ogQH0rTgQ{fill: #1f2e3a;}#BJnemBRS6e7{fill: #1f2e3a;}#rkAxmBAH6eQ{fill: #191718;}#ryyW7SCrpg7{fill: none;stroke-miterlimit: 10;stroke: #ee9822;-webkit-transform:  matrix(0.14, -0.99, 0.99, 0.14, -19.41, 517.95);transform:  matrix(0.14, -0.99, 0.99, 0.14, -19.41, 517.95);}#Ske-mSCBTeX{fill: #1f2e3a;}#ryWbXrCBaxQ{fill: #101a21;opacity: 0.5;}#BkM-7H0Hplm{fill: #101a21;opacity: 0.5;}#SJX-QHCSTgX{fill: none;stroke-miterlimit: 10;stroke: #101a21;}#r1VbmH0HTeX{fill: #191718;}#ryrWXSRBagX{fill: #35495e;}#SJIZmSCSTlX{fill: #5c6e7e;}#HkP-XHABpg7{fill: #35495e;}#ryd-7r0B6g7{fill: #191718;}#BJYZ7S0S6em{fill: none;stroke-linecap: round;stroke-miterlimit: 10;stroke: #ee9822;}#HycWXrRHaxm{fill: none;stroke-linecap: round;stroke-miterlimit: 10;stroke: #191718;}#BJjbXrRBagm{fill: none;stroke-linecap: round;stroke-miterlimit: 10;stroke: #191718;}#Hy3-7HAHaxm{fill: none;stroke-linecap: round;stroke-miterlimit: 10;stroke: #191718;}#Sya-mHAHTl7{fill: none;stroke-linecap: round;stroke-miterlimit: 10;stroke: #191718;}#S1A-XSRB6gm{fill: none;stroke-linecap: round;stroke-miterlimit: 10;stroke: #191718;}#r11GXSCHplQ{fill: none;stroke-linecap: round;stroke-miterlimit: 10;stroke: #191718;}#rygzmSASpgX{fill: none;stroke-linecap: round;stroke-miterlimit: 10;stroke: #191718;}#HygMSCr6xQ{-webkit-animation-name: HygMSCr6xQ_Animation;animation-name: HygMSCr6xQ_Animation;-webkit-transform-origin: 50% 50%;transform-origin: 50% 50%;transform-box: fill-box;}#rkdWMSCS6lQ_r1E_RrTe7{-webkit-animation-name: rkdWMSCS6lQ_r1E_RrTe7_Animation;animation-name: rkdWMSCS6lQ_r1E_RrTe7_Animation;-webkit-transform-origin: 50% 50%;transform-origin: 50% 50%;transform-box: fill-box;}#rkpgQrCB6g7_ryznCSagm{-webkit-animation-name: rkpgQrCB6g7_ryznCSagm_Animation;animation-name: rkpgQrCB6g7_ryznCSagm_Animation;-webkit-transform-origin: 50% 50%;transform-origin: 50% 50%;transform-box: fill-box;}#ryyW7SCrpg7_H1xOl8plm{-webkit-animation-name: ryyW7SCrpg7_H1xOl8plm_Animation;animation-name: ryyW7SCrpg7_H1xOl8plm_Animation;-webkit-transform-origin: 50% 50%;transform-origin: 50% 50%;transform-box: fill-box;}#BJYZ7S0S6em_r1IGWITe7{-webkit-animation-name: BJYZ7S0S6em_r1IGWITe7_Animation;animation-name: BJYZ7S0S6em_r1IGWITe7_Animation;-webkit-transform-origin: 50% 50%;transform-origin: 50% 50%;transform-box: fill-box;}#SkLl7H0ralX_SyYzsEeb7{-webkit-animation-name: SkLl7H0ralX_SyYzsEeb7_Animation;animation-name: SkLl7H0ralX_SyYzsEeb7_Animation;-webkit-transform-origin: 50% 50%;transform-origin: 50% 50%;transform-box: fill-box;}</style><defs><pattern id="New_Pattern_Swatch_4" data-name="New Pattern Swatch 4" width="9" height="9" patternTransform="matrix(0.31, -1.17, -1.17, -0.31, 157.71, 305.18)" patternUnits="userSpaceOnUse" viewBox="0 0 9 9"><rect class="cls-1" width="9" height="9"/><path class="cls-1" d="M7.65,9H1.35A1.34,1.34,0,0,0,0,7.65V1.35A1.34,1.34,0,0,0,1.35,0h6.3A1.34,1.34,0,0,0,9,1.35v6.3A1.34,1.34,0,0,0,7.65,9ZM5.85,4.5A1.35,1.35,0,1,0,4.5,5.85,1.34,1.34,0,0,0,5.85,4.5Z"/><path class="cls-3" d="M1.35,0H0V1.35A1.34,1.34,0,0,0,1.35,0Z"/><path class="cls-3" d="M9,1.35V0H7.65A1.34,1.34,0,0,0,9,1.35Z"/><circle class="cls-3" cx="4.5" cy="4.5" r="1.35"/><path class="cls-3" d="M0,7.65V9H1.35A1.34,1.34,0,0,0,0,7.65Z"/><path class="cls-3" d="M9,7.65A1.34,1.34,0,0,0,7.65,9H9Z"/></pattern><pattern id="New_Pattern_Swatch_4-3" data-name="New Pattern Swatch 4" width="9" height="9" patternTransform="translate(-182.98 -8.25) rotate(-60) scale(1.22)" patternUnits="userSpaceOnUse" viewBox="0 0 9 9"><rect class="cls-1" width="9" height="9"/><path class="cls-1" d="M7.65,9H1.35A1.34,1.34,0,0,0,0,7.65V1.35A1.34,1.34,0,0,0,1.35,0h6.3A1.34,1.34,0,0,0,9,1.35v6.3A1.34,1.34,0,0,0,7.65,9ZM5.85,4.5A1.35,1.35,0,1,0,4.5,5.85,1.34,1.34,0,0,0,5.85,4.5Z"/><path class="cls-3" d="M1.35,0H0V1.35A1.34,1.34,0,0,0,1.35,0Z"/><path class="cls-3" d="M9,1.35V0H7.65A1.34,1.34,0,0,0,9,1.35Z"/><circle class="cls-3" cx="4.5" cy="4.5" r="1.35"/><path class="cls-3" d="M0,7.65V9H1.35A1.34,1.34,0,0,0,0,7.65Z"/><path class="cls-3" d="M9,7.65A1.34,1.34,0,0,0,7.65,9H9Z"/></pattern><pattern id="New_Pattern_Swatch_4-5" data-name="New Pattern Swatch 4" width="9" height="9" patternTransform="translate(-57.82 369.37) rotate(165) scale(1.22)" patternUnits="userSpaceOnUse" viewBox="0 0 9 9"><rect class="cls-1" width="9" height="9"/><path class="cls-1" d="M7.65,9H1.35A1.34,1.34,0,0,0,0,7.65V1.35A1.34,1.34,0,0,0,1.35,0h6.3A1.34,1.34,0,0,0,9,1.35v6.3A1.34,1.34,0,0,0,7.65,9ZM5.85,4.5A1.35,1.35,0,1,0,4.5,5.85,1.34,1.34,0,0,0,5.85,4.5Z"/><path class="cls-3" d="M1.35,0H0V1.35A1.34,1.34,0,0,0,1.35,0Z"/><path class="cls-3" d="M9,1.35V0H7.65A1.34,1.34,0,0,0,9,1.35Z"/><circle class="cls-3" cx="4.5" cy="4.5" r="1.35"/><path class="cls-3" d="M0,7.65V9H1.35A1.34,1.34,0,0,0,0,7.65Z"/><path class="cls-3" d="M9,7.65A1.34,1.34,0,0,0,7.65,9H9Z"/></pattern><pattern id="New_Pattern_Swatch_4-7" data-name="New Pattern Swatch 4" width="9" height="9" patternTransform="translate(-190.36 0.69) rotate(-60) scale(1.22)" patternUnits="userSpaceOnUse" viewBox="0 0 9 9"><rect class="cls-1" width="9" height="9"/><path class="cls-1" d="M7.65,9H1.35A1.34,1.34,0,0,0,0,7.65V1.35A1.34,1.34,0,0,0,1.35,0h6.3A1.34,1.34,0,0,0,9,1.35v6.3A1.34,1.34,0,0,0,7.65,9ZM5.85,4.5A1.35,1.35,0,1,0,4.5,5.85,1.34,1.34,0,0,0,5.85,4.5Z"/><path class="cls-3" d="M1.35,0H0V1.35A1.34,1.34,0,0,0,1.35,0Z"/><path class="cls-3" d="M9,1.35V0H7.65A1.34,1.34,0,0,0,9,1.35Z"/><circle class="cls-3" cx="4.5" cy="4.5" r="1.35"/><path class="cls-3" d="M0,7.65V9H1.35A1.34,1.34,0,0,0,0,7.65Z"/><path class="cls-3" d="M9,7.65A1.34,1.34,0,0,0,7.65,9H9Z"/></pattern><pattern id="New_Pattern" data-name="New Pattern" width="137" height="132" patternTransform="matrix(-0.61, 1.05, -1.05, -0.61, -523.3, 673.2)" patternUnits="userSpaceOnUse" viewBox="0 0 137 132"><rect class="cls-1" width="137" height="132"/><line class="cls-2" x1="20.48" y1="138.73" x2="30.76" y2="128.46"/><line class="cls-2" x1="40.01" y1="138.73" x2="50.28" y2="128.46"/><line class="cls-2" x1="59.97" y1="138.73" x2="70.24" y2="128.46"/><line class="cls-2" x1="79.5" y1="138.73" x2="89.77" y2="128.46"/><line class="cls-2" x1="99.15" y1="138.73" x2="109.42" y2="128.46"/><line class="cls-2" x1="118.67" y1="138.73" x2="128.94" y2="128.46"/><line class="cls-2" x1="130.22" y1="27.73" x2="140.49" y2="17.46"/><line class="cls-2" x1="130.22" y1="38" x2="140.49" y2="27.73"/><line class="cls-2" x1="135.31" y1="43.13" x2="145.59" y2="32.86"/><line class="cls-2" x1="135.88" y1="53.86" x2="146.15" y2="43.59"/><line class="cls-2" x1="127.41" y1="74.41" x2="137.69" y2="64.14"/><line class="cls-2" x1="127.43" y1="85.14" x2="137.7" y2="74.87"/><line class="cls-2" x1="133" y1="90.27" x2="143.27" y2="80"/><line class="cls-2" x1="134.35" y1="99.96" x2="144.62" y2="89.69"/><line class="cls-2" x1="126.21" y1="131.07" x2="136.48" y2="120.8"/><line class="cls-2" x1="131.78" y1="136.2" x2="142.05" y2="125.93"/><line class="cls-2" x1="6.09" y1="11.86" x2="16.36" y2="1.59"/><line class="cls-2" x1="20.48" y1="6.73" x2="30.76" y2="-3.54"/><line class="cls-2" x1="25.62" y1="11.86" x2="35.89" y2="1.59"/><line class="cls-2" x1="40.01" y1="6.73" x2="50.28" y2="-3.54"/><line class="cls-2" x1="6.66" y1="22.59" x2="16.93" y2="12.32"/><line class="cls-2" x1="11.79" y1="27.73" x2="22.07" y2="17.46"/><line class="cls-2" x1="-6.78" y1="27.73" x2="3.49" y2="17.46"/><line class="cls-2" x1="26.19" y1="22.59" x2="36.46" y2="12.32"/><line class="cls-2" x1="45.58" y1="11.86" x2="55.85" y2="1.59"/><line class="cls-2" x1="59.97" y1="6.73" x2="70.24" y2="-3.54"/><line class="cls-2" x1="65.11" y1="11.86" x2="75.38" y2="1.59"/><line class="cls-2" x1="79.5" y1="6.73" x2="89.77" y2="-3.54"/><line class="cls-2" x1="31.76" y1="27.73" x2="42.03" y2="17.46"/><line class="cls-2" x1="46.15" y1="22.59" x2="56.42" y2="12.32"/><line class="cls-2" x1="51.28" y1="27.73" x2="61.55" y2="17.46"/><line class="cls-2" x1="65.68" y1="22.59" x2="75.95" y2="12.32"/><line class="cls-2" x1="84.75" y1="11.86" x2="95.02" y2="1.59"/><line class="cls-2" x1="99.15" y1="6.73" x2="109.42" y2="-3.54"/><line class="cls-2" x1="104.28" y1="11.86" x2="114.55" y2="1.59"/><line class="cls-2" x1="118.67" y1="6.73" x2="128.94" y2="-3.54"/><line class="cls-2" x1="70.93" y1="27.73" x2="81.2" y2="17.46"/><line class="cls-2" x1="85.32" y1="22.59" x2="95.59" y2="12.32"/><line class="cls-2" x1="90.46" y1="27.73" x2="100.73" y2="17.46"/><line class="cls-2" x1="104.85" y1="22.59" x2="115.12" y2="12.32"/><line class="cls-2" x1="124.24" y1="11.86" x2="134.51" y2="1.59"/><line class="cls-2" x1="110.42" y1="27.73" x2="120.69" y2="17.46"/><line class="cls-2" x1="124.81" y1="22.59" x2="135.08" y2="12.32"/><line class="cls-2" x1="12.58" y1="38" x2="22.86" y2="27.73"/><line class="cls-2" x1="17.72" y1="43.13" x2="27.99" y2="32.86"/><line class="cls-2" x1="32.11" y1="38" x2="42.38" y2="27.73"/><line class="cls-2" x1="-6.78" y1="38" x2="3.49" y2="27.73"/><line class="cls-2" x1="18.29" y1="53.86" x2="28.56" y2="43.59"/><line class="cls-2" x1="37.68" y1="43.13" x2="47.95" y2="32.86"/><line class="cls-2" x1="52.07" y1="38" x2="62.34" y2="27.73"/><line class="cls-2" x1="57.21" y1="43.13" x2="67.48" y2="32.86"/><line class="cls-2" x1="71.6" y1="38" x2="81.87" y2="27.73"/><line class="cls-2" x1="23.86" y1="59" x2="34.13" y2="48.73"/><line class="cls-2" x1="38.25" y1="53.86" x2="48.52" y2="43.59"/><line class="cls-2" x1="43.38" y1="59" x2="53.65" y2="48.73"/><line class="cls-2" x1="57.78" y1="53.86" x2="68.05" y2="43.59"/><line class="cls-2" x1="76.85" y1="43.13" x2="87.12" y2="32.86"/><line class="cls-2" x1="91.25" y1="38" x2="101.52" y2="27.73"/><line class="cls-2" x1="96.38" y1="43.13" x2="106.65" y2="32.86"/><line class="cls-2" x1="110.77" y1="38" x2="121.04" y2="27.73"/><line class="cls-2" x1="63.03" y1="59" x2="73.3" y2="48.73"/><line class="cls-2" x1="77.42" y1="53.86" x2="87.69" y2="43.59"/><line class="cls-2" x1="82.56" y1="59" x2="92.83" y2="48.73"/><line class="cls-2" x1="96.95" y1="53.86" x2="107.22" y2="43.59"/><line class="cls-2" x1="116.34" y1="43.13" x2="126.61" y2="32.86"/><line class="cls-2" x1="102.52" y1="59" x2="112.79" y2="48.73"/><line class="cls-2" x1="116.91" y1="53.86" x2="127.18" y2="43.59"/><line class="cls-2" x1="122.04" y1="59" x2="132.32" y2="48.73"/><line class="cls-2" x1="4.68" y1="69.27" x2="14.95" y2="59"/><line class="cls-2" x1="9.82" y1="74.41" x2="20.09" y2="64.14"/><line class="cls-2" x1="-1.69" y1="43.13" x2="8.59" y2="32.86"/><line class="cls-2" x1="-1.12" y1="53.86" x2="9.15" y2="43.59"/><line class="cls-2" x1="4.45" y1="59" x2="14.72" y2="48.73"/><line class="cls-2" x1="-9.59" y1="74.41" x2="0.69" y2="64.14"/><line class="cls-2" x1="24.21" y1="69.27" x2="34.48" y2="59"/><line class="cls-2" x1="10.39" y1="85.14" x2="20.66" y2="74.87"/><line class="cls-2" x1="29.78" y1="74.41" x2="40.05" y2="64.14"/><line class="cls-2" x1="44.17" y1="69.27" x2="54.44" y2="59"/><line class="cls-2" x1="49.31" y1="74.41" x2="59.58" y2="64.14"/><line class="cls-2" x1="63.7" y1="69.27" x2="73.97" y2="59"/><line class="cls-2" x1="15.95" y1="90.27" x2="26.23" y2="80"/><line class="cls-2" x1="-9.57" y1="85.14" x2="0.7" y2="74.87"/><line class="cls-2" x1="-4" y1="90.27" x2="6.27" y2="80"/><line class="cls-2" x1="30.35" y1="85.14" x2="40.62" y2="74.87"/><line class="cls-2" x1="35.48" y1="90.27" x2="45.75" y2="80"/><line class="cls-2" x1="49.88" y1="85.14" x2="60.15" y2="74.87"/><line class="cls-2" x1="68.95" y1="74.41" x2="79.22" y2="64.14"/><line class="cls-2" x1="83.35" y1="69.27" x2="93.62" y2="59"/><line class="cls-2" x1="88.48" y1="74.41" x2="98.75" y2="64.14"/><line class="cls-2" x1="102.87" y1="69.27" x2="113.14" y2="59"/><line class="cls-2" x1="55.13" y1="90.27" x2="65.4" y2="80"/><line class="cls-2" x1="69.52" y1="85.14" x2="79.79" y2="74.87"/><line class="cls-2" x1="74.66" y1="90.27" x2="84.93" y2="80"/><line class="cls-2" x1="89.05" y1="85.14" x2="99.32" y2="74.87"/><line class="cls-2" x1="108.44" y1="74.41" x2="118.71" y2="64.14"/><line class="cls-2" x1="122.83" y1="69.27" x2="133.1" y2="59"/><line class="cls-2" x1="94.62" y1="90.27" x2="104.89" y2="80"/><line class="cls-2" x1="109.01" y1="85.14" x2="119.28" y2="74.87"/><line class="cls-2" x1="114.14" y1="90.27" x2="124.42" y2="80"/><line class="cls-2" x1="1.92" y1="105.68" x2="12.19" y2="95.41"/><line class="cls-2" x1="-2.65" y1="99.96" x2="7.62" y2="89.69"/><line class="cls-2" x1="16.31" y1="100.54" x2="26.58" y2="90.27"/><line class="cls-2" x1="2.49" y1="116.41" x2="12.76" y2="106.14"/><line class="cls-2" x1="21.88" y1="105.68" x2="32.15" y2="95.41"/><line class="cls-2" x1="36.27" y1="100.54" x2="46.54" y2="90.27"/><line class="cls-2" x1="41.41" y1="105.68" x2="51.68" y2="95.41"/><line class="cls-2" x1="55.8" y1="100.54" x2="66.07" y2="90.27"/><line class="cls-2" x1="8.05" y1="121.54" x2="18.33" y2="111.27"/><line class="cls-2" x1="22.45" y1="116.41" x2="32.72" y2="106.14"/><line class="cls-2" x1="27.58" y1="121.54" x2="37.85" y2="111.27"/><line class="cls-2" x1="41.98" y1="116.41" x2="52.25" y2="106.14"/><line class="cls-2" x1="61.05" y1="105.68" x2="71.32" y2="95.41"/><line class="cls-2" x1="75.45" y1="100.54" x2="85.72" y2="90.27"/><line class="cls-2" x1="80.58" y1="105.68" x2="90.85" y2="95.41"/><line class="cls-2" x1="94.97" y1="100.54" x2="105.24" y2="90.27"/><line class="cls-2" x1="47.23" y1="121.54" x2="57.5" y2="111.27"/><line class="cls-2" x1="61.62" y1="116.41" x2="71.89" y2="106.14"/><line class="cls-2" x1="66.76" y1="121.54" x2="77.03" y2="111.27"/><line class="cls-2" x1="81.15" y1="116.41" x2="91.42" y2="106.14"/><line class="cls-2" x1="100.54" y1="105.68" x2="110.81" y2="95.41"/><line class="cls-2" x1="114.93" y1="100.54" x2="125.2" y2="90.27"/><line class="cls-2" x1="120.07" y1="105.68" x2="130.34" y2="95.41"/><line class="cls-2" x1="86.72" y1="121.54" x2="96.99" y2="111.27"/><line class="cls-2" x1="101.11" y1="116.41" x2="111.38" y2="106.14"/><line class="cls-2" x1="106.24" y1="121.54" x2="116.52" y2="111.27"/><line class="cls-2" x1="120.64" y1="116.41" x2="130.91" y2="106.14"/><line class="cls-2" x1="-10.79" y1="131.07" x2="-0.52" y2="120.8"/><line class="cls-2" x1="-5.22" y1="136.2" x2="5.05" y2="125.93"/><line class="cls-2" x1="9.17" y1="131.07" x2="19.44" y2="120.8"/><line class="cls-2" x1="14.3" y1="136.2" x2="24.57" y2="125.93"/><line class="cls-2" x1="28.7" y1="131.07" x2="38.97" y2="120.8"/><line class="cls-2" x1="33.95" y1="136.2" x2="44.22" y2="125.93"/><line class="cls-2" x1="48.34" y1="131.07" x2="58.61" y2="120.8"/><line class="cls-2" x1="53.48" y1="136.2" x2="63.75" y2="125.93"/><line class="cls-2" x1="67.87" y1="131.07" x2="78.14" y2="120.8"/><line class="cls-2" x1="73.44" y1="136.2" x2="83.71" y2="125.93"/><line class="cls-2" x1="87.83" y1="131.07" x2="98.1" y2="120.8"/><line class="cls-2" x1="92.97" y1="136.2" x2="103.24" y2="125.93"/><line class="cls-2" x1="125.31" y1="121.54" x2="135.58" y2="111.27"/><line class="cls-2" x1="112.03" y1="136.2" x2="122.31" y2="125.93"/><line class="cls-2" x1="107.36" y1="131.07" x2="117.63" y2="120.8"/><line class="cls-2" x1="126.21" y1="-0.93" x2="136.48" y2="-11.2"/><line class="cls-2" x1="131.78" y1="4.2" x2="142.05" y2="-6.07"/><line class="cls-2" x1="-10.79" y1="-0.93" x2="-0.52" y2="-11.2"/><line class="cls-2" x1="-5.22" y1="4.2" x2="5.05" y2="-6.07"/><line class="cls-2" x1="9.17" y1="-0.93" x2="19.44" y2="-11.2"/><line class="cls-2" x1="14.3" y1="4.2" x2="24.57" y2="-6.07"/><line class="cls-2" x1="28.7" y1="-0.93" x2="38.97" y2="-11.2"/><line class="cls-2" x1="33.95" y1="4.2" x2="44.22" y2="-6.07"/><line class="cls-2" x1="48.34" y1="-0.93" x2="58.61" y2="-11.2"/><line class="cls-2" x1="53.48" y1="4.2" x2="63.75" y2="-6.07"/><line class="cls-2" x1="67.87" y1="-0.93" x2="78.14" y2="-11.2"/><line class="cls-2" x1="73.44" y1="4.2" x2="83.71" y2="-6.07"/><line class="cls-2" x1="87.83" y1="-0.93" x2="98.1" y2="-11.2"/><line class="cls-2" x1="92.97" y1="4.2" x2="103.24" y2="-6.07"/><line class="cls-2" x1="112.03" y1="4.2" x2="122.31" y2="-6.07"/><line class="cls-2" x1="107.36" y1="-0.93" x2="117.63" y2="-11.2"/></pattern></defs><title>media-buying-instagram</title><g id="HygMSCr6xQ" data-name="transparent BG"><g id="BJ-Mr0rTlQ"><path d="M479,1V479H1V1H479m1-1H0V480H480V0Z" id="rJMMH0Hpx7"/></g></g><path id="rkQfBAHpxX" d="M54.32,339.69c23.29,55.14,80.93,105.56,243,86.11S448.85,241.71,423,147.38,322.23,33.76,252.06,53.06c0,0-141.34,22.27-191.7,142.75C38.46,248.18,40.74,307.54,54.32,339.69Z"/><g id="Hy4zHASpgX"><polygon points="376.46 307.95 407.11 277.3 395.89 235.43 354.03 224.22 323.38 254.86 334.6 296.73 376.46 307.95" id="B1SGHCSTgQ"/><path d="M92.5,353.9l.2,4.32a34.84,34.84,0,1,0,69.68,0l0-3.28" id="Sk8fHRrplm"/><path d="M89,353.16a34.85,34.85,0,1,0,69.69,0" id="rJwGHASaeX"/><path d="M253,255.25l-3.2,2.92a34.84,34.84,0,0,1-49.27-49.28l2.34-2.3" id="r1dGBCHpxm"/><path d="M255.93,257.19a34.84,34.84,0,0,1-49.27-49.28Z" id="H1YGBRSpl7"/><polygon points="343.19 293.68 332.29 252.98 362.08 223.19 402.77 234.1 413.68 274.79 383.88 304.58 343.19 293.68" id="rJ5GS0HTlm"/><path d="M362.36,224.27,402,234.88l10.61,39.63-29,29L344,292.89l-10.61-39.62,29-29m-.57-2.15L331.21,252.7l11.2,41.76,41.76,11.19,30.58-30.57-11.2-41.77-41.76-11.19Z" id="H1sGH0Bpx7"/><polygon points="192.96 413.78 192.96 391.35 192.96 371.47 198.28 371.47 198.28 413.78 192.96 413.78" id="Sy3fr0HagX"/><polygon points="203.72 413.78 203.72 391.35 203.72 371.47 206.66 371.47 206.66 413.78 203.72 413.78" id="H16fHAB6gX"/><polygon points="177.33 413.78 177.33 391.35 177.33 371.47 187.66 371.47 187.66 413.78 177.33 413.78" id="rkAMSRB6eX"/><polygon points="340.89 79.22 318.46 79.22 298.58 79.22 298.58 73.9 340.89 73.9 340.89 79.22" id="B1kxfrAHpx7"/><polygon points="340.89 69.94 318.46 69.94 298.58 69.94 298.58 67.28 340.89 67.28 340.89 69.94" id="ryxeGSRHTl7"/><polygon points="340.89 93.86 318.46 93.86 298.58 93.86 298.58 83.54 340.89 83.54 340.89 93.86" id="B1-gGBRr6gm"/><polygon points="271.77 156.95 252.99 146.1 234.2 156.95 234.2 178.64 252.99 189.49 271.77 178.64 271.77 156.95" id="SJzgMBRBagm"/><circle cx="221.58" cy="185.6" r="6.03" id="B17ezrRrpxm"/><circle cx="221.58" cy="148.87" r="6.03" id="SJNxGBArTxQ"/><circle cx="253.45" cy="130.49" r="6.03" id="rJBgGrABpl7"/><line x1="221.58" y1="179.58" x2="221.58" y2="154.89" id="Hk8eGB0HTx7"/><line x1="226.83" y1="145.79" x2="248.21" y2="133.45" id="ByvxGSCSpxm"/><path d="M249.3,398.67l-21.58-21a.68.68,0,0,0-1.15.32l-7.42,29.2a.7.7,0,0,0,.86.84l29-8.18A.69.69,0,0,0,249.3,398.67Z" id="rydxfrRSplm"/><path d="M207.33,111l-7.8-29.11a.7.7,0,0,0-1.16-.31l-21.3,21.31a.69.69,0,0,0,.31,1.16l29.1,7.79A.69.69,0,0,0,207.33,111Z" id="HJYxzBCHTem"/><path d="M386.38,112,372.07,87.18a.84.84,0,0,0-1.45,0L356.31,112a.84.84,0,0,0,.73,1.26h28.62A.84.84,0,0,0,386.38,112Z" id="H19eGSCHpgX"/><path d="M386.38,132.49l-14.31,24.79a.84.84,0,0,1-1.45,0l-14.31-24.79a.84.84,0,0,1,.73-1.25h28.62A.83.83,0,0,1,386.38,132.49Z" id="S1jgMSRHTg7"/><polygon points="355.3 119.62 372.47 119.62 387.69 119.62 387.69 124.64 355.3 124.64 355.3 119.62" id="ry2lGBRSTe7"/><path d="M252.89,285.91c6,0,6.76,0,9.14.13a12.53,12.53,0,0,1,4.2.78,7,7,0,0,1,2.6,1.69,7,7,0,0,1,1.69,2.6,12.47,12.47,0,0,1,.78,4.2c.1,2.38.13,3.1.13,9.13s0,6.75-.13,9.14a12.53,12.53,0,0,1-.78,4.2,7.13,7.13,0,0,1-1.69,2.6,7,7,0,0,1-2.6,1.69,12.6,12.6,0,0,1-4.2.77c-2.38.11-3.1.14-9.14.14s-6.75,0-9.13-.14a12.54,12.54,0,0,1-4.2-.77,7,7,0,0,1-2.6-1.69,7.13,7.13,0,0,1-1.69-2.6,12.53,12.53,0,0,1-.78-4.2c-.11-2.39-.13-3.1-.13-9.14s0-6.75.13-9.13a12.47,12.47,0,0,1,.78-4.2,7,7,0,0,1,1.69-2.6,7,7,0,0,1,2.6-1.69,12.47,12.47,0,0,1,4.2-.78c2.38-.11,3.1-.13,9.13-.13m22.48,27.85c.11-2.41.13-3.18.13-9.32s0-6.91-.13-9.32a16.55,16.55,0,0,0-1.06-5.49A11.53,11.53,0,0,0,267.7,283a16.58,16.58,0,0,0-5.49-1c-2.41-.11-3.18-.14-9.32-.14h0c-6.14,0-6.91,0-9.32.14a16.63,16.63,0,0,0-5.49,1,11.6,11.6,0,0,0-6.61,6.61,16.58,16.58,0,0,0-1.05,5.49c-.11,2.41-.13,3.18-.13,9.32s0,6.91.13,9.32a16.58,16.58,0,0,0,1.05,5.49,11.53,11.53,0,0,0,6.61,6.61,16.63,16.63,0,0,0,5.49,1.05c2.41.11,3.18.14,9.32.14s6.91,0,9.32-.14a16.58,16.58,0,0,0,5.49-1.05,11.45,11.45,0,0,0,6.61-6.61,16.55,16.55,0,0,0,1.06-5.49" id="SkpxfS0Spx7"/><path d="M252.89,292.83a11.61,11.61,0,1,0,11.61,11.61A11.61,11.61,0,0,0,252.89,292.83Zm0,19.15a7.54,7.54,0,1,1,7.54-7.54A7.54,7.54,0,0,1,252.89,312Z" id="HkRgMBRBTgm"/><circle cx="264.96" cy="292.37" r="2.71" id="B1yZGS0rpem"/><line x1="89.59" y1="346.46" x2="158.48" y2="346.46" id="rkg-MrCBpeQ"/><path d="M253.8,112.69a2.66,2.66,0,0,1-1.9-.79l-4.7-4.7a6.67,6.67,0,0,0-4.73-2h-3.8a7.77,7.77,0,0,1-7.76-7.76V78.81a7.77,7.77,0,0,1,7.76-7.76h30.52A7.77,7.77,0,0,1,277,78.81V97.48a7.77,7.77,0,0,1-7.76,7.76h-4.07a6.7,6.7,0,0,0-4.72,2l-4.7,4.7A2.66,2.66,0,0,1,253.8,112.69Zm-4.86-31.15a5.28,5.28,0,0,0-5.22,5.32c0,2.19,1.32,6.55,9.79,11A.88.88,0,0,0,254,98a.87.87,0,0,0,.44-.11c8.48-4.44,9.78-8.8,9.8-11A5.29,5.29,0,0,0,259,81.54a7.67,7.67,0,0,0-5,2.35A7.68,7.68,0,0,0,248.94,81.54Z" id="SyZZGBCrpem"/><path d="M269.19,72a6.81,6.81,0,0,1,6.8,6.8V97.48a6.81,6.81,0,0,1-6.8,6.8h-4.07a7.57,7.57,0,0,0-5.4,2.24l-4.7,4.7a1.71,1.71,0,0,1-2.44,0l-4.71-4.7a7.55,7.55,0,0,0-5.4-2.24h-3.8a6.81,6.81,0,0,1-6.8-6.8V78.81a6.81,6.81,0,0,1,6.8-6.8h30.52M254,82.6a8.11,8.11,0,0,0-5-2,6,6,0,0,0-3,.78,6.13,6.13,0,0,0-3.22,5.51c0,2.41,1.39,7.15,10.31,11.83a1.86,1.86,0,0,0,.89.22,1.89,1.89,0,0,0,.89-.22c8.92-4.68,10.29-9.42,10.31-11.83a6.12,6.12,0,0,0-3.23-5.51,6,6,0,0,0-3-.78,8.05,8.05,0,0,0-5,2m15.23-12.51H238.67A8.72,8.72,0,0,0,230,78.81V97.48a8.71,8.71,0,0,0,8.72,8.72h3.8a5.71,5.71,0,0,1,4.05,1.68l4.7,4.7a3.65,3.65,0,0,0,5.16,0l4.7-4.7a5.69,5.69,0,0,1,4-1.68h4.07a8.71,8.71,0,0,0,8.72-8.72V78.81a8.72,8.72,0,0,0-8.72-8.72ZM254,85.28s2.23-2.78,5-2.78a4.19,4.19,0,0,1,2,.54c3.64,2,3.79,8.27-7,14-10.84-5.69-10.7-12-7.05-14a4.18,4.18,0,0,1,2-.54c2.79,0,5,2.78,5,2.78Z" id="SJG-GBCBagm"/></g><line x1="133.13" y1="317.3" x2="133.13" y2="323.3" id="r17-fB0Bpem"/><line x1="133.13" y1="333.17" x2="133.13" y2="347.97" id="BJEbzBCB6eQ"/><polyline points="133.13 352.9 133.13 358.9 139.13 358.9" id="HJHZfSCBpl7"/><line x1="150.79" y1="358.9" x2="238.22" y2="358.9" id="SJIZMS0r6lm"/><line x1="244.05" y1="358.9" x2="250.05" y2="358.9" id="r1DWfH0BpeX"/><g id="rkdWMSCS6lQ_r1E_RrTe7" data-animator-group="true" data-animator-type="0"><g id="rkdWMSCS6lQ"><rect x="62.28" y="117.41" width="141.71" height="209.47" rx="0.87" ry="0.87" id="BkFWMHABpx7"/><rect x="62.28" y="146.39" width="141.71" height="140.19" rx="0.37" ry="0.37" id="H15ZGB0Bax7"/><rect x="62.28" y="286.39" width="141.71" height="15.04" rx="0.37" ry="0.37" id="SyoZGSRBpxX"/><path d="M83.16,132.34c0,4.2-3.42,6.45-6.78,6.45a6.08,6.08,0,0,1-6.07-6.08c0-3.36,2.41-6.87,6.42-6.87A6.76,6.76,0,0,1,83.16,132.34Z" id="B13bGHCBax7"/><rect x="89.34" y="128.11" width="34.68" height="2.94" rx="0.4" ry="0.4" id="Hk6ZfSCrTem"/><rect x="89.34" y="134.38" width="17.34" height="1.96" rx="0.46" ry="0.46" id="Hk0bGr0rTeX"/><rect x="70.38" y="292.93" width="25.45" height="1.96" id="BykGGr0rpxX"/><circle cx="187.27" cy="131.5" r="0.91" id="rylfMHRBaem"/><circle cx="190.7" cy="131.5" r="0.91" id="BJbfGHAHaeQ"/><circle cx="194.14" cy="131.5" r="0.91" id="H1GGzrCr6l7"/><path d="M100.89,277.42" id="HyQGfSCBaxX"/><polyline points="190.53 290.97 193.46 293.91 190.53 296.85" id="Sk4zzHRS6lX"/><path d="M78.31,309.08a2.81,2.81,0,0,0-2.25,1.38,0,0,0,0,1,0,0,2.66,2.66,0,0,0-5,1.59c0,2.58,5,5.94,5,5.94s5-3.36,5-5.94A2.78,2.78,0,0,0,78.31,309.08Z" id="rJBMGB0raxm"/><path d="M98.85,315.6a4.69,4.69,0,0,0,.41-2.51,4.55,4.55,0,1,0-2,4.32h0l2.19.57s0,0,0,0l-.66-2.34S98.84,315.6,98.85,315.6Z" id="r1LGGr0rplm"/><path d="M108.58,309.79h9.89s0,0,0,0l-5.21,8.56s-.06,0-.06,0l-.81-5.12-3.85-3.39A0,0,0,0,1,108.58,309.79Z" id="r1vfMSASTl7"/><line x1="112.41" y1="313.24" x2="118.49" y2="309.82" id="S1_zfS0H6lQ"/><path d="M188.08,309v9.27s0,0,0,0l3.67-3.32h0l3.67,3.32s.05,0,.05,0V309s0,0,0,0H188.1A0,0,0,0,0,188.08,309Z" id="ryFzGrCB6e7"/><path d="M132.55,195.47c6,0,6.75,0,9.13.14a12.49,12.49,0,0,1,4.2.77,6.87,6.87,0,0,1,2.6,1.7,7,7,0,0,1,1.69,2.59,12.53,12.53,0,0,1,.78,4.2c.11,2.39.13,3.1.13,9.14s0,6.75-.13,9.13a12.47,12.47,0,0,1-.78,4.2,7.47,7.47,0,0,1-4.29,4.29,12.42,12.42,0,0,1-4.2.78c-2.38.11-3.09.13-9.13.13s-6.75,0-9.14-.13a12.4,12.4,0,0,1-4.19-.78,7.47,7.47,0,0,1-4.29-4.29,12.47,12.47,0,0,1-.78-4.2C114,220.76,114,220,114,214s0-6.75.13-9.14a12.53,12.53,0,0,1,.78-4.2,7,7,0,0,1,1.69-2.59,6.87,6.87,0,0,1,2.6-1.7,12.47,12.47,0,0,1,4.19-.77c2.39-.11,3.1-.14,9.14-.14M155,223.33c.11-2.41.14-3.18.14-9.32s0-6.91-.14-9.32A16.58,16.58,0,0,0,154,199.2a11.53,11.53,0,0,0-6.61-6.61,16.58,16.58,0,0,0-5.49-1.05c-2.41-.11-3.18-.14-9.32-.14h0c-6.14,0-6.91,0-9.32.14a16.58,16.58,0,0,0-5.49,1.05,11.53,11.53,0,0,0-6.61,6.61,16.58,16.58,0,0,0-1,5.49c-.11,2.41-.14,3.18-.14,9.32s0,6.91.14,9.32a16.58,16.58,0,0,0,1,5.49,11.14,11.14,0,0,0,2.61,4,11,11,0,0,0,4,2.61,16.58,16.58,0,0,0,5.49,1c2.41.11,3.18.14,9.32.14s6.91,0,9.32-.14a16.58,16.58,0,0,0,5.49-1,11.6,11.6,0,0,0,6.61-6.61,16.58,16.58,0,0,0,1.05-5.49" id="rJ9zfSAHpl7"/><path d="M132.55,202.4A11.61,11.61,0,1,0,144.16,214,11.61,11.61,0,0,0,132.55,202.4Zm0,19.14a7.54,7.54,0,1,1,7.54-7.53A7.54,7.54,0,0,1,132.55,221.54Z" id="Bkmr0SaxX"/><circle cx="144.62" cy="201.94" r="2.71" id="BJxmBRBpeX"/></g></g><g id="Sk-QSCSalQ"><g id="HyfXSABTx7"><path id="H17mr0H6em" d="M349.61,415c27.43,10.06,30.05,2.36,32.9-8.09s10.86-34.62,17.39-52.25,6.54-46.37,6.54-48.33-11.76-10.45-14.13-10.45-30.94-5.88-36.82-11.76-11.51-33-11.51-33l-18.19,9.6-4.7,11A16.93,16.93,0,0,1,326,285.4s-7.12,6.75-14.36,10.12c-6.32,2.94-9.64,7.51-12.2,17.3-3.6,13.75-16.62,33.49-16.62,33.49l13.91,17.86,11.08-16.07,40.76-.66,22.93-14.83c-3.39,9.69-7.43,23.07-8.82,30.51-2,10.45-8.49,30.7-8.49,30.7-8.5-2-44.42-11.76-44.42-11.76"/><path id="ryN7H0raxm" d="M352.46,279.31c-4.64-9.75-8.48-28.19-8.48-28.19l-18.19,9.6-4.7,11A17,17,0,0,1,326,282.12a35.82,35.82,0,0,0,26.44-2.81Z"/></g><g id="HyBXB0raxQ"><path d="M331.82,302.38s-3.27-.17-3.43,4.24,3.1,5.55,5.39,2.62S334.75,302.24,331.82,302.38Z" id="HkLXBAB6x7"/><path d="M355.49,284.09c-4.73,10.29-16.33,21.06-23.83,20.25s-6.64-18-6.64-18" id="SyPXSRHTlQ"/></g><path id="BkumSArpgQ" d="M318.26,314.79c.05,12.41,13.39,20.9,24.5,6.85s16.71-34.95,16.71-34.95l9.07,3.52s-12.6,15.82-9.07,27.55,12,14.85,12,14.85l-7.19,69.7-56.5-13.4,2-6.85c4.57-10.78,0-24.49-4.9-38.54s.66-23.83,5.88-30.69A33.26,33.26,0,0,0,317,299.09s.38-6.34,1.77-8.8l4.36-2.93S318.23,305.81,318.26,314.79Z"/><g id="B1F7r0r6gQ"><path id="rJcmB0S6lX" d="M371.5,332.61c1.37-3.93,2.64-7.26,3.59-9.33,0,0-4.68-.1-6.55,7.67Z"/><path id="rks7rRHTlX" data-name="arm" d="M372.65,332.84c-2.16,10.65-3.88,24.28-5.59,29.63a208.82,208.82,0,0,0-6.81,27.43c-8.49-2-50.48-7.84-50.48-7.84l-9.33,13.68S315.75,404,349.61,415c27.8,9,30.05,2.36,32.9-8.09s10.86-34.62,17.39-52.25"/></g><g id="BJ37rRBpgm"><path d="M268.8,358.59a47.36,47.36,0,0,0-8.72,15.14c-1.59,5-.65,11.13,3.95,13.63,2.51,1.36,8.4,3.93,14.21,1.65C278.4,387.34,279.51,380.74,268.8,358.59Z" id="B1aQBRBTe7"/><path d="M280.7,374.41s3.74-2.19,5.56-2.47a7.49,7.49,0,0,1,2.23,0,.31.31,0,0,1,.15.53L284.76,376Z" id="SJAQBRHTxQ"/><path d="M288.07,372a16.06,16.06,0,0,0-1.43,1.34c-.27.36,0,.56,0,.56" id="H11eQH0rpeX"/><g id="ryxe7HRBplX"><path d="M266.22,345s1.4-1.59,2.31-1.71,27-.37,28.15,0,6.58,27.92,6.58,27.92Z" id="Hy-eXHCBag7"/><path id="SkzeQB0Hae7" data-name="phone" d="M266.56,344.84a.53.53,0,0,0-.45.67L276,392.63a1,1,0,0,0,.93.82c3.67.23,19.58,1,28-1.21l-8.82-46.65a.89.89,0,0,0-.82-.71C291.85,344.82,275.69,344.55,266.56,344.84Z"/></g><path d="M299,375.08l-11.59-4.38s-8.59-1.84-10.27-2.15-3,2.91.2,4.25,7.85,2.85,7.85,2.85-4.56,3.47-1,5.86l3.53,2.39s-1.17,2.27-.3,2.92,6.08,4.44,6.08,4.44,10.29,7.37,16.13,8.55" id="ByQlQHCrpxQ"/><path d="M285.19,375.65s-4.56,3.47-1,5.86l3.53,2.39" id="HJVxXSRSag7"/><path d="M296.3,381.15l12,12.65,11.1-5.87L312,381.34l-13.51-16a3.52,3.52,0,0,0-1.74-1.14l-12.18-3.48a.47.47,0,0,0-.61.53,5.83,5.83,0,0,0,2.1,3.91,35.43,35.43,0,0,0,6.82,3,3.56,3.56,0,0,1,1.76,1.37l5.86,10Z" id="BJrlQrCr6em"/><g id="SkLl7H0ralX_SyYzsEeb7" data-animator-group="true" data-animator-type="1"><path d="M302.48,379s2.76-2.1.74-7.75l-1.65-7.77a18,18,0,0,1,4.54,5.07,28.61,28.61,0,0,1,2.6,5.79l6.12,11.12Z" id="SkLl7H0ralX"/></g><path d="M284.63,362.13a16.85,16.85,0,0,0,1.88.59c.28,0,.84-.46,1-1.18" id="B1Dl7S0HTe7"/><path d="M278.77,369.21a1.62,1.62,0,0,1-.74,1,6.63,6.63,0,0,1-2.26,0" id="HkuxXSASagX"/><path d="M267.94,377.34s6-7.63,6.57-8.16,4-1.86,6-3.71a5.3,5.3,0,0,0,1.78-3.71.34.34,0,0,0-.43-.34c-2.09.54-10.36,3.62-10.36,3.62l-9.6,8.11Z" id="S1Kg7HAHpxQ"/><path d="M279.34,362.46s.39.89.88.78c.31-.06,1.25-.36,1.88-.57" id="Bk9xXrCrTgQ"/><polygon points="280.72 372.87 270.26 375.65 271.75 382.04 284.84 374.24 280.72 372.87" id="B1ogQH0rTgQ"/><path d="M269.44,378.74l11-1.89s2,2.26,1.16,4l-.86,1.71a3.79,3.79,0,0,1,.11,4.39,5.17,5.17,0,0,1-2.42,1.93,12.25,12.25,0,0,1-3.93,1" id="BJnemBRS6e7"/></g><g id="rkpgQrCB6g7_ryznCSagm" data-animator-group="true" data-animator-type="1"><g id="rkpgQrCB6g7"><path d="M288.84,211.5s-.31,11.13,10.17,14.4,17-5.17,17-5.17-3.69,7.92,3.43,12.66,12.59-.34,12.59-.34.72,12.59,14.27,11.75l2.88-.07s1.22,8.52,9.69,8.52c5.89,0,8.33-3,9.52-6.28,0,0,7.05,2.86,10.88-4.27a9.3,9.3,0,0,0-1.22-10.49s6.12,1.73,9.62-3.82a9.34,9.34,0,0,0,10.9-1.23c4.29-3.82,6.11-10.82-.75-16.66,0,0,15-7,8.63-22.29-4.92-11.71-16.62-9.28-16.62-9.28s6.64-6.34,2.35-16.4-15.79-7.44-15.79-7.44a16.11,16.11,0,0,0-.34-12.26c-2.95-6.16-10.76-8.26-10.76-8.26s6.06-10.84-7.09-17.87c0,0-2.15-7.29-9.25-6.42a10.21,10.21,0,0,0-8.8,6.6s-3.58-10.78-14.17-9.51-11.26,10.52-11.26,10.52S314,108,301,108.22s-12.58,13.7-12.58,13.7-14.12,4.51-19,15.29c0,0-7.71-2.69-14.42,5.66s-2.74,18.31-2.74,18.31-5.6-1.59-11.43,5-5,20.57,2.49,23.34a21.42,21.42,0,0,0-9.2,19,20.11,20.11,0,0,0,11.13,17.22s-1.71,9.11,7,11.75c0,0-.8,11.22,11.49,12,0,0,2.11,7.2,8.47,8a10.11,10.11,0,0,0,8-2.32s7.84,10.84,17.08,1.63" id="rkAxmBAH6eQ"/><g id="ryyW7SCrpg7_H1xOl8plm" data-animator-group="true" data-animator-type="1"><ellipse id="ryyW7SCrpg7" cx="287.73" cy="270.12" rx="17.28" ry="5.49"/></g><path id="Ske-mSCBTeX" d="M280.4,231.22S285,258.43,299.26,273s20.34,13.13,37.51-2.11c12.82-11.38,20.38-28.21,5.69-65.21S270.29,191.6,280.4,231.22Z"/><path d="M352.2,234.86a99.58,99.58,0,0,0-2.12-17.4c-1.22.44-9.17,3.32-19.7,6.07a304.58,304.58,0,0,1-42.82-19.93,66.47,66.47,0,0,0-8.43,12.58,33.77,33.77,0,0,0-.62,11.8s.06.81.22,2.2h0c0,.28.07.6.11.93v0q0,.36.09.78V232h0c.48,3.74.43,7,2.18,13.55,7.54-.48,21.3-.75,35.81-3.68,16.93,4.33,28.76,5.72,33.64,5.57a38,38,0,0,0,1.62-12.59Z" id="ryWbXrCBaxQ"/><path d="M283.89,253s6.15-7.64,19.87-14.63l-24.21.8Z" id="BkM-7H0Hplm"/><path d="M273.84,241.71" id="SJX-QHCSTgX"/><path d="M349,252.31a44.75,44.75,0,0,0,2.17-12.57l-14.46,1.32S348.16,254.87,349,252.31Z" id="r1VbmH0HTeX"/><path d="M277.25,241.93a.9.9,0,0,0,.92,1.15c6.1-.29,31.2-1.78,51.77-7.51L353.53,229a21.69,21.69,0,0,1-1.66-6.44c-.22-3.23-.72-11-1.82-10.59s-22.45,8.25-43.22,10.68-30.06.83-30.46,3.38C276,228.4,278.79,236.64,277.25,241.93Z" id="ryrWXSRBagX"/><path d="M287.44,199.11s31.8,18.59,64.52,26.71c0,0,2-.07,1.57,3.18s3.06,12.63.42,15-23.61.21-78.9-17.71a.41.41,0,0,1-.17-.67,4.71,4.71,0,0,0,1.31-4.24C275.7,218.18,278.92,209.3,287.44,199.11Z" id="SJIZmSCSTlX"/><path d="M281.39,207.44a44.88,44.88,0,0,0-4.29,8.74c.27.13,43.18,21.18,77.16,18.72-.15-.8-.29-1.58-.42-2.32h0C330.19,237.73,281.64,207.6,281.39,207.44Z" id="HkP-XHABpg7"/><path d="M358.29,237.85l-4.76.13c-13.56.83-14.27-11.76-14.27-11.76s-5.47,5.09-12.59.35-3.44-12.66-3.44-12.66-6.53,8.44-17,5.17-10.16-14.4-10.16-14.4c-4.69,7.83-14.16,4.6-14.16,4.6s4.68,14.26-16.13,16.61L256.41,197l55.09-25.89,44.38,12.2L360,221.14Z" id="ryd-7r0B6g7"/><g id="BJYZ7S0S6em_r1IGWITe7" data-animator-group="true" data-animator-type="1"><path d="M339.12,246.31c2.65,2.4,5.46,7,7.47,12.66,3.22,9.09,3.12,17.41-.21,18.59s-8.66-5.22-11.88-14.3c-2.33-6.57-2.93-12.75-1.81-16.11" id="BJYZ7S0S6em"/></g><path d="M369.06,145.06s12.41-2.19,16.92,4.16,10.18,7.73,10.67,1.38c.21-2.73-.63-3.45-1.65-3.38a2.46,2.46,0,0,0-1.85,3.7l.34.6" id="HycWXrRHaxm"/><path d="M261.3,140.82s-2.54-7.91,7.24-12.08,3.74-14.18.9-10.13" id="BJjbXrRBagm"/><path d="M254.23,233.94s-5.82-1.24-8.24,2.78,6.76,7.74,5,4.54-7.61,1.57-8.57,5.41c-.89,3.58-3.91,2.45-3.41.1" id="Hy3-7HAHaxm"/><path d="M331.08,265.61c-1.95,3.3,5.86,3.89,1.94-3.3s3-9.64,1.5-4.82-11.43,1.55-6-5,7.87,3.45,1.8-.89.07-10,.07-10" id="Sya-mHAHTl7"/><path d="M357.27,126.44s12.73,1.8,9.25-5.52-7.27,4.71,4.78,2.65,1.65-12.36-.27-9.48,8.38,5.6,8.27,1.45" id="S1A-XSRB6gm"/><path d="M248.1,170.34s-16.57,3.21-9.11,10.81,7-9-7.07-1.24,3.24,16,4.39,11.66-12.8-3.37-10.89,1.73" id="r11GXSCHplQ"/><path d="M374.83,231.16s11.58,1.25,8.16,4.73c-9.09,9.24,12.73-5.54,4.9,3.12s.14,5.2.14,5.2" id="rygzmSASpgX"/></g></g></g><script>(function(){var a=document.querySelector('#ryfrRSTg7'),b=a.querySelectorAll('style'),c=function(d){b.forEach(function(f){var g=f.textContent;g&amp;&amp;(f.textContent=g.replace(/transform-box:[^;\r\n]*/gi,'transform-box: '+d))})};c('initial'),window.requestAnimationFrame(function(){return c('fill-box')})})();</script></svg>